<svg xmlns="http://www.w3.org/2000/svg" xmlns:xlink="http://www.w3.org/1999/xlink" version="1.1" class="marks" width="817" height="227" viewBox="0 0 817 227"><rect width="817" height="227" fill="#111217"/><g fill="none" stroke-miterlimit="10" transform="translate(50,31)"><g class="mark-group role-frame root" role="graphics-object" aria-roledescription="group mark container"><g transform="translate(0,0)"><path class="background" aria-hidden="true" d="M0.5,0.5h760v160h-760Z" fill="#181b1f"/><g><g class="mark-group role-axis" aria-hidden="true"><g transform="translate(0.5,160.5)"><path class="background" aria-hidden="true" d="M0,0h0v0h0Z" pointer-events="none"/><g><g class="mark-rule role-axis-grid" pointer-events="none"><line transform="translate(3,-160)" x2="0" y2="160" stroke="#2c3235" stroke-opacity="1" stroke-width="1" opacity="1"/><line transform="translate(41,-160)" x2="0" y2="160" stroke="#2c3235" stroke-opacity="1" stroke-width="1" opacity="1"/><line transform="translate(79,-160)" x2="0" y2="160" stroke="#2c3235" stroke-opacity="1" stroke-width="1" opacity="1"/><line transform="translate(117,-160)" x2="0" y2="160" stroke="#2c3235" stroke-opacity="1" stroke-width="1" opacity="1"/><line transform="translate(155,-160)" x2="0" y2="160" stroke="#2c3235" stroke-opacity="1" stroke-width="1" opacity="1"/><line transform="translate(193,-160)" x2="0" y2="160" stroke="#2c3235" stroke-opacity="1" stroke-width="1" opacity="1"/><line transform="translate(231,-160)" x2="0" y2="160" stroke="#2c3235" stroke-opacity="1" stroke-width="1" opacity="1"/><line transform="translate(269,-160)" x2="0" y2="160" stroke="#2c3235" stroke-opacity="1" stroke-width="1" opacity="1"/><line transform="translate(307,-160)" x2="0" y2="160" stroke="#2c3235" stroke-opacity="1" stroke-width="1" opacity="1"/><line transform="translate(345,-160)" x2="0" y2="160" stroke="#2c3235" stroke-opacity="1" stroke-width="1" opacity="1"/><line transform="translate(383,-160)" x2="0" y2="160" stroke="#2c3235" stroke-opacity="1" stroke-width="1" opacity="1"/><line transform="translate(421,-160)" x2="0" y2="160" stroke="#2c3235" stroke-opacity="1" stroke-width="1" opacity="1"/><line transform="translate(459,-160)" x2="0" y2="160" stroke="#2c3235" stroke-opacity="1" stroke-width="1" opacity="1"/><line transform="translate(497,-160)" x2="0" y2="160" stroke="#2c3235" stroke-opacity="1" stroke-width="1" opacity="1"/><line transform="translate(535,-160)" x2="0" y2="160" stroke="#2c3235" stroke-opacity="1" stroke-width="1" opacity="1"/><line transform="translate(573,-160)" x2="0" y2="160" stroke="#2c3235" stroke-opacity="1" stroke-width="1" opacity="1"/><line transform="translate(611,-160)" x2="0" y2="160" stroke="#2c3235" stroke-opacity="1" stroke-width="1" opacity="1"/><line transform="translate(649,-160)" x2="0" y2="160" stroke="#2c3235" stroke-opacity="1" stroke-width="1" opacity="1"/><line transform="translate(687,-160)" x2="0" y2="160" stroke="#2c3235" stroke-opacity="1" stroke-width="1" opacity="1"/><line transform="translate(725,-160)" x2="0" y2="160" stroke="#2c3235" stroke-opacity="1" stroke-width="1" opacity="1"/></g></g><path class="foreground" aria-hidden="true" d="" pointer-events="none" display="none"/></g></g><g class="mark-group role-axis" aria-hidden="true"><g transform="translate(0.5,0.5)"><path class="background" aria-hidden="true" d="M0,0h0v0h0Z" pointer-events="none"/><g><g class="mark-rule role-axis-grid" pointer-events="none"><line transform="translate(0,142)" x2="760" y2="0" stroke="#2c3235" stroke-opacity="1" stroke-width="1" opacity="1"/><line transform="translate(0,107)" x2="760" y2="0" stroke="#2c3235" stroke-opacity="1" stroke-width="1" opacity="1"/><line transform="translate(0,71)" x2="760" y2="0" stroke="#2c3235" stroke-opacity="1" stroke-width="1" opacity="1"/><line transform="translate(0,36)" x2="760" y2="0" stroke="#2c3235" stroke-opacity="1" stroke-width="1" opacity="1"/><line transform="translate(0,0)" x2="760" y2="0" stroke="#2c3235" stroke-opacity="1" stroke-width="1" opacity="1"/></g></g><path class="foreground" aria-hidden="true" d="" pointer-events="none" display="none"/></g></g><g class="mark-group role-axis" role="graphics-symbol" aria-roledescription="axis" aria-label="X-axis titled 'Time (UTC)' for a time scale with values from 23:09 to 23:29"><g transform="translate(0.5,160.5)"><path class="background" aria-hidden="true" d="M0,0h0v0h0Z" pointer-events="none"/><g><g class="mark-rule role-axis-tick" pointer-events="none"><line transform="translate(3,0)" x2="0" y2="5" stroke="#9fa7b3" stroke-width="1" opacity="1"/><line transform="translate(41,0)" x2="0" y2="5" stroke="#9fa7b3" stroke-width="1" opacity="1"/><line transform="translate(79,0)" x2="0" y2="5" stroke="#9fa7b3" stroke-width="1" opacity="1"/><line transform="translate(117,0)" x2="0" y2="5" stroke="#9fa7b3" stroke-width="1" opacity="1"/><line transform="translate(155,0)" x2="0" y2="5" stroke="#9fa7b3" stroke-width="1" opacity="1"/><line transform="translate(193,0)" x2="0" y2="5" stroke="#9fa7b3" stroke-width="1" opacity="1"/><line transform="translate(231,0)" x2="0" y2="5" stroke="#9fa7b3" stroke-width="1" opacity="1"/><line transform="translate(269,0)" x2="0" y2="5" stroke="#9fa7b3" stroke-width="1" opacity="1"/><line transform="translate(307,0)" x2="0" y2="5" stroke="#9fa7b3" stroke-width="1" opacity="1"/><line transform="translate(345,0)" x2="0" y2="5" stroke="#9fa7b3" stroke-width="1" opacity="1"/><line transform="translate(383,0)" x2="0" y2="5" stroke="#9fa7b3" stroke-width="1" opacity="1"/><line transform="translate(421,0)" x2="0" y2="5" stroke="#9fa7b3" stroke-width="1" opacity="1"/><line transform="translate(459,0)" x2="0" y2="5" stroke="#9fa7b3" stroke-width="1" opacity="1"/><line transform="translate(497,0)" x2="0" y2="5" stroke="#9fa7b3" stroke-width="1" opacity="1"/><line transform="translate(535,0)" x2="0" y2="5" stroke="#9fa7b3" stroke-width="1" opacity="1"/><line transform="translate(573,0)" x2="0" y2="5" stroke="#9fa7b3" stroke-width="1" opacity="1"/><line transform="translate(611,0)" x2="0" y2="5" stroke="#9fa7b3" stroke-width="1" opacity="1"/><line transform="translate(649,0)" x2="0" y2="5" stroke="#9fa7b3" stroke-width="1" opacity="1"/><line transform="translate(687,0)" x2="0" y2="5" stroke="#9fa7b3" stroke-width="1" opacity="1"/><line transform="translate(725,0)" x2="0" y2="5" stroke="#9fa7b3" stroke-width="1" opacity="1"/></g><g class="mark-text role-axis-label" pointer-events="none"><text text-anchor="middle" transform="translate(3.2064464249257316,15)" font-family="sans-serif" font-size="10px" fill="#9fa7b3" opacity="1">23:10</text><text text-anchor="middle" transform="translate(41.205021478361225,15)" font-family="sans-serif" font-size="10px" fill="#9fa7b3" opacity="0">23:11</text><text text-anchor="middle" transform="translate(79.20359653179672,15)" font-family="sans-serif" font-size="10px" fill="#9fa7b3" opacity="1">23:12</text><text text-anchor="middle" transform="translate(117.20217158523222,15)" font-family="sans-serif" font-size="10px" fill="#9fa7b3" opacity="0">23:13</text><text text-anchor="middle" transform="translate(155.20074663866774,15)" font-family="sans-serif" font-size="10px" fill="#9fa7b3" opacity="1">23:14</text><text text-anchor="middle" transform="translate(193.1993216921032,15)" font-family="sans-serif" font-size="10px" fill="#9fa7b3" opacity="0">23:15</text><text text-anchor="middle" transform="translate(231.1978967455387,15)" font-family="sans-serif" font-size="10px" fill="#9fa7b3" opacity="1">23:16</text><text text-anchor="middle" transform="translate(269.19647179897424,15)" font-family="sans-serif" font-size="10px" fill="#9fa7b3" opacity="0">23:17</text><text text-anchor="middle" transform="translate(307.19504685240975,15)" font-family="sans-serif" font-size="10px" fill="#9fa7b3" opacity="1">23:18</text><text text-anchor="middle" transform="translate(345.1936219058452,15)" font-family="sans-serif" font-size="10px" fill="#9fa7b3" opacity="0">23:19</text><text text-anchor="middle" transform="translate(383.19219695928075,15)" font-family="sans-serif" font-size="10px" fill="#9fa7b3" opacity="1">23:20</text><text text-anchor="middle" transform="translate(421.19077201271614,15)" font-family="sans-serif" font-size="10px" fill="#9fa7b3" opacity="0">23:21</text><text text-anchor="middle" transform="translate(459.18934706615164,15)" font-family="sans-serif" font-size="10px" fill="#9fa7b3" opacity="1">23:22</text><text text-anchor="middle" transform="translate(497.18792211958714,15)" font-family="sans-serif" font-size="10px" fill="#9fa7b3" opacity="0">23:23</text><text text-anchor="middle" transform="translate(535.1864971730226,15)" font-family="sans-serif" font-size="10px" fill="#9fa7b3" opacity="1">23:24</text><text text-anchor="middle" transform="translate(573.1850722264581,15)" font-family="sans-serif" font-size="10px" fill="#9fa7b3" opacity="0">23:25</text><text text-anchor="middle" transform="translate(611.1836472798936,15)" font-family="sans-serif" font-size="10px" fill="#9fa7b3" opacity="1">23:26</text><text text-anchor="middle" transform="translate(649.1822223333292,15)" font-family="sans-serif" font-size="10px" fill="#9fa7b3" opacity="0">23:27</text><text text-anchor="middle" transform="translate(687.1807973867647,15)" font-family="sans-serif" font-size="10px" fill="#9fa7b3" opacity="1">23:28</text><text text-anchor="middle" transform="translate(725.1793724402002,15)" font-family="sans-serif" font-size="10px" fill="#9fa7b3" opacity="0">23:29</text></g><g class="mark-rule role-axis-domain" pointer-events="none"><line transform="translate(0,0)" x2="760" y2="0" stroke="#9fa7b3" stroke-width="1" opacity="1"/></g><g class="mark-text role-axis-title" pointer-events="none"><text text-anchor="middle" transform="translate(380,29)" font-family="sans-serif" font-size="10px" font-weight="bold" fill="#9fa7b3" opacity="1">Time (UTC)</text></g></g><path class="foreground" aria-hidden="true" d="" pointer-events="none" display="none"/></g></g><g class="mark-group role-axis" role="graphics-symbol" aria-roledescription="axis" aria-label="Y-axis titled 'tx/s' for a linear scale with values from −50 to 40"><g transform="translate(0.5,0.5)"><path class="background" aria-hidden="true" d="M0,0h0v0h0Z" pointer-events="none"/><g><g class="mark-rule role-axis-tick" pointer-events="none"><line transform="translate(0,142)" x2="-5" y2="0" stroke="#9fa7b3" stroke-width="1" opacity="1"/><line transform="translate(0,107)" x2="-5" y2="0" stroke="#9fa7b3" stroke-width="1" opacity="1"/><line transform="translate(0,71)" x2="-5" y2="0" stroke="#9fa7b3" stroke-width="1" opacity="1"/><line transform="translate(0,36)" x2="-5" y2="0" stroke="#9fa7b3" stroke-width="1" opacity="1"/><line transform="translate(0,0)" x2="-5" y2="0" stroke="#9fa7b3" stroke-width="1" opacity="1"/></g><g class="mark-text role-axis-label" pointer-events="none"><text text-anchor="end" transform="translate(-7,145.22222222222223)" font-family="sans-serif" font-size="10px" fill="#9fa7b3" opacity="1">−40</text><text text-anchor="end" transform="translate(-7,109.66666666666669)" font-family="sans-serif" font-size="10px" fill="#9fa7b3" opacity="1">−20</text><text text-anchor="end" transform="translate(-7,74.11111111111111)" font-family="sans-serif" font-size="10px" fill="#9fa7b3" opacity="1">0</text><text text-anchor="end" transform="translate(-7,38.55555555555556)" font-family="sans-serif" font-size="10px" fill="#9fa7b3" opacity="1">20</text><text text-anchor="end" transform="translate(-7,3)" font-family="sans-serif" font-size="10px" fill="#9fa7b3" opacity="1">40</text></g><g class="mark-rule role-axis-domain" pointer-events="none"><line transform="translate(0,160)" x2="0" y2="-160" stroke="#9fa7b3" stroke-width="1" opacity="1"/></g><g class="mark-text role-axis-title" pointer-events="none"><text text-anchor="middle" transform="translate(-35,80) rotate(-90) translate(0,-2)" font-family="sans-serif" font-size="10px" font-weight="bold" fill="#9fa7b3" opacity="1">tx/s</text></g></g><path class="foreground" aria-hidden="true" d="" pointer-events="none" display="none"/></g></g><g class="mark-line role-mark layer_0_marks" role="graphics-object" aria-roledescription="line mark container"><path aria-label="ts: 23:10; value: −30.7333" role="graphics-symbol" aria-roledescription="line mark" d="M9.5,125.748C12.666,137.956,15.833,150.163,18.999,150.163C22.166,150.163,25.332,17.896,28.499,17.896C31.665,17.896,34.832,137.363,37.999,137.363C41.165,137.363,44.332,21.886,47.498,20.148C50.665,18.41,53.831,17.541,56.998,17.541C60.164,17.541,63.331,135.585,66.498,135.585C69.664,135.585,72.831,17.304,75.997,17.304C79.164,17.304,82.33,132.148,85.497,132.148C88.663,132.148,91.83,13.274,94.996,13.274C98.163,13.274,101.33,136.178,104.496,136.178C107.663,136.178,110.829,16,113.996,16C117.162,16,120.329,138.311,123.495,138.311C126.662,138.311,129.828,13.393,132.995,13.393C136.162,13.393,139.328,137.956,142.495,137.956C145.661,137.956,148.828,14.459,151.994,14.459C155.161,14.459,158.327,136.77,161.494,136.77C164.66,136.77,167.827,11.852,170.994,11.852C174.16,11.852,177.327,133.333,180.493,133.333C183.66,133.333,186.826,16.711,189.993,16.711C193.159,16.711,196.326,132.148,199.493,132.148C202.659,132.148,205.826,18.133,208.992,15.289C212.159,12.444,215.325,11.022,218.492,11.022C221.658,11.022,224.825,136.889,227.991,136.889C231.158,136.889,234.325,9.126,237.491,9.126C240.658,9.126,243.824,136.178,246.991,136.178C250.157,136.178,253.324,8.77,256.49,8.77C259.657,8.77,262.823,134.4,265.99,134.4C269.157,134.4,272.323,12.563,275.49,12.563C278.656,12.563,281.823,136.178,284.989,136.178C288.156,136.178,291.322,11.97,294.489,11.97C297.656,11.97,300.822,132.622,303.989,132.622C307.155,132.622,310.322,11.733,313.488,11.733C316.655,11.733,319.821,141.63,322.988,141.63C326.154,141.63,329.321,14.222,332.488,14.222C335.654,14.222,338.821,132.385,341.987,132.385C345.154,132.385,348.32,13.867,351.487,13.867C354.653,13.867,357.82,137.719,360.986,137.719C364.153,137.719,367.32,12.681,370.486,12.681C373.653,12.681,376.819,138.311,379.986,138.311C383.152,138.311,386.319,10.904,389.485,10.904C392.652,10.904,395.818,135.111,398.985,135.111C402.152,135.111,405.318,16.593,408.485,16.593C411.651,16.593,414.818,133.807,417.984,133.807C421.151,133.807,424.317,16.474,427.484,16.474C430.651,16.474,433.817,17.62,436.984,19.911C440.15,22.202,443.317,136.533,446.483,136.533C449.65,136.533,452.816,12.089,455.983,12.089C459.149,12.089,462.316,133.452,465.483,133.452C468.649,133.452,471.816,8.889,474.982,8.889C478.149,8.889,481.315,132.148,484.482,132.148C487.648,132.148,490.815,13.511,493.981,13.511C497.148,13.511,500.315,133.926,503.481,133.926C506.648,133.926,509.814,12.207,512.981,12.207C516.147,12.207,519.314,137.6,522.48,137.6C525.647,137.6,528.814,12.207,531.98,12.207C535.147,12.207,538.313,139.259,541.48,139.259C544.646,139.259,547.813,18.015,550.979,18.015C554.146,18.015,557.312,139.141,560.479,139.141C563.646,139.141,566.812,14.459,569.979,14.459C573.145,14.459,576.312,16.909,579.478,21.807C582.645,26.706,585.811,35.635,588.978,43.852C592.144,52.069,595.311,71.111,598.478,71.111C601.644,71.111,604.811,71.111,607.977,71.111C611.144,71.111,614.31,71.111,617.477,71.111C620.643,71.111,623.81,71.111,626.976,71.111C630.143,71.111,633.31,71.111,636.476,71.111C639.643,71.111,642.809,71.111,645.976,71.111C649.142,71.111,652.309,71.111,655.475,71.111C658.642,71.111,661.809,71.111,664.975,71.111C668.142,71.111,671.308,71.111,674.475,71.111C677.641,71.111,680.808,71.111,683.974,71.111C687.141,71.111,690.307,71.111,693.474,71.111C696.641,71.111,699.807,71.111,702.974,71.111C706.14,71.111,709.307,71.111,712.473,71.111C715.64,71.111,718.806,71.111,721.973,71.111C725.139,71.111,728.306,71.111,731.473,71.111C734.639,71.111,737.806,71.111,740.972,71.111C744.139,71.111,747.305,71.111,750.472,71.111C753.638,71.111,756.805,71.111,759.972,71.111" stroke="#7EB26D" stroke-width="1.5"/></g><g class="mark-group role-title"><g transform="translate(-45,-26)"><path class="background" aria-hidden="true" d="M0,0h0v0h0Z" pointer-events="none"/><g><g class="mark-text role-title-text" role="graphics-symbol" aria-roledescription="title" aria-label="Title text 'Net Mempool Drain Rate (committed - accepted tx/s)'" pointer-events="none"><text text-anchor="start" transform="translate(0,10)" font-family="sans-serif" font-size="13px" font-weight="normal" fill="#d0d0d0" opacity="1">Net Mempool Drain Rate (committed - accepted tx/s)</text></g></g><path class="foreground" aria-hidden="true" d="" pointer-events="none" display="none"/></g></g></g><path class="foreground" aria-hidden="true" d="" display="none"/></g></g></g></svg>