<svg xmlns="http://www.w3.org/2000/svg" xmlns:xlink="http://www.w3.org/1999/xlink" version="1.1" class="marks" width="817" height="227" viewBox="0 0 817 227"><rect width="817" height="227" fill="#111217"/><g fill="none" stroke-miterlimit="10" transform="translate(50,31)"><g class="mark-group role-frame root" role="graphics-object" aria-roledescription="group mark container"><g transform="translate(0,0)"><path class="background" aria-hidden="true" d="M0.5,0.5h760v160h-760Z" fill="#181b1f"/><g><g class="mark-group role-axis" aria-hidden="true"><g transform="translate(0.5,160.5)"><path class="background" aria-hidden="true" d="M0,0h0v0h0Z" pointer-events="none"/><g><g class="mark-rule role-axis-grid" pointer-events="none"><line transform="translate(11,-160)" x2="0" y2="160" stroke="#2c3235" stroke-opacity="1" stroke-width="1" opacity="1"/><line transform="translate(30,-160)" x2="0" y2="160" stroke="#2c3235" stroke-opacity="1" stroke-width="1" opacity="1"/><line transform="translate(49,-160)" x2="0" y2="160" stroke="#2c3235" stroke-opacity="1" stroke-width="1" opacity="1"/><line transform="translate(68,-160)" x2="0" y2="160" stroke="#2c3235" stroke-opacity="1" stroke-width="1" opacity="1"/><line transform="translate(87,-160)" x2="0" y2="160" stroke="#2c3235" stroke-opacity="1" stroke-width="1" opacity="1"/><line transform="translate(106,-160)" x2="0" y2="160" stroke="#2c3235" stroke-opacity="1" stroke-width="1" opacity="1"/><line transform="translate(125,-160)" x2="0" y2="160" stroke="#2c3235" stroke-opacity="1" stroke-width="1" opacity="1"/><line transform="translate(144,-160)" x2="0" y2="160" stroke="#2c3235" stroke-opacity="1" stroke-width="1" opacity="1"/><line transform="translate(163,-160)" x2="0" y2="160" stroke="#2c3235" stroke-opacity="1" stroke-width="1" opacity="1"/><line transform="translate(182,-160)" x2="0" y2="160" stroke="#2c3235" stroke-opacity="1" stroke-width="1" opacity="1"/><line transform="translate(201,-160)" x2="0" y2="160" stroke="#2c3235" stroke-opacity="1" stroke-width="1" opacity="1"/><line transform="translate(220,-160)" x2="0" y2="160" stroke="#2c3235" stroke-opacity="1" stroke-width="1" opacity="1"/><line transform="translate(239,-160)" x2="0" y2="160" stroke="#2c3235" stroke-opacity="1" stroke-width="1" opacity="1"/><line transform="translate(258,-160)" x2="0" y2="160" stroke="#2c3235" stroke-opacity="1" stroke-width="1" opacity="1"/><line transform="translate(277,-160)" x2="0" y2="160" stroke="#2c3235" stroke-opacity="1" stroke-width="1" opacity="1"/><line transform="translate(296,-160)" x2="0" y2="160" stroke="#2c3235" stroke-opacity="1" stroke-width="1" opacity="1"/><line transform="translate(315,-160)" x2="0" y2="160" stroke="#2c3235" stroke-opacity="1" stroke-width="1" opacity="1"/><line transform="translate(334,-160)" x2="0" y2="160" stroke="#2c3235" stroke-opacity="1" stroke-width="1" opacity="1"/><line transform="translate(353,-160)" x2="0" y2="160" stroke="#2c3235" stroke-opacity="1" stroke-width="1" opacity="1"/><line transform="translate(372,-160)" x2="0" y2="160" stroke="#2c3235" stroke-opacity="1" stroke-width="1" opacity="1"/><line transform="translate(391,-160)" x2="0" y2="160" stroke="#2c3235" stroke-opacity="1" stroke-width="1" opacity="1"/><line transform="translate(410,-160)" x2="0" y2="160" stroke="#2c3235" stroke-opacity="1" stroke-width="1" opacity="1"/><line transform="translate(429,-160)" x2="0" y2="160" stroke="#2c3235" stroke-opacity="1" stroke-width="1" opacity="1"/><line transform="translate(448,-160)" x2="0" y2="160" stroke="#2c3235" stroke-opacity="1" stroke-width="1" opacity="1"/><line transform="translate(467,-160)" x2="0" y2="160" stroke="#2c3235" stroke-opacity="1" stroke-width="1" opacity="1"/><line transform="translate(486,-160)" x2="0" y2="160" stroke="#2c3235" stroke-opacity="1" stroke-width="1" opacity="1"/><line transform="translate(505,-160)" x2="0" y2="160" stroke="#2c3235" stroke-opacity="1" stroke-width="1" opacity="1"/><line transform="translate(524,-160)" x2="0" y2="160" stroke="#2c3235" stroke-opacity="1" stroke-width="1" opacity="1"/><line transform="translate(543,-160)" x2="0" y2="160" stroke="#2c3235" stroke-opacity="1" stroke-width="1" opacity="1"/><line transform="translate(562,-160)" x2="0" y2="160" stroke="#2c3235" stroke-opacity="1" stroke-width="1" opacity="1"/><line transform="translate(581,-160)" x2="0" y2="160" stroke="#2c3235" stroke-opacity="1" stroke-width="1" opacity="1"/><line transform="translate(600,-160)" x2="0" y2="160" stroke="#2c3235" stroke-opacity="1" stroke-width="1" opacity="1"/><line transform="translate(619,-160)" x2="0" y2="160" stroke="#2c3235" stroke-opacity="1" stroke-width="1" opacity="1"/><line transform="translate(638,-160)" x2="0" y2="160" stroke="#2c3235" stroke-opacity="1" stroke-width="1" opacity="1"/><line transform="translate(657,-160)" x2="0" y2="160" stroke="#2c3235" stroke-opacity="1" stroke-width="1" opacity="1"/><line transform="translate(676,-160)" x2="0" y2="160" stroke="#2c3235" stroke-opacity="1" stroke-width="1" opacity="1"/><line transform="translate(695,-160)" x2="0" y2="160" stroke="#2c3235" stroke-opacity="1" stroke-width="1" opacity="1"/><line transform="translate(714,-160)" x2="0" y2="160" stroke="#2c3235" stroke-opacity="1" stroke-width="1" opacity="1"/><line transform="translate(733,-160)" x2="0" y2="160" stroke="#2c3235" stroke-opacity="1" stroke-width="1" opacity="1"/><line transform="translate(752,-160)" x2="0" y2="160" stroke="#2c3235" stroke-opacity="1" stroke-width="1" opacity="1"/></g></g><path class="foreground" aria-hidden="true" d="" pointer-events="none" display="none"/></g></g><g class="mark-group role-axis" aria-hidden="true"><g transform="translate(0.5,0.5)"><path class="background" aria-hidden="true" d="M0,0h0v0h0Z" pointer-events="none"/><g><g class="mark-rule role-axis-grid" pointer-events="none"><line transform="translate(0,160)" x2="760" y2="0" stroke="#2c3235" stroke-opacity="1" stroke-width="1" opacity="1"/><line transform="translate(0,107)" x2="760" y2="0" stroke="#2c3235" stroke-opacity="1" stroke-width="1" opacity="1"/><line transform="translate(0,53)" x2="760" y2="0" stroke="#2c3235" stroke-opacity="1" stroke-width="1" opacity="1"/><line transform="translate(0,0)" x2="760" y2="0" stroke="#2c3235" stroke-opacity="1" stroke-width="1" opacity="1"/></g></g><path class="foreground" aria-hidden="true" d="" pointer-events="none" display="none"/></g></g><g class="mark-group role-axis" role="graphics-symbol" aria-roledescription="axis" aria-label="X-axis titled 'Time (UTC)' for a time scale with values from 09:10 to 09:50"><g transform="translate(0.5,160.5)"><path class="background" aria-hidden="true" d="M0,0h0v0h0Z" pointer-events="none"/><g><g class="mark-rule role-axis-tick" pointer-events="none"><line transform="translate(11,0)" x2="0" y2="5" stroke="#9fa7b3" stroke-width="1" opacity="1"/><line transform="translate(30,0)" x2="0" y2="5" stroke="#9fa7b3" stroke-width="1" opacity="1"/><line transform="translate(49,0)" x2="0" y2="5" stroke="#9fa7b3" stroke-width="1" opacity="1"/><line transform="translate(68,0)" x2="0" y2="5" stroke="#9fa7b3" stroke-width="1" opacity="1"/><line transform="translate(87,0)" x2="0" y2="5" stroke="#9fa7b3" stroke-width="1" opacity="1"/><line transform="translate(106,0)" x2="0" y2="5" stroke="#9fa7b3" stroke-width="1" opacity="1"/><line transform="translate(125,0)" x2="0" y2="5" stroke="#9fa7b3" stroke-width="1" opacity="1"/><line transform="translate(144,0)" x2="0" y2="5" stroke="#9fa7b3" stroke-width="1" opacity="1"/><line transform="translate(163,0)" x2="0" y2="5" stroke="#9fa7b3" stroke-width="1" opacity="1"/><line transform="translate(182,0)" x2="0" y2="5" stroke="#9fa7b3" stroke-width="1" opacity="1"/><line transform="translate(201,0)" x2="0" y2="5" stroke="#9fa7b3" stroke-width="1" opacity="1"/><line transform="translate(220,0)" x2="0" y2="5" stroke="#9fa7b3" stroke-width="1" opacity="1"/><line transform="translate(239,0)" x2="0" y2="5" stroke="#9fa7b3" stroke-width="1" opacity="1"/><line transform="translate(258,0)" x2="0" y2="5" stroke="#9fa7b3" stroke-width="1" opacity="1"/><line transform="translate(277,0)" x2="0" y2="5" stroke="#9fa7b3" stroke-width="1" opacity="1"/><line transform="translate(296,0)" x2="0" y2="5" stroke="#9fa7b3" stroke-width="1" opacity="1"/><line transform="translate(315,0)" x2="0" y2="5" stroke="#9fa7b3" stroke-width="1" opacity="1"/><line transform="translate(334,0)" x2="0" y2="5" stroke="#9fa7b3" stroke-width="1" opacity="1"/><line transform="translate(353,0)" x2="0" y2="5" stroke="#9fa7b3" stroke-width="1" opacity="1"/><line transform="translate(372,0)" x2="0" y2="5" stroke="#9fa7b3" stroke-width="1" opacity="1"/><line transform="translate(391,0)" x2="0" y2="5" stroke="#9fa7b3" stroke-width="1" opacity="1"/><line transform="translate(410,0)" x2="0" y2="5" stroke="#9fa7b3" stroke-width="1" opacity="1"/><line transform="translate(429,0)" x2="0" y2="5" stroke="#9fa7b3" stroke-width="1" opacity="1"/><line transform="translate(448,0)" x2="0" y2="5" stroke="#9fa7b3" stroke-width="1" opacity="1"/><line transform="translate(467,0)" x2="0" y2="5" stroke="#9fa7b3" stroke-width="1" opacity="1"/><line transform="translate(486,0)" x2="0" y2="5" stroke="#9fa7b3" stroke-width="1" opacity="1"/><line transform="translate(505,0)" x2="0" y2="5" stroke="#9fa7b3" stroke-width="1" opacity="1"/><line transform="translate(524,0)" x2="0" y2="5" stroke="#9fa7b3" stroke-width="1" opacity="1"/><line transform="translate(543,0)" x2="0" y2="5" stroke="#9fa7b3" stroke-width="1" opacity="1"/><line transform="translate(562,0)" x2="0" y2="5" stroke="#9fa7b3" stroke-width="1" opacity="1"/><line transform="translate(581,0)" x2="0" y2="5" stroke="#9fa7b3" stroke-width="1" opacity="1"/><line transform="translate(600,0)" x2="0" y2="5" stroke="#9fa7b3" stroke-width="1" opacity="1"/><line transform="translate(619,0)" x2="0" y2="5" stroke="#9fa7b3" stroke-width="1" opacity="1"/><line transform="translate(638,0)" x2="0" y2="5" stroke="#9fa7b3" stroke-width="1" opacity="1"/><line transform="translate(657,0)" x2="0" y2="5" stroke="#9fa7b3" stroke-width="1" opacity="1"/><line transform="translate(676,0)" x2="0" y2="5" stroke="#9fa7b3" stroke-width="1" opacity="1"/><line transform="translate(695,0)" x2="0" y2="5" stroke="#9fa7b3" stroke-width="1" opacity="1"/><line transform="translate(714,0)" x2="0" y2="5" stroke="#9fa7b3" stroke-width="1" opacity="1"/><line transform="translate(733,0)" x2="0" y2="5" stroke="#9fa7b3" stroke-width="1" opacity="1"/><line transform="translate(752,0)" x2="0" y2="5" stroke="#9fa7b3" stroke-width="1" opacity="1"/></g><g class="mark-text role-axis-label" pointer-events="none"><text text-anchor="middle" transform="translate(10.662586748265035,15)" font-family="sans-serif" font-size="10px" fill="#9fa7b3" opacity="1">09:11</text><text text-anchor="middle" transform="translate(29.662206755864883,15)" font-family="sans-serif" font-size="10px" fill="#9fa7b3" opacity="0">09:12</text><text text-anchor="middle" transform="translate(48.66182676346473,15)" font-family="sans-serif" font-size="10px" fill="#9fa7b3" opacity="0">09:13</text><text text-anchor="middle" transform="translate(67.66144677106458,15)" font-family="sans-serif" font-size="10px" fill="#9fa7b3" opacity="0">09:14</text><text text-anchor="middle" transform="translate(86.66106677866443,15)" font-family="sans-serif" font-size="10px" fill="#9fa7b3" opacity="1">09:15</text><text text-anchor="middle" transform="translate(105.66068678626428,15)" font-family="sans-serif" font-size="10px" fill="#9fa7b3" opacity="0">09:16</text><text text-anchor="middle" transform="translate(124.66030679386411,15)" font-family="sans-serif" font-size="10px" fill="#9fa7b3" opacity="0">09:17</text><text text-anchor="middle" transform="translate(143.65992680146397,15)" font-family="sans-serif" font-size="10px" fill="#9fa7b3" opacity="0">09:18</text><text text-anchor="middle" transform="translate(162.6595468090638,15)" font-family="sans-serif" font-size="10px" fill="#9fa7b3" opacity="1">09:19</text><text text-anchor="middle" transform="translate(181.65916681666366,15)" font-family="sans-serif" font-size="10px" fill="#9fa7b3" opacity="0">09:20</text><text text-anchor="middle" transform="translate(200.65878682426353,15)" font-family="sans-serif" font-size="10px" fill="#9fa7b3" opacity="0">09:21</text><text text-anchor="middle" transform="translate(219.65840683186337,15)" font-family="sans-serif" font-size="10px" fill="#9fa7b3" opacity="0">09:22</text><text text-anchor="middle" transform="translate(238.65802683946322,15)" font-family="sans-serif" font-size="10px" fill="#9fa7b3" opacity="1">09:23</text><text text-anchor="middle" transform="translate(257.65764684706306,15)" font-family="sans-serif" font-size="10px" fill="#9fa7b3" opacity="0">09:24</text><text text-anchor="middle" transform="translate(276.6572668546629,15)" font-family="sans-serif" font-size="10px" fill="#9fa7b3" opacity="0">09:25</text><text text-anchor="middle" transform="translate(295.65688686226275,15)" font-family="sans-serif" font-size="10px" fill="#9fa7b3" opacity="0">09:26</text><text text-anchor="middle" transform="translate(314.6565068698626,15)" font-family="sans-serif" font-size="10px" fill="#9fa7b3" opacity="1">09:27</text><text text-anchor="middle" transform="translate(333.65612687746244,15)" font-family="sans-serif" font-size="10px" fill="#9fa7b3" opacity="0">09:28</text><text text-anchor="middle" transform="translate(352.65574688506234,15)" font-family="sans-serif" font-size="10px" fill="#9fa7b3" opacity="0">09:29</text><text text-anchor="middle" transform="translate(371.65536689266213,15)" font-family="sans-serif" font-size="10px" fill="#9fa7b3" opacity="0">09:30</text><text text-anchor="middle" transform="translate(390.654986900262,15)" font-family="sans-serif" font-size="10px" fill="#9fa7b3" opacity="1">09:31</text><text text-anchor="middle" transform="translate(409.6546069078619,15)" font-family="sans-serif" font-size="10px" fill="#9fa7b3" opacity="0">09:32</text><text text-anchor="middle" transform="translate(428.65422691546166,15)" font-family="sans-serif" font-size="10px" fill="#9fa7b3" opacity="0">09:33</text><text text-anchor="middle" transform="translate(447.65384692306156,15)" font-family="sans-serif" font-size="10px" fill="#9fa7b3" opacity="0">09:34</text><text text-anchor="middle" transform="translate(466.6534669306614,15)" font-family="sans-serif" font-size="10px" fill="#9fa7b3" opacity="1">09:35</text><text text-anchor="middle" transform="translate(485.6530869382612,15)" font-family="sans-serif" font-size="10px" fill="#9fa7b3" opacity="0">09:36</text><text text-anchor="middle" transform="translate(504.6527069458611,15)" font-family="sans-serif" font-size="10px" fill="#9fa7b3" opacity="0">09:37</text><text text-anchor="middle" transform="translate(523.6523269534609,15)" font-family="sans-serif" font-size="10px" fill="#9fa7b3" opacity="0">09:38</text><text text-anchor="middle" transform="translate(542.6519469610607,15)" font-family="sans-serif" font-size="10px" fill="#9fa7b3" opacity="1">09:39</text><text text-anchor="middle" transform="translate(561.6515669686606,15)" font-family="sans-serif" font-size="10px" fill="#9fa7b3" opacity="0">09:40</text><text text-anchor="middle" transform="translate(580.6511869762604,15)" font-family="sans-serif" font-size="10px" fill="#9fa7b3" opacity="0">09:41</text><text text-anchor="middle" transform="translate(599.6508069838603,15)" font-family="sans-serif" font-size="10px" fill="#9fa7b3" opacity="0">09:42</text><text text-anchor="middle" transform="translate(618.6504269914601,15)" font-family="sans-serif" font-size="10px" fill="#9fa7b3" opacity="1">09:43</text><text text-anchor="middle" transform="translate(637.65004699906,15)" font-family="sans-serif" font-size="10px" fill="#9fa7b3" opacity="0">09:44</text><text text-anchor="middle" transform="translate(656.6496670066599,15)" font-family="sans-serif" font-size="10px" fill="#9fa7b3" opacity="0">09:45</text><text text-anchor="middle" transform="translate(675.6492870142597,15)" font-family="sans-serif" font-size="10px" fill="#9fa7b3" opacity="0">09:46</text><text text-anchor="middle" transform="translate(694.6489070218596,15)" font-family="sans-serif" font-size="10px" fill="#9fa7b3" opacity="1">09:47</text><text text-anchor="middle" transform="translate(713.6485270294595,15)" font-family="sans-serif" font-size="10px" fill="#9fa7b3" opacity="0">09:48</text><text text-anchor="middle" transform="translate(732.6481470370593,15)" font-family="sans-serif" font-size="10px" fill="#9fa7b3" opacity="0">09:49</text><text text-anchor="middle" transform="translate(751.6477670446591,15)" font-family="sans-serif" font-size="10px" fill="#9fa7b3" opacity="0">09:50</text></g><g class="mark-rule role-axis-domain" pointer-events="none"><line transform="translate(0,0)" x2="760" y2="0" stroke="#9fa7b3" stroke-width="1" opacity="1"/></g><g class="mark-text role-axis-title" pointer-events="none"><text text-anchor="middle" transform="translate(380,29)" font-family="sans-serif" font-size="10px" font-weight="bold" fill="#9fa7b3" opacity="1">Time (UTC)</text></g></g><path class="foreground" aria-hidden="true" d="" pointer-events="none" display="none"/></g></g><g class="mark-group role-axis" role="graphics-symbol" aria-roledescription="axis" aria-label="Y-axis titled 'txs' for a linear scale with values from 0 to 300"><g transform="translate(0.5,0.5)"><path class="background" aria-hidden="true" d="M0,0h0v0h0Z" pointer-events="none"/><g><g class="mark-rule role-axis-tick" pointer-events="none"><line transform="translate(0,160)" x2="-5" y2="0" stroke="#9fa7b3" stroke-width="1" opacity="1"/><line transform="translate(0,107)" x2="-5" y2="0" stroke="#9fa7b3" stroke-width="1" opacity="1"/><line transform="translate(0,53)" x2="-5" y2="0" stroke="#9fa7b3" stroke-width="1" opacity="1"/><line transform="translate(0,0)" x2="-5" y2="0" stroke="#9fa7b3" stroke-width="1" opacity="1"/></g><g class="mark-text role-axis-label" pointer-events="none"><text text-anchor="end" transform="translate(-7,163)" font-family="sans-serif" font-size="10px" fill="#9fa7b3" opacity="1">0</text><text text-anchor="end" transform="translate(-7,109.66666666666669)" font-family="sans-serif" font-size="10px" fill="#9fa7b3" opacity="1">100</text><text text-anchor="end" transform="translate(-7,56.33333333333334)" font-family="sans-serif" font-size="10px" fill="#9fa7b3" opacity="1">200</text><text text-anchor="end" transform="translate(-7,3)" font-family="sans-serif" font-size="10px" fill="#9fa7b3" opacity="1">300</text></g><g class="mark-rule role-axis-domain" pointer-events="none"><line transform="translate(0,160)" x2="0" y2="-160" stroke="#9fa7b3" stroke-width="1" opacity="1"/></g><g class="mark-text role-axis-title" pointer-events="none"><text text-anchor="middle" transform="translate(-35,80) rotate(-90) translate(0,-2)" font-family="sans-serif" font-size="10px" font-weight="bold" fill="#9fa7b3" opacity="1">txs</text></g></g><path class="foreground" aria-hidden="true" d="" pointer-events="none" display="none"/></g></g><g class="mark-line role-mark layer_0_marks" role="graphics-object" aria-roledescription="line mark container"><path aria-label="ts: 09:10; value: 0" role="graphics-symbol" aria-roledescription="line mark" d="M-0.104,160C1.479,151.667,3.063,143.333,4.646,133.333C6.229,123.333,7.813,111.111,9.396,100C10.979,88.889,12.563,77.778,14.146,66.667C15.729,55.556,17.312,33.333,18.896,33.333C20.479,33.333,22.062,33.827,23.646,33.827C25.229,33.827,26.812,6.738,28.396,6.738C29.979,6.738,31.562,31.868,33.145,33.506C34.729,35.144,36.312,34.495,37.895,35.963C39.479,37.431,41.062,42.315,42.645,42.315C44.229,42.315,45.812,12.466,47.395,12.466C48.978,12.466,50.562,30.306,52.145,30.306C53.728,30.306,55.312,17.334,56.895,17.334C58.478,17.334,60.062,19.443,61.645,19.443C63.228,19.443,64.812,17.886,66.395,17.886C67.978,17.886,69.561,21.81,71.145,21.81C72.728,21.81,74.311,6.667,75.895,6.667C77.478,6.667,79.061,14.847,80.645,19.773C82.228,24.698,83.811,31.735,85.394,36.218C86.978,40.7,88.561,46.667,90.144,46.667C91.728,46.667,93.311,42.576,94.894,41.071C96.478,39.565,98.061,37.633,99.644,37.633C101.227,37.633,102.811,45.319,104.394,45.319C105.977,45.319,107.561,24.364,109.144,24.364C110.727,24.364,112.311,32.975,113.894,32.975C115.477,32.975,117.06,16.175,118.644,16.175C120.227,16.175,121.81,46.667,123.394,46.667C124.977,46.667,126.56,17.152,128.144,17.152C129.727,17.152,131.31,45.539,132.893,45.539C134.477,45.539,136.06,6.667,137.643,6.667C139.227,6.667,140.81,17.702,142.393,17.702C143.977,17.702,145.56,16.341,147.143,16.341C148.726,16.341,150.31,46.667,151.893,46.667C153.476,46.667,155.06,21.621,156.643,21.621C158.226,21.621,159.81,24.448,161.393,24.448C162.976,24.448,164.56,22.253,166.143,22.253C167.726,22.253,169.309,25.939,170.893,25.939C172.476,25.939,174.059,18.03,175.643,18.03C177.226,18.03,178.809,46.667,180.393,46.667C181.976,46.667,183.559,44.451,185.142,40.021C186.726,35.59,188.309,20.003,189.892,20.003C191.476,20.003,193.059,45.934,194.642,45.934C196.226,45.934,197.809,6.667,199.392,6.667C200.975,6.667,202.559,9.713,204.142,11.758C205.725,13.802,207.309,15.714,208.892,18.934C210.475,22.154,212.059,30.044,213.642,31.076C215.225,32.109,216.808,32.626,218.392,32.626C219.975,32.626,221.558,19.805,223.142,19.805C224.725,19.805,226.308,19.996,227.892,20.379C229.475,20.762,231.058,30.849,232.641,30.849C234.225,30.849,235.808,27.955,237.391,27.955C238.975,27.955,240.558,46.575,242.141,46.575C243.725,46.575,245.308,9.156,246.891,9.156C248.474,9.156,250.058,19.399,251.641,23.516C253.224,27.633,254.808,33.86,256.391,33.86C257.974,33.86,259.558,16.375,261.141,16.375C262.724,16.375,264.308,46.667,265.891,46.667C267.474,46.667,269.057,35.769,270.641,32.118C272.224,28.467,273.807,24.76,275.391,24.76C276.974,24.76,278.557,36.339,280.141,36.339C281.724,36.339,283.307,22.446,284.89,22.446C286.474,22.446,288.057,46.667,289.64,46.667C291.224,46.667,292.807,23.285,294.39,23.285C295.974,23.285,297.557,23.39,299.14,23.598C300.723,23.807,302.307,25.632,303.89,27.693C305.473,29.754,307.057,35.967,308.64,35.967C310.223,35.967,311.807,20.475,313.39,20.423C314.973,20.371,316.556,20.345,318.14,20.345C319.723,20.345,321.306,21.559,322.89,23.988C324.473,26.417,326.056,40.053,327.64,40.053C329.223,40.053,330.806,33.695,332.389,30.971C333.973,28.247,335.556,23.71,337.139,23.71C338.723,23.71,340.306,24.712,341.889,26.07C343.473,27.428,345.056,29.794,346.639,31.857C348.223,33.919,349.806,38.444,351.389,38.444C352.972,38.444,354.556,36.46,356.139,32.494C357.722,28.527,359.306,7.445,360.889,7.445C362.472,7.445,364.056,46.126,365.639,46.126C367.222,46.126,368.805,20.956,370.389,20.956C371.972,20.956,373.555,38.186,375.139,38.186C376.722,38.186,378.305,20.464,379.889,20.464C381.472,20.464,383.055,23.067,384.638,23.067C386.222,23.067,387.805,11.955,389.388,11.955C390.972,11.955,392.555,31.126,394.138,31.126C395.722,31.126,397.305,9.095,398.888,9.095C400.471,9.095,402.055,12.957,403.638,12.957C405.221,12.957,406.805,6.667,408.388,6.667C409.971,6.667,411.555,8.69,413.138,12.737C414.721,16.783,416.304,31.058,417.888,31.058C419.471,31.058,421.054,28.671,422.638,28.671C424.221,28.671,425.804,41.502,427.388,41.502C428.971,41.502,430.554,20.243,432.137,20.243C433.721,20.243,435.304,21.336,436.887,23.521C438.471,25.706,440.054,39.155,441.637,39.155C443.221,39.155,444.804,37.728,446.387,34.875C447.971,32.021,449.554,17.052,451.137,17.052C452.72,17.052,454.304,28.024,455.887,31.177C457.47,34.331,459.054,35.973,460.637,35.973C462.22,35.973,463.804,6.695,465.387,6.695C466.97,6.695,468.553,42.23,470.137,42.23C471.72,42.23,473.303,31.641,474.887,29.026C476.47,26.412,478.053,26.656,479.637,25.105C481.22,23.554,482.803,19.721,484.386,19.721C485.97,19.721,487.553,20.215,489.136,20.215C490.72,20.215,492.303,18.815,493.886,18.815C495.47,18.815,497.053,35.184,498.636,35.184C500.219,35.184,501.803,17.041,503.386,17.041C504.969,17.041,506.553,20.761,508.136,24.839C509.719,28.916,511.303,41.507,512.886,41.507C514.469,41.507,516.052,30.766,517.636,27.096C519.219,23.427,520.802,19.491,522.386,19.491C523.969,19.491,525.552,43.29,527.136,43.29C528.719,43.29,530.302,33.938,531.885,33.938C533.469,33.938,535.052,46.667,536.635,46.667C538.219,46.667,539.802,6.667,541.385,6.667C542.969,6.667,544.552,9.208,546.135,10.762C547.719,12.316,549.302,12.504,550.885,15.989C552.468,19.473,554.052,39.309,555.635,42.252C557.218,45.195,558.802,46.667,560.385,46.667C561.968,46.667,563.552,26.05,565.135,26.05C566.718,26.05,568.301,30.79,569.885,32.166C571.468,33.543,573.051,33.918,574.635,34.31C576.218,34.703,577.801,34.507,579.385,34.9C580.968,35.293,582.551,41.964,584.134,44.286C585.718,46.609,587.301,45.802,588.884,48.833C590.468,51.864,592.051,58.863,593.634,62.556C595.218,66.249,596.801,67.448,598.384,70.992C599.967,74.537,601.551,80.745,603.134,83.823C604.717,86.901,606.301,88.254,607.884,89.46C609.467,90.667,611.051,90.064,612.634,91.27C614.217,92.477,615.8,100.83,617.384,104.52C618.967,108.21,620.55,110.444,622.134,113.411C623.717,116.377,625.3,120.037,626.884,122.319C628.467,124.6,630.05,124.583,631.634,127.099C633.217,129.614,634.8,134.044,636.383,137.412C637.967,140.78,639.55,144.729,641.133,147.307C642.717,149.884,644.3,150.763,645.883,152.879C647.467,154.994,649.05,160,650.633,160C652.216,160,653.8,160,655.383,160C656.966,160,658.55,160,660.133,160C661.716,160,663.3,160,664.883,160C666.466,160,668.049,160,669.633,160C671.216,160,672.799,160,674.383,160C675.966,160,677.549,160,679.133,160C680.716,160,682.299,160,683.882,160C685.466,160,687.049,160,688.632,160C690.216,160,691.799,160,693.382,160C694.966,160,696.549,160,698.132,160C699.715,160,701.299,160,702.882,160C704.465,160,706.049,160,707.632,160C709.215,160,710.799,160,712.382,160C713.965,160,715.548,160,717.132,160C718.715,160,720.298,160,721.882,160C723.465,160,725.048,160,726.632,160C728.215,160,729.798,160,731.382,160C732.965,160,734.548,160,736.131,160C737.715,160,739.298,160,740.881,160C742.465,160,744.048,160,745.631,160C747.215,160,748.798,160,750.381,160C751.964,160,753.548,160,755.131,160C756.714,160,758.298,160,759.881,160" stroke="#7EB26D" stroke-width="1.5"/></g><g class="mark-group role-title"><g transform="translate(-45,-26)"><path class="background" aria-hidden="true" d="M0,0h0v0h0Z" pointer-events="none"/><g><g class="mark-text role-title-text" role="graphics-symbol" aria-roledescription="title" aria-label="Title text 'Midgard Transactions in Queue'" pointer-events="none"><text text-anchor="start" transform="translate(0,10)" font-family="sans-serif" font-size="13px" font-weight="normal" fill="#d0d0d0" opacity="1">Midgard Transactions in Queue</text></g></g><path class="foreground" aria-hidden="true" d="" pointer-events="none" display="none"/></g></g></g><path class="foreground" aria-hidden="true" d="" display="none"/></g></g></g></svg>