<svg xmlns="http://www.w3.org/2000/svg" xmlns:xlink="http://www.w3.org/1999/xlink" version="1.1" class="marks" width="809" height="222" viewBox="0 0 809 222"><rect width="809" height="222" fill="#111217"/><g fill="none" stroke-miterlimit="10" transform="translate(42,26)"><g class="mark-group role-frame root" role="graphics-object" aria-roledescription="group mark container"><g transform="translate(0,0)"><path class="background" aria-hidden="true" d="M0.5,0.5h760v160h-760Z" fill="#181b1f"/><g><g class="mark-group role-axis" aria-hidden="true"><g transform="translate(0.5,160.5)"><path class="background" aria-hidden="true" d="M0,0h0v0h0Z" pointer-events="none"/><g><g class="mark-rule role-axis-grid" pointer-events="none"><line transform="translate(22,-160)" x2="0" y2="160" stroke="#2c3235" stroke-opacity="1" stroke-width="1" opacity="1"/><line transform="translate(60,-160)" x2="0" y2="160" stroke="#2c3235" stroke-opacity="1" stroke-width="1" opacity="1"/><line transform="translate(98,-160)" x2="0" y2="160" stroke="#2c3235" stroke-opacity="1" stroke-width="1" opacity="1"/><line transform="translate(136,-160)" x2="0" y2="160" stroke="#2c3235" stroke-opacity="1" stroke-width="1" opacity="1"/><line transform="translate(174,-160)" x2="0" y2="160" stroke="#2c3235" stroke-opacity="1" stroke-width="1" opacity="1"/><line transform="translate(212,-160)" x2="0" y2="160" stroke="#2c3235" stroke-opacity="1" stroke-width="1" opacity="1"/><line transform="translate(250,-160)" x2="0" y2="160" stroke="#2c3235" stroke-opacity="1" stroke-width="1" opacity="1"/><line transform="translate(288,-160)" x2="0" y2="160" stroke="#2c3235" stroke-opacity="1" stroke-width="1" opacity="1"/><line transform="translate(326,-160)" x2="0" y2="160" stroke="#2c3235" stroke-opacity="1" stroke-width="1" opacity="1"/><line transform="translate(364,-160)" x2="0" y2="160" stroke="#2c3235" stroke-opacity="1" stroke-width="1" opacity="1"/><line transform="translate(402,-160)" x2="0" y2="160" stroke="#2c3235" stroke-opacity="1" stroke-width="1" opacity="1"/><line transform="translate(440,-160)" x2="0" y2="160" stroke="#2c3235" stroke-opacity="1" stroke-width="1" opacity="1"/><line transform="translate(478,-160)" x2="0" y2="160" stroke="#2c3235" stroke-opacity="1" stroke-width="1" opacity="1"/><line transform="translate(516,-160)" x2="0" y2="160" stroke="#2c3235" stroke-opacity="1" stroke-width="1" opacity="1"/><line transform="translate(554,-160)" x2="0" y2="160" stroke="#2c3235" stroke-opacity="1" stroke-width="1" opacity="1"/><line transform="translate(592,-160)" x2="0" y2="160" stroke="#2c3235" stroke-opacity="1" stroke-width="1" opacity="1"/><line transform="translate(630,-160)" x2="0" y2="160" stroke="#2c3235" stroke-opacity="1" stroke-width="1" opacity="1"/><line transform="translate(668,-160)" x2="0" y2="160" stroke="#2c3235" stroke-opacity="1" stroke-width="1" opacity="1"/><line transform="translate(706,-160)" x2="0" y2="160" stroke="#2c3235" stroke-opacity="1" stroke-width="1" opacity="1"/><line transform="translate(744,-160)" x2="0" y2="160" stroke="#2c3235" stroke-opacity="1" stroke-width="1" opacity="1"/></g></g><path class="foreground" aria-hidden="true" d="" pointer-events="none" display="none"/></g></g><g class="mark-group role-axis" aria-hidden="true"><g transform="translate(0.5,0.5)"><path class="background" aria-hidden="true" d="M0,0h0v0h0Z" pointer-events="none"/><g><g class="mark-rule role-axis-grid" pointer-events="none"><line transform="translate(0,160)" x2="760" y2="0" stroke="#2c3235" stroke-opacity="1" stroke-width="1" opacity="1"/><line transform="translate(0,114)" x2="760" y2="0" stroke="#2c3235" stroke-opacity="1" stroke-width="1" opacity="1"/><line transform="translate(0,69)" x2="760" y2="0" stroke="#2c3235" stroke-opacity="1" stroke-width="1" opacity="1"/><line transform="translate(0,23)" x2="760" y2="0" stroke="#2c3235" stroke-opacity="1" stroke-width="1" opacity="1"/></g></g><path class="foreground" aria-hidden="true" d="" pointer-events="none" display="none"/></g></g><g class="mark-group role-axis" role="graphics-symbol" aria-roledescription="axis" aria-label="X-axis titled 'Time (UTC)' for a time scale with values from 20:00 to 20:20"><g transform="translate(0.5,160.5)"><path class="background" aria-hidden="true" d="M0,0h0v0h0Z" pointer-events="none"/><g><g class="mark-rule role-axis-tick" pointer-events="none"><line transform="translate(22,0)" x2="0" y2="5" stroke="#9fa7b3" stroke-width="1" opacity="1"/><line transform="translate(60,0)" x2="0" y2="5" stroke="#9fa7b3" stroke-width="1" opacity="1"/><line transform="translate(98,0)" x2="0" y2="5" stroke="#9fa7b3" stroke-width="1" opacity="1"/><line transform="translate(136,0)" x2="0" y2="5" stroke="#9fa7b3" stroke-width="1" opacity="1"/><line transform="translate(174,0)" x2="0" y2="5" stroke="#9fa7b3" stroke-width="1" opacity="1"/><line transform="translate(212,0)" x2="0" y2="5" stroke="#9fa7b3" stroke-width="1" opacity="1"/><line transform="translate(250,0)" x2="0" y2="5" stroke="#9fa7b3" stroke-width="1" opacity="1"/><line transform="translate(288,0)" x2="0" y2="5" stroke="#9fa7b3" stroke-width="1" opacity="1"/><line transform="translate(326,0)" x2="0" y2="5" stroke="#9fa7b3" stroke-width="1" opacity="1"/><line transform="translate(364,0)" x2="0" y2="5" stroke="#9fa7b3" stroke-width="1" opacity="1"/><line transform="translate(402,0)" x2="0" y2="5" stroke="#9fa7b3" stroke-width="1" opacity="1"/><line transform="translate(440,0)" x2="0" y2="5" stroke="#9fa7b3" stroke-width="1" opacity="1"/><line transform="translate(478,0)" x2="0" y2="5" stroke="#9fa7b3" stroke-width="1" opacity="1"/><line transform="translate(516,0)" x2="0" y2="5" stroke="#9fa7b3" stroke-width="1" opacity="1"/><line transform="translate(554,0)" x2="0" y2="5" stroke="#9fa7b3" stroke-width="1" opacity="1"/><line transform="translate(592,0)" x2="0" y2="5" stroke="#9fa7b3" stroke-width="1" opacity="1"/><line transform="translate(630,0)" x2="0" y2="5" stroke="#9fa7b3" stroke-width="1" opacity="1"/><line transform="translate(668,0)" x2="0" y2="5" stroke="#9fa7b3" stroke-width="1" opacity="1"/><line transform="translate(706,0)" x2="0" y2="5" stroke="#9fa7b3" stroke-width="1" opacity="1"/><line transform="translate(744,0)" x2="0" y2="5" stroke="#9fa7b3" stroke-width="1" opacity="1"/></g><g class="mark-text role-axis-label" pointer-events="none"><text text-anchor="middle" transform="translate(22.185847263503746,15)" font-family="sans-serif" font-size="10px" fill="#9fa7b3" opacity="1">20:01</text><text text-anchor="middle" transform="translate(60.18290249172355,15)" font-family="sans-serif" font-size="10px" fill="#9fa7b3" opacity="0">20:02</text><text text-anchor="middle" transform="translate(98.17995771994337,15)" font-family="sans-serif" font-size="10px" fill="#9fa7b3" opacity="1">20:03</text><text text-anchor="middle" transform="translate(136.17701294816317,15)" font-family="sans-serif" font-size="10px" fill="#9fa7b3" opacity="0">20:04</text><text text-anchor="middle" transform="translate(174.174068176383,15)" font-family="sans-serif" font-size="10px" fill="#9fa7b3" opacity="1">20:05</text><text text-anchor="middle" transform="translate(212.1711234046028,15)" font-family="sans-serif" font-size="10px" fill="#9fa7b3" opacity="0">20:06</text><text text-anchor="middle" transform="translate(250.16817863282262,15)" font-family="sans-serif" font-size="10px" fill="#9fa7b3" opacity="1">20:07</text><text text-anchor="middle" transform="translate(288.16523386104245,15)" font-family="sans-serif" font-size="10px" fill="#9fa7b3" opacity="0">20:08</text><text text-anchor="middle" transform="translate(326.16228908926223,15)" font-family="sans-serif" font-size="10px" fill="#9fa7b3" opacity="1">20:09</text><text text-anchor="middle" transform="translate(364.15934431748207,15)" font-family="sans-serif" font-size="10px" fill="#9fa7b3" opacity="0">20:10</text><text text-anchor="middle" transform="translate(402.1563995457019,15)" font-family="sans-serif" font-size="10px" fill="#9fa7b3" opacity="1">20:11</text><text text-anchor="middle" transform="translate(440.1534547739217,15)" font-family="sans-serif" font-size="10px" fill="#9fa7b3" opacity="0">20:12</text><text text-anchor="middle" transform="translate(478.15051000214146,15)" font-family="sans-serif" font-size="10px" fill="#9fa7b3" opacity="1">20:13</text><text text-anchor="middle" transform="translate(516.1475652303614,15)" font-family="sans-serif" font-size="10px" fill="#9fa7b3" opacity="0">20:14</text><text text-anchor="middle" transform="translate(554.1446204585811,15)" font-family="sans-serif" font-size="10px" fill="#9fa7b3" opacity="1">20:15</text><text text-anchor="middle" transform="translate(592.1416756868009,15)" font-family="sans-serif" font-size="10px" fill="#9fa7b3" opacity="0">20:16</text><text text-anchor="middle" transform="translate(630.1387309150208,15)" font-family="sans-serif" font-size="10px" fill="#9fa7b3" opacity="1">20:17</text><text text-anchor="middle" transform="translate(668.1357861432406,15)" font-family="sans-serif" font-size="10px" fill="#9fa7b3" opacity="0">20:18</text><text text-anchor="middle" transform="translate(706.1328413714604,15)" font-family="sans-serif" font-size="10px" fill="#9fa7b3" opacity="1">20:19</text><text text-anchor="middle" transform="translate(744.1298965996803,15)" font-family="sans-serif" font-size="10px" fill="#9fa7b3" opacity="0">20:20</text></g><g class="mark-rule role-axis-domain" pointer-events="none"><line transform="translate(0,0)" x2="760" y2="0" stroke="#9fa7b3" stroke-width="1" opacity="1"/></g><g class="mark-text role-axis-title" pointer-events="none"><text text-anchor="middle" transform="translate(380,29)" font-family="sans-serif" font-size="10px" font-weight="bold" fill="#9fa7b3" opacity="1">Time (UTC)</text></g></g><path class="foreground" aria-hidden="true" d="" pointer-events="none" display="none"/></g></g><g class="mark-group role-axis" role="graphics-symbol" aria-roledescription="axis" aria-label="Y-axis titled 'tx/s' for a linear scale with values from 0 to 35"><g transform="translate(0.5,0.5)"><path class="background" aria-hidden="true" d="M0,0h0v0h0Z" pointer-events="none"/><g><g class="mark-rule role-axis-tick" pointer-events="none"><line transform="translate(0,160)" x2="-5" y2="0" stroke="#9fa7b3" stroke-width="1" opacity="1"/><line transform="translate(0,114)" x2="-5" y2="0" stroke="#9fa7b3" stroke-width="1" opacity="1"/><line transform="translate(0,69)" x2="-5" y2="0" stroke="#9fa7b3" stroke-width="1" opacity="1"/><line transform="translate(0,23)" x2="-5" y2="0" stroke="#9fa7b3" stroke-width="1" opacity="1"/></g><g class="mark-text role-axis-label" pointer-events="none"><text text-anchor="end" transform="translate(-7,163)" font-family="sans-serif" font-size="10px" fill="#9fa7b3" opacity="1">0</text><text text-anchor="end" transform="translate(-7,117.28571428571429)" font-family="sans-serif" font-size="10px" fill="#9fa7b3" opacity="1">10</text><text text-anchor="end" transform="translate(-7,71.57142857142858)" font-family="sans-serif" font-size="10px" fill="#9fa7b3" opacity="1">20</text><text text-anchor="end" transform="translate(-7,25.857142857142865)" font-family="sans-serif" font-size="10px" fill="#9fa7b3" opacity="1">30</text></g><g class="mark-rule role-axis-domain" pointer-events="none"><line transform="translate(0,160)" x2="0" y2="-160" stroke="#9fa7b3" stroke-width="1" opacity="1"/></g><g class="mark-text role-axis-title" pointer-events="none"><text text-anchor="middle" transform="translate(-27,80) rotate(-90) translate(0,-2)" font-family="sans-serif" font-size="10px" font-weight="bold" fill="#9fa7b3" opacity="1">tx/s</text></g></g><path class="foreground" aria-hidden="true" d="" pointer-events="none" display="none"/></g></g><g class="mark-line role-mark layer_0_marks" role="graphics-object" aria-roledescription="line mark container"><path aria-label="ts: 20:00; value: 0" role="graphics-symbol" aria-roledescription="line mark" d="M9.499,160C12.666,80.762,15.832,1.524,18.999,1.524C22.165,1.524,25.331,160,28.498,160C31.664,160,34.831,160,37.997,160C41.163,160,44.33,35.352,47.496,35.352C50.663,35.352,53.829,160,56.996,160C60.162,160,63.328,160,66.495,160C69.661,160,72.828,154.971,75.994,150.552C79.161,146.133,82.327,133.486,85.493,133.486C88.66,133.486,91.826,150.248,94.993,150.248C98.159,150.248,101.325,125.257,104.492,125.257C107.658,125.257,110.825,160,113.991,160C117.158,160,120.324,148.013,123.49,140.8C126.657,133.587,129.823,116.724,132.99,116.724C136.156,116.724,139.323,160,142.489,160C145.655,160,148.822,142.171,151.988,131.962C155.155,121.752,158.321,98.743,161.487,98.743C164.654,98.743,167.82,160,170.987,160C174.153,160,177.32,114.59,180.486,114.59C183.652,114.59,186.819,160,189.985,160C193.152,160,196.318,160,199.485,160C202.651,160,205.817,160,208.984,160C212.15,160,215.317,126.476,218.483,126.476C221.649,126.476,224.816,152.381,227.982,155.429C231.149,158.476,234.315,160,237.482,160C240.648,160,243.814,132.876,246.981,132.876C250.147,132.876,253.314,160,256.48,160C259.647,160,262.813,67.962,265.979,67.962C269.146,67.962,272.312,160,275.479,160C278.645,160,281.811,128.61,284.978,128.61C288.144,128.61,291.311,160,294.477,160C297.644,160,300.81,159.39,303.976,159.39C307.143,159.39,310.309,160,313.476,160C316.642,160,319.809,121.6,322.975,121.6C326.141,121.6,329.308,160,332.474,160C335.641,160,338.807,157.46,341.973,152.381C345.14,147.302,348.306,106.667,351.473,106.667C354.639,106.667,357.806,140.698,360.972,148.419C364.138,156.14,367.305,160,370.471,160C373.638,160,376.804,160,379.971,160C383.137,160,386.303,121.295,389.47,121.295C392.636,121.295,395.803,160,398.969,160C402.136,160,405.302,160,408.468,160C411.635,160,414.801,133.181,417.968,133.181C421.134,133.181,424.3,160,427.467,160C430.633,160,433.8,121.295,436.966,121.295C440.133,121.295,443.299,160,446.465,160C449.632,160,452.798,160,455.965,160C459.131,160,462.298,134.146,465.464,125.257C468.63,116.368,471.797,106.667,474.963,106.667C478.13,106.667,481.296,160,484.462,160C487.629,160,490.795,160,493.962,160C497.128,160,500.295,123.124,503.461,123.124C506.627,123.124,509.794,160,512.96,160C516.127,160,519.293,160,522.46,160C525.626,160,528.792,96.305,531.959,96.305C535.125,96.305,538.292,160,541.458,160C544.624,160,547.791,160,550.957,160C554.124,160,557.29,160,560.457,160C563.623,160,566.789,160,569.956,160C573.122,160,576.289,160,579.455,160C582.622,160,585.788,160,588.954,160C592.121,160,595.287,160,598.454,160C601.62,160,604.786,160,607.953,160C611.119,160,614.286,160,617.452,160C620.619,160,623.785,160,626.951,160C630.118,160,633.284,160,636.451,160C639.617,160,642.784,160,645.95,160C649.116,160,652.283,160,655.449,160C658.616,160,661.782,160,664.948,160C668.115,160,671.281,160,674.448,160C677.614,160,680.781,160,683.947,160C687.113,160,690.28,160,693.446,160C696.613,160,699.779,160,702.946,160C706.112,160,709.278,160,712.445,160C715.611,160,718.778,160,721.944,160C725.11,160,728.277,160,731.443,160C734.61,160,737.776,160,740.943,160C744.109,160,747.275,160,750.442,160C753.608,160,756.775,160,759.941,160" stroke="#7EB26D" stroke-width="1.5"/></g><g class="mark-group role-title"><g transform="translate(-37,-21)"><path class="background" aria-hidden="true" d="M0,0h0v0h0Z" pointer-events="none"/><g><g class="mark-text role-title-text" role="graphics-symbol" aria-roledescription="title" aria-label="Title text 'Mempool Growth Rate (d/dt mempool tx count)'" pointer-events="none"><text text-anchor="start" transform="translate(0,10)" font-family="sans-serif" font-size="13px" font-weight="normal" fill="#d0d0d0" opacity="1">Mempool Growth Rate (d/dt mempool tx count)</text></g></g><path class="foreground" aria-hidden="true" d="" pointer-events="none" display="none"/></g></g></g><path class="foreground" aria-hidden="true" d="" display="none"/></g></g></g></svg>