<svg xmlns="http://www.w3.org/2000/svg" xmlns:xlink="http://www.w3.org/1999/xlink" version="1.1" class="marks" width="825" height="222" viewBox="0 0 825 222"><rect width="825" height="222" fill="#111217"/><g fill="none" stroke-miterlimit="10" transform="translate(58,26)"><g class="mark-group role-frame root" role="graphics-object" aria-roledescription="group mark container"><g transform="translate(0,0)"><path class="background" aria-hidden="true" d="M0.5,0.5h760v160h-760Z" fill="#181b1f"/><g><g class="mark-group role-axis" aria-hidden="true"><g transform="translate(0.5,160.5)"><path class="background" aria-hidden="true" d="M0,0h0v0h0Z" pointer-events="none"/><g><g class="mark-rule role-axis-grid" pointer-events="none"><line transform="translate(2,-160)" x2="0" y2="160" stroke="#2c3235" stroke-opacity="1" stroke-width="1" opacity="1"/><line transform="translate(34,-160)" x2="0" y2="160" stroke="#2c3235" stroke-opacity="1" stroke-width="1" opacity="1"/><line transform="translate(66,-160)" x2="0" y2="160" stroke="#2c3235" stroke-opacity="1" stroke-width="1" opacity="1"/><line transform="translate(97,-160)" x2="0" y2="160" stroke="#2c3235" stroke-opacity="1" stroke-width="1" opacity="1"/><line transform="translate(129,-160)" x2="0" y2="160" stroke="#2c3235" stroke-opacity="1" stroke-width="1" opacity="1"/><line transform="translate(161,-160)" x2="0" y2="160" stroke="#2c3235" stroke-opacity="1" stroke-width="1" opacity="1"/><line transform="translate(192,-160)" x2="0" y2="160" stroke="#2c3235" stroke-opacity="1" stroke-width="1" opacity="1"/><line transform="translate(224,-160)" x2="0" y2="160" stroke="#2c3235" stroke-opacity="1" stroke-width="1" opacity="1"/><line transform="translate(256,-160)" x2="0" y2="160" stroke="#2c3235" stroke-opacity="1" stroke-width="1" opacity="1"/><line transform="translate(287,-160)" x2="0" y2="160" stroke="#2c3235" stroke-opacity="1" stroke-width="1" opacity="1"/><line transform="translate(319,-160)" x2="0" y2="160" stroke="#2c3235" stroke-opacity="1" stroke-width="1" opacity="1"/><line transform="translate(351,-160)" x2="0" y2="160" stroke="#2c3235" stroke-opacity="1" stroke-width="1" opacity="1"/><line transform="translate(382,-160)" x2="0" y2="160" stroke="#2c3235" stroke-opacity="1" stroke-width="1" opacity="1"/><line transform="translate(414,-160)" x2="0" y2="160" stroke="#2c3235" stroke-opacity="1" stroke-width="1" opacity="1"/><line transform="translate(446,-160)" x2="0" y2="160" stroke="#2c3235" stroke-opacity="1" stroke-width="1" opacity="1"/><line transform="translate(477,-160)" x2="0" y2="160" stroke="#2c3235" stroke-opacity="1" stroke-width="1" opacity="1"/><line transform="translate(509,-160)" x2="0" y2="160" stroke="#2c3235" stroke-opacity="1" stroke-width="1" opacity="1"/><line transform="translate(541,-160)" x2="0" y2="160" stroke="#2c3235" stroke-opacity="1" stroke-width="1" opacity="1"/><line transform="translate(572,-160)" x2="0" y2="160" stroke="#2c3235" stroke-opacity="1" stroke-width="1" opacity="1"/><line transform="translate(604,-160)" x2="0" y2="160" stroke="#2c3235" stroke-opacity="1" stroke-width="1" opacity="1"/><line transform="translate(636,-160)" x2="0" y2="160" stroke="#2c3235" stroke-opacity="1" stroke-width="1" opacity="1"/><line transform="translate(667,-160)" x2="0" y2="160" stroke="#2c3235" stroke-opacity="1" stroke-width="1" opacity="1"/><line transform="translate(699,-160)" x2="0" y2="160" stroke="#2c3235" stroke-opacity="1" stroke-width="1" opacity="1"/><line transform="translate(731,-160)" x2="0" y2="160" stroke="#2c3235" stroke-opacity="1" stroke-width="1" opacity="1"/></g></g><path class="foreground" aria-hidden="true" d="" pointer-events="none" display="none"/></g></g><g class="mark-group role-axis" aria-hidden="true"><g transform="translate(0.5,0.5)"><path class="background" aria-hidden="true" d="M0,0h0v0h0Z" pointer-events="none"/><g><g class="mark-rule role-axis-grid" pointer-events="none"><line transform="translate(0,123)" x2="760" y2="0" stroke="#2c3235" stroke-opacity="1" stroke-width="1" opacity="1"/><line transform="translate(0,74)" x2="760" y2="0" stroke="#2c3235" stroke-opacity="1" stroke-width="1" opacity="1"/><line transform="translate(0,25)" x2="760" y2="0" stroke="#2c3235" stroke-opacity="1" stroke-width="1" opacity="1"/></g></g><path class="foreground" aria-hidden="true" d="" pointer-events="none" display="none"/></g></g><g class="mark-group role-axis" role="graphics-symbol" aria-roledescription="axis" aria-label="X-axis titled 'Time (UTC)' for a time scale with values from 19:29 to 19:41"><g transform="translate(0.5,160.5)"><path class="background" aria-hidden="true" d="M0,0h0v0h0Z" pointer-events="none"/><g><g class="mark-rule role-axis-tick" pointer-events="none"><line transform="translate(2,0)" x2="0" y2="5" stroke="#9fa7b3" stroke-width="1" opacity="1"/><line transform="translate(34,0)" x2="0" y2="5" stroke="#9fa7b3" stroke-width="1" opacity="1"/><line transform="translate(66,0)" x2="0" y2="5" stroke="#9fa7b3" stroke-width="1" opacity="1"/><line transform="translate(97,0)" x2="0" y2="5" stroke="#9fa7b3" stroke-width="1" opacity="1"/><line transform="translate(129,0)" x2="0" y2="5" stroke="#9fa7b3" stroke-width="1" opacity="1"/><line transform="translate(161,0)" x2="0" y2="5" stroke="#9fa7b3" stroke-width="1" opacity="1"/><line transform="translate(192,0)" x2="0" y2="5" stroke="#9fa7b3" stroke-width="1" opacity="1"/><line transform="translate(224,0)" x2="0" y2="5" stroke="#9fa7b3" stroke-width="1" opacity="1"/><line transform="translate(256,0)" x2="0" y2="5" stroke="#9fa7b3" stroke-width="1" opacity="1"/><line transform="translate(287,0)" x2="0" y2="5" stroke="#9fa7b3" stroke-width="1" opacity="1"/><line transform="translate(319,0)" x2="0" y2="5" stroke="#9fa7b3" stroke-width="1" opacity="1"/><line transform="translate(351,0)" x2="0" y2="5" stroke="#9fa7b3" stroke-width="1" opacity="1"/><line transform="translate(382,0)" x2="0" y2="5" stroke="#9fa7b3" stroke-width="1" opacity="1"/><line transform="translate(414,0)" x2="0" y2="5" stroke="#9fa7b3" stroke-width="1" opacity="1"/><line transform="translate(446,0)" x2="0" y2="5" stroke="#9fa7b3" stroke-width="1" opacity="1"/><line transform="translate(477,0)" x2="0" y2="5" stroke="#9fa7b3" stroke-width="1" opacity="1"/><line transform="translate(509,0)" x2="0" y2="5" stroke="#9fa7b3" stroke-width="1" opacity="1"/><line transform="translate(541,0)" x2="0" y2="5" stroke="#9fa7b3" stroke-width="1" opacity="1"/><line transform="translate(572,0)" x2="0" y2="5" stroke="#9fa7b3" stroke-width="1" opacity="1"/><line transform="translate(604,0)" x2="0" y2="5" stroke="#9fa7b3" stroke-width="1" opacity="1"/><line transform="translate(636,0)" x2="0" y2="5" stroke="#9fa7b3" stroke-width="1" opacity="1"/><line transform="translate(667,0)" x2="0" y2="5" stroke="#9fa7b3" stroke-width="1" opacity="1"/><line transform="translate(699,0)" x2="0" y2="5" stroke="#9fa7b3" stroke-width="1" opacity="1"/><line transform="translate(731,0)" x2="0" y2="5" stroke="#9fa7b3" stroke-width="1" opacity="1"/></g><g class="mark-text role-axis-label" pointer-events="none"><text text-anchor="middle" transform="translate(2.310611111111111,15)" font-family="sans-serif" font-size="10px" fill="#9fa7b3" opacity="1">19:29</text><text text-anchor="middle" transform="translate(33.97727777777778,15)" font-family="sans-serif" font-size="10px" fill="#9fa7b3" opacity="0">19:30</text><text text-anchor="middle" transform="translate(65.64394444444444,15)" font-family="sans-serif" font-size="10px" fill="#9fa7b3" opacity="1">19:30</text><text text-anchor="middle" transform="translate(97.3106111111111,15)" font-family="sans-serif" font-size="10px" fill="#9fa7b3" opacity="0">19:31</text><text text-anchor="middle" transform="translate(128.97727777777777,15)" font-family="sans-serif" font-size="10px" fill="#9fa7b3" opacity="1">19:31</text><text text-anchor="middle" transform="translate(160.64394444444443,15)" font-family="sans-serif" font-size="10px" fill="#9fa7b3" opacity="0">19:32</text><text text-anchor="middle" transform="translate(192.31061111111111,15)" font-family="sans-serif" font-size="10px" fill="#9fa7b3" opacity="1">19:32</text><text text-anchor="middle" transform="translate(223.97727777777777,15)" font-family="sans-serif" font-size="10px" fill="#9fa7b3" opacity="0">19:33</text><text text-anchor="middle" transform="translate(255.64394444444446,15)" font-family="sans-serif" font-size="10px" fill="#9fa7b3" opacity="1">19:33</text><text text-anchor="middle" transform="translate(287.3106111111111,15)" font-family="sans-serif" font-size="10px" fill="#9fa7b3" opacity="0">19:34</text><text text-anchor="middle" transform="translate(318.9772777777778,15)" font-family="sans-serif" font-size="10px" fill="#9fa7b3" opacity="1">19:34</text><text text-anchor="middle" transform="translate(350.64394444444446,15)" font-family="sans-serif" font-size="10px" fill="#9fa7b3" opacity="0">19:35</text><text text-anchor="middle" transform="translate(382.31061111111114,15)" font-family="sans-serif" font-size="10px" fill="#9fa7b3" opacity="1">19:35</text><text text-anchor="middle" transform="translate(413.9772777777778,15)" font-family="sans-serif" font-size="10px" fill="#9fa7b3" opacity="0">19:36</text><text text-anchor="middle" transform="translate(445.6439444444444,15)" font-family="sans-serif" font-size="10px" fill="#9fa7b3" opacity="1">19:36</text><text text-anchor="middle" transform="translate(477.31061111111114,15)" font-family="sans-serif" font-size="10px" fill="#9fa7b3" opacity="0">19:37</text><text text-anchor="middle" transform="translate(508.9772777777778,15)" font-family="sans-serif" font-size="10px" fill="#9fa7b3" opacity="1">19:37</text><text text-anchor="middle" transform="translate(540.6439444444444,15)" font-family="sans-serif" font-size="10px" fill="#9fa7b3" opacity="0">19:38</text><text text-anchor="middle" transform="translate(572.3106111111111,15)" font-family="sans-serif" font-size="10px" fill="#9fa7b3" opacity="1">19:38</text><text text-anchor="middle" transform="translate(603.9772777777778,15)" font-family="sans-serif" font-size="10px" fill="#9fa7b3" opacity="0">19:39</text><text text-anchor="middle" transform="translate(635.6439444444444,15)" font-family="sans-serif" font-size="10px" fill="#9fa7b3" opacity="1">19:39</text><text text-anchor="middle" transform="translate(667.3106111111111,15)" font-family="sans-serif" font-size="10px" fill="#9fa7b3" opacity="0">19:40</text><text text-anchor="middle" transform="translate(698.9772777777778,15)" font-family="sans-serif" font-size="10px" fill="#9fa7b3" opacity="1">19:40</text><text text-anchor="middle" transform="translate(730.6439444444444,15)" font-family="sans-serif" font-size="10px" fill="#9fa7b3" opacity="0">19:41</text></g><g class="mark-rule role-axis-domain" pointer-events="none"><line transform="translate(0,0)" x2="760" y2="0" stroke="#9fa7b3" stroke-width="1" opacity="1"/></g><g class="mark-text role-axis-title" pointer-events="none"><text text-anchor="middle" transform="translate(380,29)" font-family="sans-serif" font-size="10px" font-weight="bold" fill="#9fa7b3" opacity="1">Time (UTC)</text></g></g><path class="foreground" aria-hidden="true" d="" pointer-events="none" display="none"/></g></g><g class="mark-group role-axis" role="graphics-symbol" aria-roledescription="axis" aria-label="Y-axis titled 'tx' for a linear scale with values from 185k to 250k"><g transform="translate(0.5,0.5)"><path class="background" aria-hidden="true" d="M0,0h0v0h0Z" pointer-events="none"/><g><g class="mark-rule role-axis-tick" pointer-events="none"><line transform="translate(0,123)" x2="-5" y2="0" stroke="#9fa7b3" stroke-width="1" opacity="1"/><line transform="translate(0,74)" x2="-5" y2="0" stroke="#9fa7b3" stroke-width="1" opacity="1"/><line transform="translate(0,25)" x2="-5" y2="0" stroke="#9fa7b3" stroke-width="1" opacity="1"/></g><g class="mark-text role-axis-label" pointer-events="none"><text text-anchor="end" transform="translate(-7,126.07692307692307)" font-family="sans-serif" font-size="10px" fill="#9fa7b3" opacity="1">200k</text><text text-anchor="end" transform="translate(-7,76.84615384615385)" font-family="sans-serif" font-size="10px" fill="#9fa7b3" opacity="1">220k</text><text text-anchor="end" transform="translate(-7,27.615384615384617)" font-family="sans-serif" font-size="10px" fill="#9fa7b3" opacity="1">240k</text></g><g class="mark-rule role-axis-domain" pointer-events="none"><line transform="translate(0,160)" x2="0" y2="-160" stroke="#9fa7b3" stroke-width="1" opacity="1"/></g><g class="mark-text role-axis-title" pointer-events="none"><text text-anchor="middle" transform="translate(-43,80) rotate(-90) translate(0,-2)" font-family="sans-serif" font-size="10px" font-weight="bold" fill="#9fa7b3" opacity="1">tx</text></g></g><path class="foreground" aria-hidden="true" d="" pointer-events="none" display="none"/></g></g><g class="mark-line role-mark layer_0_marks" role="graphics-object" aria-roledescription="line mark container"><path aria-label="ts: 19:29; value: 189.08k" role="graphics-symbol" aria-roledescription="line mark" d="M0,149.957C5.278,149.957,10.556,149.957,15.833,149.957C21.111,149.957,26.389,145.625,31.667,145.625C36.944,145.625,42.222,145.625,47.5,145.625C52.778,145.625,58.056,137.452,63.333,137.452C68.611,137.452,73.889,137.452,79.167,137.452C84.444,137.452,89.722,137.452,95,137.452C100.278,137.452,105.556,128.886,110.833,128.886C116.111,128.886,121.389,128.886,126.667,128.886C131.944,128.886,137.222,120.256,142.5,120.256C147.778,120.256,153.056,120.256,158.333,120.256C163.611,120.256,168.889,111.655,174.167,111.655C179.444,111.655,184.722,111.655,190,111.655C195.278,111.655,200.556,111.655,205.833,111.655C211.111,111.655,216.389,102.991,221.667,102.991C226.944,102.991,232.222,102.991,237.5,102.991C242.778,102.991,248.056,94.425,253.333,94.425C258.611,94.425,263.889,94.425,269.167,94.425C274.444,94.425,279.722,85.858,285,85.858C290.278,85.858,295.556,85.858,300.833,85.858C306.111,85.858,311.389,85.858,316.667,85.858C321.944,85.858,327.222,77.211,332.5,77.211C337.778,77.211,343.056,77.211,348.333,77.211C353.611,77.211,358.889,68.79,364.167,68.79C369.444,68.79,374.722,68.79,380,68.79C385.278,68.79,390.556,60.16,395.833,60.16C401.111,60.16,406.389,60.16,411.667,60.16C416.944,60.16,422.222,60.16,427.5,60.16C432.778,60.16,438.056,51.594,443.333,51.594C448.611,51.594,453.889,51.594,459.167,51.594C464.444,51.594,469.722,42.929,475,42.929C480.278,42.929,485.556,42.929,490.833,42.929C496.111,42.929,501.389,34.363,506.667,34.363C511.944,34.363,517.222,34.363,522.5,34.363C527.778,34.363,533.056,34.363,538.333,34.363C543.611,34.363,548.889,25.797,554.167,25.797C559.444,25.797,564.722,25.797,570,25.797C575.278,25.797,580.556,17.231,585.833,17.231C591.111,17.231,596.389,17.231,601.667,17.231C606.944,17.231,612.222,8.665,617.5,8.665C622.778,8.665,628.056,8.665,633.333,8.665C638.611,8.665,643.889,8.665,649.167,8.665C654.444,8.665,659.722,3.249,665,3.249C670.278,3.249,675.556,3.249,680.833,3.249C686.111,3.249,691.389,3.249,696.667,3.249C701.944,3.249,707.222,3.249,712.5,3.249C717.778,3.249,723.056,3.249,728.333,3.249C733.611,3.249,738.889,3.249,744.167,3.249C749.444,3.249,754.722,3.249,760,3.249" stroke="#7EB26D" stroke-width="1.5"/></g><g class="mark-group role-title"><g transform="translate(-53,-21)"><path class="background" aria-hidden="true" d="M0,0h0v0h0Z" pointer-events="none"/><g><g class="mark-text role-title-text" role="graphics-symbol" aria-roledescription="title" aria-label="Title text 'Committed Transactions'" pointer-events="none"><text text-anchor="start" transform="translate(0,10)" font-family="sans-serif" font-size="13px" font-weight="normal" fill="#d0d0d0" opacity="1">Committed Transactions</text></g></g><path class="foreground" aria-hidden="true" d="" pointer-events="none" display="none"/></g></g></g><path class="foreground" aria-hidden="true" d="" display="none"/></g></g></g></svg>