<svg xmlns="http://www.w3.org/2000/svg" xmlns:xlink="http://www.w3.org/1999/xlink" version="1.1" class="marks" width="832" height="223" viewBox="0 0 832 223"><rect width="832" height="223" fill="#111217"/><g fill="none" stroke-miterlimit="10" transform="translate(58,27)"><g class="mark-group role-frame root" role="graphics-object" aria-roledescription="group mark container"><g transform="translate(0,0)"><path class="background" aria-hidden="true" d="M0.5,0.5h760v160h-760Z" fill="#181b1f"/><g><g class="mark-group role-axis" aria-hidden="true"><g transform="translate(0.5,160.5)"><path class="background" aria-hidden="true" d="M0,0h0v0h0Z" pointer-events="none"/><g><g class="mark-rule role-axis-grid" pointer-events="none"><line transform="translate(31,-160)" x2="0" y2="160" stroke="#2c3235" stroke-opacity="1" stroke-width="1" opacity="1"/><line transform="translate(73,-160)" x2="0" y2="160" stroke="#2c3235" stroke-opacity="1" stroke-width="1" opacity="1"/><line transform="translate(115,-160)" x2="0" y2="160" stroke="#2c3235" stroke-opacity="1" stroke-width="1" opacity="1"/><line transform="translate(158,-160)" x2="0" y2="160" stroke="#2c3235" stroke-opacity="1" stroke-width="1" opacity="1"/><line transform="translate(200,-160)" x2="0" y2="160" stroke="#2c3235" stroke-opacity="1" stroke-width="1" opacity="1"/><line transform="translate(242,-160)" x2="0" y2="160" stroke="#2c3235" stroke-opacity="1" stroke-width="1" opacity="1"/><line transform="translate(284,-160)" x2="0" y2="160" stroke="#2c3235" stroke-opacity="1" stroke-width="1" opacity="1"/><line transform="translate(326,-160)" x2="0" y2="160" stroke="#2c3235" stroke-opacity="1" stroke-width="1" opacity="1"/><line transform="translate(369,-160)" x2="0" y2="160" stroke="#2c3235" stroke-opacity="1" stroke-width="1" opacity="1"/><line transform="translate(411,-160)" x2="0" y2="160" stroke="#2c3235" stroke-opacity="1" stroke-width="1" opacity="1"/><line transform="translate(453,-160)" x2="0" y2="160" stroke="#2c3235" stroke-opacity="1" stroke-width="1" opacity="1"/><line transform="translate(495,-160)" x2="0" y2="160" stroke="#2c3235" stroke-opacity="1" stroke-width="1" opacity="1"/><line transform="translate(537,-160)" x2="0" y2="160" stroke="#2c3235" stroke-opacity="1" stroke-width="1" opacity="1"/><line transform="translate(580,-160)" x2="0" y2="160" stroke="#2c3235" stroke-opacity="1" stroke-width="1" opacity="1"/><line transform="translate(622,-160)" x2="0" y2="160" stroke="#2c3235" stroke-opacity="1" stroke-width="1" opacity="1"/><line transform="translate(664,-160)" x2="0" y2="160" stroke="#2c3235" stroke-opacity="1" stroke-width="1" opacity="1"/><line transform="translate(706,-160)" x2="0" y2="160" stroke="#2c3235" stroke-opacity="1" stroke-width="1" opacity="1"/><line transform="translate(748,-160)" x2="0" y2="160" stroke="#2c3235" stroke-opacity="1" stroke-width="1" opacity="1"/></g></g><path class="foreground" aria-hidden="true" d="" pointer-events="none" display="none"/></g></g><g class="mark-group role-axis" aria-hidden="true"><g transform="translate(0.5,0.5)"><path class="background" aria-hidden="true" d="M0,0h0v0h0Z" pointer-events="none"/><g><g class="mark-rule role-axis-grid" pointer-events="none"><line transform="translate(0,160)" x2="760" y2="0" stroke="#2c3235" stroke-opacity="1" stroke-width="1" opacity="1"/><line transform="translate(0,114)" x2="760" y2="0" stroke="#2c3235" stroke-opacity="1" stroke-width="1" opacity="1"/><line transform="translate(0,69)" x2="760" y2="0" stroke="#2c3235" stroke-opacity="1" stroke-width="1" opacity="1"/><line transform="translate(0,23)" x2="760" y2="0" stroke="#2c3235" stroke-opacity="1" stroke-width="1" opacity="1"/></g></g><path class="foreground" aria-hidden="true" d="" pointer-events="none" display="none"/></g></g><g class="mark-group role-axis" role="graphics-symbol" aria-roledescription="axis" aria-label="X-axis titled 'Time (UTC)' for a time scale with values from 18:07 to 18:25"><g transform="translate(0.5,160.5)"><path class="background" aria-hidden="true" d="M0,0h0v0h0Z" pointer-events="none"/><g><g class="mark-rule role-axis-tick" pointer-events="none"><line transform="translate(31,0)" x2="0" y2="5" stroke="#9fa7b3" stroke-width="1" opacity="1"/><line transform="translate(73,0)" x2="0" y2="5" stroke="#9fa7b3" stroke-width="1" opacity="1"/><line transform="translate(115,0)" x2="0" y2="5" stroke="#9fa7b3" stroke-width="1" opacity="1"/><line transform="translate(158,0)" x2="0" y2="5" stroke="#9fa7b3" stroke-width="1" opacity="1"/><line transform="translate(200,0)" x2="0" y2="5" stroke="#9fa7b3" stroke-width="1" opacity="1"/><line transform="translate(242,0)" x2="0" y2="5" stroke="#9fa7b3" stroke-width="1" opacity="1"/><line transform="translate(284,0)" x2="0" y2="5" stroke="#9fa7b3" stroke-width="1" opacity="1"/><line transform="translate(326,0)" x2="0" y2="5" stroke="#9fa7b3" stroke-width="1" opacity="1"/><line transform="translate(369,0)" x2="0" y2="5" stroke="#9fa7b3" stroke-width="1" opacity="1"/><line transform="translate(411,0)" x2="0" y2="5" stroke="#9fa7b3" stroke-width="1" opacity="1"/><line transform="translate(453,0)" x2="0" y2="5" stroke="#9fa7b3" stroke-width="1" opacity="1"/><line transform="translate(495,0)" x2="0" y2="5" stroke="#9fa7b3" stroke-width="1" opacity="1"/><line transform="translate(537,0)" x2="0" y2="5" stroke="#9fa7b3" stroke-width="1" opacity="1"/><line transform="translate(580,0)" x2="0" y2="5" stroke="#9fa7b3" stroke-width="1" opacity="1"/><line transform="translate(622,0)" x2="0" y2="5" stroke="#9fa7b3" stroke-width="1" opacity="1"/><line transform="translate(664,0)" x2="0" y2="5" stroke="#9fa7b3" stroke-width="1" opacity="1"/><line transform="translate(706,0)" x2="0" y2="5" stroke="#9fa7b3" stroke-width="1" opacity="1"/><line transform="translate(748,0)" x2="0" y2="5" stroke="#9fa7b3" stroke-width="1" opacity="1"/></g><g class="mark-text role-axis-label" pointer-events="none"><text text-anchor="middle" transform="translate(30.987692028603213,15)" font-family="sans-serif" font-size="10px" fill="#9fa7b3" opacity="1">18:08</text><text text-anchor="middle" transform="translate(73.1927977357331,15)" font-family="sans-serif" font-size="10px" fill="#9fa7b3" opacity="1">18:09</text><text text-anchor="middle" transform="translate(115.397903442863,15)" font-family="sans-serif" font-size="10px" fill="#9fa7b3" opacity="1">18:10</text><text text-anchor="middle" transform="translate(157.60300914999286,15)" font-family="sans-serif" font-size="10px" fill="#9fa7b3" opacity="1">18:11</text><text text-anchor="middle" transform="translate(199.80811485712277,15)" font-family="sans-serif" font-size="10px" fill="#9fa7b3" opacity="1">18:12</text><text text-anchor="middle" transform="translate(242.01322056425266,15)" font-family="sans-serif" font-size="10px" fill="#9fa7b3" opacity="1">18:13</text><text text-anchor="middle" transform="translate(284.2183262713825,15)" font-family="sans-serif" font-size="10px" fill="#9fa7b3" opacity="1">18:14</text><text text-anchor="middle" transform="translate(326.4234319785124,15)" font-family="sans-serif" font-size="10px" fill="#9fa7b3" opacity="1">18:15</text><text text-anchor="middle" transform="translate(368.6285376856423,15)" font-family="sans-serif" font-size="10px" fill="#9fa7b3" opacity="1">18:16</text><text text-anchor="middle" transform="translate(410.8336433927722,15)" font-family="sans-serif" font-size="10px" fill="#9fa7b3" opacity="1">18:17</text><text text-anchor="middle" transform="translate(453.0387490999021,15)" font-family="sans-serif" font-size="10px" fill="#9fa7b3" opacity="1">18:18</text><text text-anchor="middle" transform="translate(495.243854807032,15)" font-family="sans-serif" font-size="10px" fill="#9fa7b3" opacity="1">18:19</text><text text-anchor="middle" transform="translate(537.4489605141619,15)" font-family="sans-serif" font-size="10px" fill="#9fa7b3" opacity="1">18:20</text><text text-anchor="middle" transform="translate(579.6540662212917,15)" font-family="sans-serif" font-size="10px" fill="#9fa7b3" opacity="1">18:21</text><text text-anchor="middle" transform="translate(621.8591719284217,15)" font-family="sans-serif" font-size="10px" fill="#9fa7b3" opacity="1">18:22</text><text text-anchor="middle" transform="translate(664.0642776355515,15)" font-family="sans-serif" font-size="10px" fill="#9fa7b3" opacity="1">18:23</text><text text-anchor="middle" transform="translate(706.2693833426814,15)" font-family="sans-serif" font-size="10px" fill="#9fa7b3" opacity="1">18:24</text><text text-anchor="middle" transform="translate(748.4744890498113,15)" font-family="sans-serif" font-size="10px" fill="#9fa7b3" opacity="1">18:25</text></g><g class="mark-rule role-axis-domain" pointer-events="none"><line transform="translate(0,0)" x2="760" y2="0" stroke="#9fa7b3" stroke-width="1" opacity="1"/></g><g class="mark-text role-axis-title" pointer-events="none"><text text-anchor="middle" transform="translate(380,29)" font-family="sans-serif" font-size="10px" font-weight="bold" fill="#9fa7b3" opacity="1">Time (UTC)</text></g></g><path class="foreground" aria-hidden="true" d="" pointer-events="none" display="none"/></g></g><g class="mark-group role-axis" role="graphics-symbol" aria-roledescription="axis" aria-label="Y-axis titled 'tx' for a linear scale with values from 0k to 350k"><g transform="translate(0.5,0.5)"><path class="background" aria-hidden="true" d="M0,0h0v0h0Z" pointer-events="none"/><g><g class="mark-rule role-axis-tick" pointer-events="none"><line transform="translate(0,160)" x2="-5" y2="0" stroke="#9fa7b3" stroke-width="1" opacity="1"/><line transform="translate(0,114)" x2="-5" y2="0" stroke="#9fa7b3" stroke-width="1" opacity="1"/><line transform="translate(0,69)" x2="-5" y2="0" stroke="#9fa7b3" stroke-width="1" opacity="1"/><line transform="translate(0,23)" x2="-5" y2="0" stroke="#9fa7b3" stroke-width="1" opacity="1"/></g><g class="mark-text role-axis-label" pointer-events="none"><text text-anchor="end" transform="translate(-7,163)" font-family="sans-serif" font-size="10px" fill="#9fa7b3" opacity="1">0k</text><text text-anchor="end" transform="translate(-7,117.28571428571429)" font-family="sans-serif" font-size="10px" fill="#9fa7b3" opacity="1">100k</text><text text-anchor="end" transform="translate(-7,71.57142857142858)" font-family="sans-serif" font-size="10px" fill="#9fa7b3" opacity="1">200k</text><text text-anchor="end" transform="translate(-7,25.857142857142865)" font-family="sans-serif" font-size="10px" fill="#9fa7b3" opacity="1">300k</text></g><g class="mark-rule role-axis-domain" pointer-events="none"><line transform="translate(0,160)" x2="0" y2="-160" stroke="#9fa7b3" stroke-width="1" opacity="1"/></g><g class="mark-text role-axis-title" pointer-events="none"><text text-anchor="middle" transform="translate(-43,80) rotate(-90) translate(0,-2)" font-family="sans-serif" font-size="10px" font-weight="bold" fill="#9fa7b3" opacity="1">tx</text></g></g><path class="foreground" aria-hidden="true" d="" pointer-events="none" display="none"/></g></g><g class="mark-line role-mark layer_0_marks" role="graphics-object" aria-roledescription="line mark container"><path aria-label="ts: 18:07; value: 0" role="graphics-symbol" aria-roledescription="line mark" d="M0,160C3.517,159.968,7.034,159.935,10.551,159.806C14.068,159.677,17.585,159.209,21.103,158.91C24.62,158.611,28.137,158.311,31.654,158.012C35.171,157.713,38.688,157.415,42.205,157.117C45.722,156.819,49.239,156.523,52.756,156.224C56.273,155.926,59.791,155.625,63.308,155.324C66.825,155.024,70.342,154.721,73.859,154.421C77.376,154.122,80.893,153.826,84.41,153.526C87.927,153.227,91.444,152.927,94.961,152.625C98.479,152.324,101.996,152.02,105.513,151.718C109.03,151.416,112.547,151.11,116.064,150.815C119.581,150.52,123.098,150.185,126.615,149.948C130.132,149.71,133.65,149.391,137.167,149.391C140.684,149.391,144.201,149.391,147.718,149.391C151.235,149.391,154.752,149.391,158.269,149.391C161.786,149.391,165.303,149.391,168.82,149.391C172.338,149.391,175.855,149.391,179.372,149.391C182.889,149.391,186.406,149.391,189.923,149.391C189.961,149.391,189.998,149.391,190.036,149.391C193.553,149.391,197.07,149.172,200.588,148.828C204.105,148.485,207.622,147.911,211.139,147.328C214.656,146.745,218.173,145.911,221.69,145.329C225.207,144.747,228.724,144.427,232.241,143.836C235.758,143.245,239.276,142.374,242.793,141.781C246.31,141.188,249.827,140.859,253.344,140.275C256.861,139.691,260.378,138.943,263.895,138.277C267.412,137.611,270.929,136.861,274.446,136.278C277.964,135.696,281.481,135.364,284.998,134.78C288.515,134.197,292.032,133.363,295.549,132.778C299.066,132.193,302.583,131.857,306.1,131.271C309.617,130.685,313.134,129.778,316.652,129.262C320.169,128.745,323.686,128.172,327.203,128.172C330.72,128.172,334.237,128.172,337.754,128.172C341.271,128.172,344.788,128.172,348.305,128.172C351.822,128.172,355.34,128.172,358.857,128.172C362.374,128.172,365.891,128.172,369.408,128.172C372.925,128.172,376.442,128.172,379.959,128.172C379.989,128.172,380.018,128.172,380.048,128.172C383.565,128.172,387.082,128.068,390.599,127.86C394.116,127.651,397.633,125.572,401.15,124.307C404.667,123.042,408.185,121.379,411.702,120.271C415.219,119.163,418.736,118.761,422.253,117.658C425.77,116.555,429.287,114.996,432.804,113.654C436.321,112.312,439.838,110.732,443.355,109.606C446.873,108.481,450.39,108.001,453.907,106.901C457.424,105.8,460.941,104.325,464.458,103.006C467.975,101.686,471.492,100.112,475.009,98.985C478.526,97.858,482.044,97.35,485.561,96.242C489.078,95.134,492.595,93.659,496.112,92.337C499.629,91.016,503.146,89.415,506.663,88.313C510.18,87.211,513.697,85.726,517.214,85.726C520.732,85.726,524.249,85.726,527.766,85.726C531.283,85.726,534.8,85.726,538.317,85.726C541.834,85.726,545.351,85.726,548.868,85.726C552.385,85.726,555.902,85.726,559.42,85.726C562.937,85.726,566.454,85.726,569.971,85.726C570.002,85.726,570.032,85.726,570.063,85.726C573.58,85.726,577.097,85.685,580.614,85.601C584.131,85.518,587.648,81.562,591.166,79.791C594.683,78.019,598.2,76.75,601.717,74.971C605.234,73.192,608.751,69.117,612.268,69.117C615.785,69.117,619.302,69.117,622.819,69.117C626.336,69.117,629.854,64.518,633.371,61.732C636.888,58.945,640.405,52.398,643.922,52.398C647.439,52.398,650.956,52.398,654.473,52.398C657.99,52.398,661.507,40.716,665.024,40.716C668.542,40.716,672.059,40.716,675.576,40.716C679.093,40.716,682.61,27.819,686.127,27.819C689.644,27.819,693.161,27.819,696.678,27.819C700.195,27.819,703.712,27.819,707.23,27.819C710.747,27.819,714.264,10.389,717.781,10.389C721.298,10.389,724.815,10.389,728.332,10.389C731.849,10.389,735.366,1.781,738.883,1.781C742.4,1.781,745.918,1.781,749.435,1.781C752.952,1.781,756.469,1.781,759.986,1.781" stroke="#7EB26D" stroke-width="1.5"/></g><g class="mark-rule role-mark layer_1_marks" role="graphics-object" aria-roledescription="rule mark container"><line aria-label="ts: May 20, 2026" role="graphics-symbol" aria-roledescription="rule mark" transform="translate(190.03622604906528,0)" x2="0" y2="160" stroke="#5c6e7e" stroke-width="1" stroke-dasharray="4,4"/><line aria-label="ts: May 20, 2026" role="graphics-symbol" aria-roledescription="rule mark" transform="translate(380.04783245313473,0)" x2="0" y2="160" stroke="#5c6e7e" stroke-width="1" stroke-dasharray="4,4"/><line aria-label="ts: May 20, 2026" role="graphics-symbol" aria-roledescription="rule mark" transform="translate(570.0629559493465,0)" x2="0" y2="160" stroke="#5c6e7e" stroke-width="1" stroke-dasharray="4,4"/></g><g class="mark-group role-title"><g transform="translate(-53,-22)"><path class="background" aria-hidden="true" d="M0,0h0v0h0Z" pointer-events="none"/><g><g class="mark-text role-title-text" role="graphics-symbol" aria-roledescription="title" aria-label="Title text 'Committed Transactions'" pointer-events="none"><text text-anchor="start" transform="translate(0,10)" font-family="sans-serif" font-size="13px" font-weight="normal" fill="#d0d0d0" opacity="1">Committed Transactions</text></g></g><path class="foreground" aria-hidden="true" d="" pointer-events="none" display="none"/></g></g></g><path class="foreground" aria-hidden="true" d="" display="none"/></g></g></g></svg>