<svg xmlns="http://www.w3.org/2000/svg" xmlns:xlink="http://www.w3.org/1999/xlink" version="1.1" class="marks" width="825" height="222" viewBox="0 0 825 222"><rect width="825" height="222" fill="#111217"/><g fill="none" stroke-miterlimit="10" transform="translate(58,26)"><g class="mark-group role-frame root" role="graphics-object" aria-roledescription="group mark container"><g transform="translate(0,0)"><path class="background" aria-hidden="true" d="M0.5,0.5h760v160h-760Z" fill="#181b1f"/><g><g class="mark-group role-axis" aria-hidden="true"><g transform="translate(0.5,160.5)"><path class="background" aria-hidden="true" d="M0,0h0v0h0Z" pointer-events="none"/><g><g class="mark-rule role-axis-grid" pointer-events="none"><line transform="translate(22,-160)" x2="0" y2="160" stroke="#2c3235" stroke-opacity="1" stroke-width="1" opacity="1"/><line transform="translate(43,-160)" x2="0" y2="160" stroke="#2c3235" stroke-opacity="1" stroke-width="1" opacity="1"/><line transform="translate(65,-160)" x2="0" y2="160" stroke="#2c3235" stroke-opacity="1" stroke-width="1" opacity="1"/><line transform="translate(87,-160)" x2="0" y2="160" stroke="#2c3235" stroke-opacity="1" stroke-width="1" opacity="1"/><line transform="translate(108,-160)" x2="0" y2="160" stroke="#2c3235" stroke-opacity="1" stroke-width="1" opacity="1"/><line transform="translate(130,-160)" x2="0" y2="160" stroke="#2c3235" stroke-opacity="1" stroke-width="1" opacity="1"/><line transform="translate(152,-160)" x2="0" y2="160" stroke="#2c3235" stroke-opacity="1" stroke-width="1" opacity="1"/><line transform="translate(174,-160)" x2="0" y2="160" stroke="#2c3235" stroke-opacity="1" stroke-width="1" opacity="1"/><line transform="translate(195,-160)" x2="0" y2="160" stroke="#2c3235" stroke-opacity="1" stroke-width="1" opacity="1"/><line transform="translate(217,-160)" x2="0" y2="160" stroke="#2c3235" stroke-opacity="1" stroke-width="1" opacity="1"/><line transform="translate(239,-160)" x2="0" y2="160" stroke="#2c3235" stroke-opacity="1" stroke-width="1" opacity="1"/><line transform="translate(260,-160)" x2="0" y2="160" stroke="#2c3235" stroke-opacity="1" stroke-width="1" opacity="1"/><line transform="translate(282,-160)" x2="0" y2="160" stroke="#2c3235" stroke-opacity="1" stroke-width="1" opacity="1"/><line transform="translate(304,-160)" x2="0" y2="160" stroke="#2c3235" stroke-opacity="1" stroke-width="1" opacity="1"/><line transform="translate(326,-160)" x2="0" y2="160" stroke="#2c3235" stroke-opacity="1" stroke-width="1" opacity="1"/><line transform="translate(347,-160)" x2="0" y2="160" stroke="#2c3235" stroke-opacity="1" stroke-width="1" opacity="1"/><line transform="translate(369,-160)" x2="0" y2="160" stroke="#2c3235" stroke-opacity="1" stroke-width="1" opacity="1"/><line transform="translate(391,-160)" x2="0" y2="160" stroke="#2c3235" stroke-opacity="1" stroke-width="1" opacity="1"/><line transform="translate(412,-160)" x2="0" y2="160" stroke="#2c3235" stroke-opacity="1" stroke-width="1" opacity="1"/><line transform="translate(434,-160)" x2="0" y2="160" stroke="#2c3235" stroke-opacity="1" stroke-width="1" opacity="1"/><line transform="translate(456,-160)" x2="0" y2="160" stroke="#2c3235" stroke-opacity="1" stroke-width="1" opacity="1"/><line transform="translate(478,-160)" x2="0" y2="160" stroke="#2c3235" stroke-opacity="1" stroke-width="1" opacity="1"/><line transform="translate(499,-160)" x2="0" y2="160" stroke="#2c3235" stroke-opacity="1" stroke-width="1" opacity="1"/><line transform="translate(521,-160)" x2="0" y2="160" stroke="#2c3235" stroke-opacity="1" stroke-width="1" opacity="1"/><line transform="translate(543,-160)" x2="0" y2="160" stroke="#2c3235" stroke-opacity="1" stroke-width="1" opacity="1"/><line transform="translate(564,-160)" x2="0" y2="160" stroke="#2c3235" stroke-opacity="1" stroke-width="1" opacity="1"/><line transform="translate(586,-160)" x2="0" y2="160" stroke="#2c3235" stroke-opacity="1" stroke-width="1" opacity="1"/><line transform="translate(608,-160)" x2="0" y2="160" stroke="#2c3235" stroke-opacity="1" stroke-width="1" opacity="1"/><line transform="translate(630,-160)" x2="0" y2="160" stroke="#2c3235" stroke-opacity="1" stroke-width="1" opacity="1"/><line transform="translate(651,-160)" x2="0" y2="160" stroke="#2c3235" stroke-opacity="1" stroke-width="1" opacity="1"/><line transform="translate(673,-160)" x2="0" y2="160" stroke="#2c3235" stroke-opacity="1" stroke-width="1" opacity="1"/><line transform="translate(695,-160)" x2="0" y2="160" stroke="#2c3235" stroke-opacity="1" stroke-width="1" opacity="1"/><line transform="translate(716,-160)" x2="0" y2="160" stroke="#2c3235" stroke-opacity="1" stroke-width="1" opacity="1"/><line transform="translate(738,-160)" x2="0" y2="160" stroke="#2c3235" stroke-opacity="1" stroke-width="1" opacity="1"/><line transform="translate(760,-160)" x2="0" y2="160" stroke="#2c3235" stroke-opacity="1" stroke-width="1" opacity="1"/></g></g><path class="foreground" aria-hidden="true" d="" pointer-events="none" display="none"/></g></g><g class="mark-group role-axis" aria-hidden="true"><g transform="translate(0.5,0.5)"><path class="background" aria-hidden="true" d="M0,0h0v0h0Z" pointer-events="none"/><g><g class="mark-rule role-axis-grid" pointer-events="none"><line transform="translate(0,160)" x2="760" y2="0" stroke="#2c3235" stroke-opacity="1" stroke-width="1" opacity="1"/><line transform="translate(0,131)" x2="760" y2="0" stroke="#2c3235" stroke-opacity="1" stroke-width="1" opacity="1"/><line transform="translate(0,102)" x2="760" y2="0" stroke="#2c3235" stroke-opacity="1" stroke-width="1" opacity="1"/><line transform="translate(0,73)" x2="760" y2="0" stroke="#2c3235" stroke-opacity="1" stroke-width="1" opacity="1"/><line transform="translate(0,44)" x2="760" y2="0" stroke="#2c3235" stroke-opacity="1" stroke-width="1" opacity="1"/><line transform="translate(0,15)" x2="760" y2="0" stroke="#2c3235" stroke-opacity="1" stroke-width="1" opacity="1"/></g></g><path class="foreground" aria-hidden="true" d="" pointer-events="none" display="none"/></g></g><g class="mark-group role-axis" role="graphics-symbol" aria-roledescription="axis" aria-label="X-axis titled 'Time (UTC)' for a time scale with values from 09:52 to 10:27"><g transform="translate(0.5,160.5)"><path class="background" aria-hidden="true" d="M0,0h0v0h0Z" pointer-events="none"/><g><g class="mark-rule role-axis-tick" pointer-events="none"><line transform="translate(22,0)" x2="0" y2="5" stroke="#9fa7b3" stroke-width="1" opacity="1"/><line transform="translate(43,0)" x2="0" y2="5" stroke="#9fa7b3" stroke-width="1" opacity="1"/><line transform="translate(65,0)" x2="0" y2="5" stroke="#9fa7b3" stroke-width="1" opacity="1"/><line transform="translate(87,0)" x2="0" y2="5" stroke="#9fa7b3" stroke-width="1" opacity="1"/><line transform="translate(108,0)" x2="0" y2="5" stroke="#9fa7b3" stroke-width="1" opacity="1"/><line transform="translate(130,0)" x2="0" y2="5" stroke="#9fa7b3" stroke-width="1" opacity="1"/><line transform="translate(152,0)" x2="0" y2="5" stroke="#9fa7b3" stroke-width="1" opacity="1"/><line transform="translate(174,0)" x2="0" y2="5" stroke="#9fa7b3" stroke-width="1" opacity="1"/><line transform="translate(195,0)" x2="0" y2="5" stroke="#9fa7b3" stroke-width="1" opacity="1"/><line transform="translate(217,0)" x2="0" y2="5" stroke="#9fa7b3" stroke-width="1" opacity="1"/><line transform="translate(239,0)" x2="0" y2="5" stroke="#9fa7b3" stroke-width="1" opacity="1"/><line transform="translate(260,0)" x2="0" y2="5" stroke="#9fa7b3" stroke-width="1" opacity="1"/><line transform="translate(282,0)" x2="0" y2="5" stroke="#9fa7b3" stroke-width="1" opacity="1"/><line transform="translate(304,0)" x2="0" y2="5" stroke="#9fa7b3" stroke-width="1" opacity="1"/><line transform="translate(326,0)" x2="0" y2="5" stroke="#9fa7b3" stroke-width="1" opacity="1"/><line transform="translate(347,0)" x2="0" y2="5" stroke="#9fa7b3" stroke-width="1" opacity="1"/><line transform="translate(369,0)" x2="0" y2="5" stroke="#9fa7b3" stroke-width="1" opacity="1"/><line transform="translate(391,0)" x2="0" y2="5" stroke="#9fa7b3" stroke-width="1" opacity="1"/><line transform="translate(412,0)" x2="0" y2="5" stroke="#9fa7b3" stroke-width="1" opacity="1"/><line transform="translate(434,0)" x2="0" y2="5" stroke="#9fa7b3" stroke-width="1" opacity="1"/><line transform="translate(456,0)" x2="0" y2="5" stroke="#9fa7b3" stroke-width="1" opacity="1"/><line transform="translate(478,0)" x2="0" y2="5" stroke="#9fa7b3" stroke-width="1" opacity="1"/><line transform="translate(499,0)" x2="0" y2="5" stroke="#9fa7b3" stroke-width="1" opacity="1"/><line transform="translate(521,0)" x2="0" y2="5" stroke="#9fa7b3" stroke-width="1" opacity="1"/><line transform="translate(543,0)" x2="0" y2="5" stroke="#9fa7b3" stroke-width="1" opacity="1"/><line transform="translate(564,0)" x2="0" y2="5" stroke="#9fa7b3" stroke-width="1" opacity="1"/><line transform="translate(586,0)" x2="0" y2="5" stroke="#9fa7b3" stroke-width="1" opacity="1"/><line transform="translate(608,0)" x2="0" y2="5" stroke="#9fa7b3" stroke-width="1" opacity="1"/><line transform="translate(630,0)" x2="0" y2="5" stroke="#9fa7b3" stroke-width="1" opacity="1"/><line transform="translate(651,0)" x2="0" y2="5" stroke="#9fa7b3" stroke-width="1" opacity="1"/><line transform="translate(673,0)" x2="0" y2="5" stroke="#9fa7b3" stroke-width="1" opacity="1"/><line transform="translate(695,0)" x2="0" y2="5" stroke="#9fa7b3" stroke-width="1" opacity="1"/><line transform="translate(716,0)" x2="0" y2="5" stroke="#9fa7b3" stroke-width="1" opacity="1"/><line transform="translate(738,0)" x2="0" y2="5" stroke="#9fa7b3" stroke-width="1" opacity="1"/><line transform="translate(760,0)" x2="0" y2="5" stroke="#9fa7b3" stroke-width="1" opacity="1"/></g><g class="mark-text role-axis-label" pointer-events="none"><text text-anchor="middle" transform="translate(21.551267088275477,15)" font-family="sans-serif" font-size="10px" fill="#9fa7b3" opacity="1">09:53</text><text text-anchor="middle" transform="translate(43.2650254684291,15)" font-family="sans-serif" font-size="10px" fill="#9fa7b3" opacity="0">09:54</text><text text-anchor="middle" transform="translate(64.97878384858272,15)" font-family="sans-serif" font-size="10px" fill="#9fa7b3" opacity="0">09:55</text><text text-anchor="middle" transform="translate(86.69254222873634,15)" font-family="sans-serif" font-size="10px" fill="#9fa7b3" opacity="0">09:56</text><text text-anchor="middle" transform="translate(108.40630060888998,15)" font-family="sans-serif" font-size="10px" fill="#9fa7b3" opacity="1">09:57</text><text text-anchor="middle" transform="translate(130.1200589890436,15)" font-family="sans-serif" font-size="10px" fill="#9fa7b3" opacity="0">09:58</text><text text-anchor="middle" transform="translate(151.83381736919722,15)" font-family="sans-serif" font-size="10px" fill="#9fa7b3" opacity="0">09:59</text><text text-anchor="middle" transform="translate(173.54757574935084,15)" font-family="sans-serif" font-size="10px" fill="#9fa7b3" opacity="0">10:00</text><text text-anchor="middle" transform="translate(195.26133412950446,15)" font-family="sans-serif" font-size="10px" fill="#9fa7b3" opacity="1">10:01</text><text text-anchor="middle" transform="translate(216.97509250965808,15)" font-family="sans-serif" font-size="10px" fill="#9fa7b3" opacity="0">10:02</text><text text-anchor="middle" transform="translate(238.68885088981173,15)" font-family="sans-serif" font-size="10px" fill="#9fa7b3" opacity="0">10:03</text><text text-anchor="middle" transform="translate(260.40260926996535,15)" font-family="sans-serif" font-size="10px" fill="#9fa7b3" opacity="0">10:04</text><text text-anchor="middle" transform="translate(282.116367650119,15)" font-family="sans-serif" font-size="10px" fill="#9fa7b3" opacity="1">10:05</text><text text-anchor="middle" transform="translate(303.8301260302726,15)" font-family="sans-serif" font-size="10px" fill="#9fa7b3" opacity="0">10:06</text><text text-anchor="middle" transform="translate(325.5438844104262,15)" font-family="sans-serif" font-size="10px" fill="#9fa7b3" opacity="0">10:07</text><text text-anchor="middle" transform="translate(347.25764279057984,15)" font-family="sans-serif" font-size="10px" fill="#9fa7b3" opacity="0">10:08</text><text text-anchor="middle" transform="translate(368.9714011707335,15)" font-family="sans-serif" font-size="10px" fill="#9fa7b3" opacity="1">10:09</text><text text-anchor="middle" transform="translate(390.6851595508871,15)" font-family="sans-serif" font-size="10px" fill="#9fa7b3" opacity="0">10:10</text><text text-anchor="middle" transform="translate(412.39891793104067,15)" font-family="sans-serif" font-size="10px" fill="#9fa7b3" opacity="0">10:11</text><text text-anchor="middle" transform="translate(434.1126763111943,15)" font-family="sans-serif" font-size="10px" fill="#9fa7b3" opacity="0">10:12</text><text text-anchor="middle" transform="translate(455.82643469134797,15)" font-family="sans-serif" font-size="10px" fill="#9fa7b3" opacity="1">10:13</text><text text-anchor="middle" transform="translate(477.54019307150156,15)" font-family="sans-serif" font-size="10px" fill="#9fa7b3" opacity="0">10:14</text><text text-anchor="middle" transform="translate(499.2539514516552,15)" font-family="sans-serif" font-size="10px" fill="#9fa7b3" opacity="0">10:15</text><text text-anchor="middle" transform="translate(520.9677098318089,15)" font-family="sans-serif" font-size="10px" fill="#9fa7b3" opacity="0">10:16</text><text text-anchor="middle" transform="translate(542.6814682119625,15)" font-family="sans-serif" font-size="10px" fill="#9fa7b3" opacity="1">10:17</text><text text-anchor="middle" transform="translate(564.3952265921162,15)" font-family="sans-serif" font-size="10px" fill="#9fa7b3" opacity="0">10:18</text><text text-anchor="middle" transform="translate(586.1089849722697,15)" font-family="sans-serif" font-size="10px" fill="#9fa7b3" opacity="0">10:19</text><text text-anchor="middle" transform="translate(607.8227433524233,15)" font-family="sans-serif" font-size="10px" fill="#9fa7b3" opacity="0">10:20</text><text text-anchor="middle" transform="translate(629.536501732577,15)" font-family="sans-serif" font-size="10px" fill="#9fa7b3" opacity="1">10:21</text><text text-anchor="middle" transform="translate(651.2502601127305,15)" font-family="sans-serif" font-size="10px" fill="#9fa7b3" opacity="0">10:22</text><text text-anchor="middle" transform="translate(672.9640184928842,15)" font-family="sans-serif" font-size="10px" fill="#9fa7b3" opacity="0">10:23</text><text text-anchor="middle" transform="translate(694.6777768730378,15)" font-family="sans-serif" font-size="10px" fill="#9fa7b3" opacity="0">10:24</text><text text-anchor="middle" transform="translate(716.3915352531915,15)" font-family="sans-serif" font-size="10px" fill="#9fa7b3" opacity="1">10:25</text><text text-anchor="middle" transform="translate(738.1052936333451,15)" font-family="sans-serif" font-size="10px" fill="#9fa7b3" opacity="0">10:26</text><text text-anchor="end" transform="translate(759.8190520134987,15)" font-family="sans-serif" font-size="10px" fill="#9fa7b3" opacity="0">10:27</text></g><g class="mark-rule role-axis-domain" pointer-events="none"><line transform="translate(0,0)" x2="760" y2="0" stroke="#9fa7b3" stroke-width="1" opacity="1"/></g><g class="mark-text role-axis-title" pointer-events="none"><text text-anchor="middle" transform="translate(380,29)" font-family="sans-serif" font-size="10px" font-weight="bold" fill="#9fa7b3" opacity="1">Time (UTC)</text></g></g><path class="foreground" aria-hidden="true" d="" pointer-events="none" display="none"/></g></g><g class="mark-group role-axis" role="graphics-symbol" aria-roledescription="axis" aria-label="Y-axis titled 'tx/s' for a linear scale with values from 0k to 1.1k"><g transform="translate(0.5,0.5)"><path class="background" aria-hidden="true" d="M0,0h0v0h0Z" pointer-events="none"/><g><g class="mark-rule role-axis-tick" pointer-events="none"><line transform="translate(0,160)" x2="-5" y2="0" stroke="#9fa7b3" stroke-width="1" opacity="1"/><line transform="translate(0,131)" x2="-5" y2="0" stroke="#9fa7b3" stroke-width="1" opacity="1"/><line transform="translate(0,102)" x2="-5" y2="0" stroke="#9fa7b3" stroke-width="1" opacity="1"/><line transform="translate(0,73)" x2="-5" y2="0" stroke="#9fa7b3" stroke-width="1" opacity="1"/><line transform="translate(0,44)" x2="-5" y2="0" stroke="#9fa7b3" stroke-width="1" opacity="1"/><line transform="translate(0,15)" x2="-5" y2="0" stroke="#9fa7b3" stroke-width="1" opacity="1"/></g><g class="mark-text role-axis-label" pointer-events="none"><text text-anchor="end" transform="translate(-7,163)" font-family="sans-serif" font-size="10px" fill="#9fa7b3" opacity="1">0k</text><text text-anchor="end" transform="translate(-7,133.9090909090909)" font-family="sans-serif" font-size="10px" fill="#9fa7b3" opacity="1">0.2k</text><text text-anchor="end" transform="translate(-7,104.81818181818181)" font-family="sans-serif" font-size="10px" fill="#9fa7b3" opacity="1">0.4k</text><text text-anchor="end" transform="translate(-7,75.72727272727273)" font-family="sans-serif" font-size="10px" fill="#9fa7b3" opacity="1">0.6k</text><text text-anchor="end" transform="translate(-7,46.63636363636363)" font-family="sans-serif" font-size="10px" fill="#9fa7b3" opacity="1">0.8k</text><text text-anchor="end" transform="translate(-7,17.54545454545455)" font-family="sans-serif" font-size="10px" fill="#9fa7b3" opacity="1">1k</text></g><g class="mark-rule role-axis-domain" pointer-events="none"><line transform="translate(0,160)" x2="0" y2="-160" stroke="#9fa7b3" stroke-width="1" opacity="1"/></g><g class="mark-text role-axis-title" pointer-events="none"><text text-anchor="middle" transform="translate(-43,80) rotate(-90) translate(0,-2)" font-family="sans-serif" font-size="10px" font-weight="bold" fill="#9fa7b3" opacity="1">tx/s</text></g></g><path class="foreground" aria-hidden="true" d="" pointer-events="none" display="none"/></g></g><g class="mark-line role-mark layer_0_marks" role="graphics-object" aria-roledescription="line mark container"><path aria-label="ts: 09:52; value: 864.129" role="graphics-symbol" aria-roledescription="line mark" d="M5.266,34.309C7.075,24.853,8.885,15.398,10.694,14.907C12.504,14.416,14.313,14.384,16.123,14.17C17.932,13.956,19.742,13.62,21.551,13.62C23.361,13.62,25.17,13.628,26.98,13.643C28.789,13.658,30.599,13.68,32.408,13.752C34.218,13.825,36.027,14.704,37.837,14.704C39.646,14.704,41.456,13.15,43.265,13.15C45.075,13.15,46.884,16.055,48.693,16.055C50.503,16.055,52.312,13.774,54.122,13.774C55.931,13.774,57.741,14.673,59.55,14.673C61.36,14.673,63.169,14.245,64.979,14.245C66.788,14.245,68.598,14.502,70.407,14.502C72.217,14.502,74.026,14.114,75.836,14.114C77.645,14.114,79.455,16.015,81.264,16.015C83.074,16.015,84.883,14.998,86.693,14.536C88.502,14.074,90.312,13.245,92.121,13.245C93.93,13.245,95.74,15.16,97.549,15.16C99.359,15.16,101.168,14.937,102.978,14.64C104.787,14.344,106.597,13.381,108.406,13.381C110.216,13.381,112.025,13.493,113.835,13.581C115.644,13.67,117.454,13.691,119.263,13.909C121.073,14.128,122.882,15.498,124.692,15.498C126.501,15.498,128.311,14.08,130.12,14.08C131.93,14.08,133.739,14.547,135.548,14.547C137.358,14.547,139.167,14.131,140.977,14.131C142.786,14.131,144.596,14.659,146.405,14.943C148.215,15.227,150.024,15.835,151.834,15.835C153.643,15.835,155.453,14.729,157.262,14.718C159.072,14.707,160.881,14.713,162.691,14.702C164.5,14.691,166.31,13.375,168.119,13.375C169.929,13.375,171.738,14.097,173.548,14.333C175.357,14.568,177.167,14.789,178.976,14.789C180.785,14.789,182.595,13.104,184.404,13.104C186.214,13.104,188.023,13.562,189.833,13.787C191.642,14.012,193.452,14.222,195.261,14.454C197.071,14.686,198.88,15.181,200.69,15.181C202.499,15.181,204.309,14.152,206.118,13.939C207.928,13.725,209.737,13.719,211.547,13.618C213.356,13.517,215.166,13.421,216.975,13.332C218.785,13.244,220.594,13.106,222.404,13.088C224.213,13.07,226.022,13.061,227.832,13.061C229.641,13.061,231.451,14.1,233.26,14.429C235.07,14.758,236.879,14.854,238.689,15.037C240.498,15.22,242.308,15.526,244.117,15.526C245.927,15.526,247.736,13.602,249.546,13.602C251.355,13.602,253.165,16.038,254.974,16.038C256.784,16.038,258.593,15.717,260.403,15.476C262.212,15.235,264.022,14.791,265.831,14.591C267.641,14.392,269.45,14.28,271.259,14.28C273.069,14.28,274.878,14.736,276.688,14.736C278.497,14.736,280.307,13.901,282.116,13.729C283.926,13.556,285.735,13.47,287.545,13.47C289.354,13.47,291.164,14.133,292.973,14.133C294.783,14.133,296.592,13.736,298.402,13.736C300.211,13.736,302.021,14.188,303.83,14.188C305.64,14.188,307.449,13.62,309.259,13.62C311.068,13.62,312.878,14.404,314.687,14.404C316.496,14.404,318.306,13.072,320.115,13.072C321.925,13.072,323.734,13.779,325.544,13.779C327.353,13.779,329.163,12.779,330.972,12.779C332.782,12.779,334.591,15.17,336.401,15.17C338.21,15.17,340.02,13.977,341.829,13.977C343.639,13.977,345.448,14.853,347.258,14.853C349.067,14.853,350.877,13.018,352.686,13.018C354.496,13.018,356.305,14.816,358.115,14.816C359.924,14.816,361.733,13.204,363.543,13.204C365.352,13.204,367.162,13.433,368.971,13.737C370.781,14.041,372.59,15.029,374.4,15.029C376.209,15.029,378.019,13.984,379.828,13.984C381.638,13.984,383.447,14.471,385.257,14.614C387.066,14.756,388.876,14.689,390.685,14.838C392.495,14.988,394.304,15.801,396.114,15.801C397.923,15.801,399.733,14.338,401.542,14.338C403.352,14.338,405.161,14.893,406.97,14.893C408.78,14.893,410.589,14.572,412.399,14.37C414.208,14.167,416.018,13.678,417.827,13.678C419.637,13.678,421.446,16.382,423.256,16.382C425.065,16.382,426.875,15.725,428.684,15.472C430.494,15.218,432.303,14.859,434.113,14.859C435.922,14.859,437.732,15.227,439.541,15.351C441.351,15.476,443.16,15.606,444.97,15.606C446.779,15.606,448.589,12.875,450.398,12.875C452.207,12.875,454.017,14.747,455.826,14.747C457.636,14.747,459.445,13.25,461.255,13.25C463.064,13.25,464.874,14.038,466.683,14.271C468.493,14.505,470.302,14.651,472.112,14.651C473.921,14.651,475.731,13.575,477.54,13.575C479.35,13.575,481.159,14.006,482.969,14.006C484.778,14.006,486.588,13.688,488.397,13.688C490.207,13.688,492.016,13.944,493.826,14C495.635,14.057,497.444,14.029,499.254,14.085C501.063,14.142,502.873,14.388,504.682,14.862C506.492,15.337,508.301,16.933,510.111,16.933C511.92,16.933,513.73,11.77,515.539,11.77C517.349,11.77,519.158,16.122,520.968,16.122C522.777,16.122,524.587,13.343,526.396,13.343C528.206,13.343,530.015,15.165,531.825,15.165C533.634,15.165,535.444,14.607,537.253,14.444C539.063,14.281,540.872,14.186,542.681,14.186C544.491,14.186,546.3,14.479,548.11,14.696C549.919,14.913,551.729,15.488,553.538,15.488C555.348,15.488,557.157,14.811,558.967,14.811C560.776,14.811,562.586,15.034,564.395,15.034C566.205,15.034,568.014,13.793,569.824,13.793C571.633,13.793,573.443,16.407,575.252,16.407C577.062,16.407,578.871,15.908,580.681,15.522C582.49,15.136,584.3,14.249,586.109,14.093C587.918,13.937,589.728,13.859,591.537,13.859C593.347,13.859,595.156,14.442,596.966,14.442C598.775,14.442,600.585,14.112,602.394,14.112C604.204,14.112,606.013,14.591,607.823,14.591C609.632,14.591,611.442,13.174,613.251,13.174C615.061,13.174,616.87,14.735,618.68,15.152C620.489,15.569,622.299,15.777,624.108,15.777C625.918,15.777,627.727,15.768,629.537,15.75C631.346,15.732,633.155,15.529,634.965,15.522C636.774,15.514,638.584,15.518,640.393,15.51C642.203,15.502,644.012,13.575,645.822,13.575C647.631,13.575,649.441,13.968,651.25,14.753C653.06,15.538,654.869,127.985,656.679,140.791C658.488,153.597,660.298,160,662.107,160C663.917,160,665.726,160,667.536,160C669.345,160,671.155,160,672.964,160C674.773,160,676.583,160,678.392,160C680.202,160,682.011,160,683.821,160C685.63,160,687.44,160,689.249,160C691.059,160,692.868,160,694.678,160C696.487,160,698.297,160,700.106,160C701.916,160,703.725,160,705.535,160C707.344,160,709.154,160,710.963,160C712.773,160,714.582,160,716.392,160C718.201,160,720.01,160,721.82,160C723.629,160,725.439,160,727.248,160C729.058,160,730.867,160,732.677,160C734.486,160,736.296,160,738.105,160C739.915,160,741.724,160,743.534,160C745.343,160,747.153,160,748.962,160C750.772,160,752.581,160,754.391,160C756.2,160,758.01,160,759.819,160" stroke="#7EB26D" stroke-width="1.5"/></g><g class="mark-group role-title"><g transform="translate(-53,-21)"><path class="background" aria-hidden="true" d="M0,0h0v0h0Z" pointer-events="none"/><g><g class="mark-text role-title-text" role="graphics-symbol" aria-roledescription="title" aria-label="Title text 'Received Transactions Per Second'" pointer-events="none"><text text-anchor="start" transform="translate(0,10)" font-family="sans-serif" font-size="13px" font-weight="normal" fill="#d0d0d0" opacity="1">Received Transactions Per Second</text></g></g><path class="foreground" aria-hidden="true" d="" pointer-events="none" display="none"/></g></g></g><path class="foreground" aria-hidden="true" d="" display="none"/></g></g></g></svg>