<svg xmlns="http://www.w3.org/2000/svg" xmlns:xlink="http://www.w3.org/1999/xlink" version="1.1" class="marks" width="817" height="227" viewBox="0 0 817 227"><rect width="817" height="227" fill="#111217"/><g fill="none" stroke-miterlimit="10" transform="translate(50,31)"><g class="mark-group role-frame root" role="graphics-object" aria-roledescription="group mark container"><g transform="translate(0,0)"><path class="background" aria-hidden="true" d="M0.5,0.5h760v160h-760Z" fill="#181b1f"/><g><g class="mark-group role-axis" aria-hidden="true"><g transform="translate(0.5,160.5)"><path class="background" aria-hidden="true" d="M0,0h0v0h0Z" pointer-events="none"/><g><g class="mark-rule role-axis-grid" pointer-events="none"><line transform="translate(22,-160)" x2="0" y2="160" stroke="#2c3235" stroke-opacity="1" stroke-width="1" opacity="1"/><line transform="translate(43,-160)" x2="0" y2="160" stroke="#2c3235" stroke-opacity="1" stroke-width="1" opacity="1"/><line transform="translate(65,-160)" x2="0" y2="160" stroke="#2c3235" stroke-opacity="1" stroke-width="1" opacity="1"/><line transform="translate(87,-160)" x2="0" y2="160" stroke="#2c3235" stroke-opacity="1" stroke-width="1" opacity="1"/><line transform="translate(108,-160)" x2="0" y2="160" stroke="#2c3235" stroke-opacity="1" stroke-width="1" opacity="1"/><line transform="translate(130,-160)" x2="0" y2="160" stroke="#2c3235" stroke-opacity="1" stroke-width="1" opacity="1"/><line transform="translate(152,-160)" x2="0" y2="160" stroke="#2c3235" stroke-opacity="1" stroke-width="1" opacity="1"/><line transform="translate(174,-160)" x2="0" y2="160" stroke="#2c3235" stroke-opacity="1" stroke-width="1" opacity="1"/><line transform="translate(195,-160)" x2="0" y2="160" stroke="#2c3235" stroke-opacity="1" stroke-width="1" opacity="1"/><line transform="translate(217,-160)" x2="0" y2="160" stroke="#2c3235" stroke-opacity="1" stroke-width="1" opacity="1"/><line transform="translate(239,-160)" x2="0" y2="160" stroke="#2c3235" stroke-opacity="1" stroke-width="1" opacity="1"/><line transform="translate(260,-160)" x2="0" y2="160" stroke="#2c3235" stroke-opacity="1" stroke-width="1" opacity="1"/><line transform="translate(282,-160)" x2="0" y2="160" stroke="#2c3235" stroke-opacity="1" stroke-width="1" opacity="1"/><line transform="translate(304,-160)" x2="0" y2="160" stroke="#2c3235" stroke-opacity="1" stroke-width="1" opacity="1"/><line transform="translate(326,-160)" x2="0" y2="160" stroke="#2c3235" stroke-opacity="1" stroke-width="1" opacity="1"/><line transform="translate(347,-160)" x2="0" y2="160" stroke="#2c3235" stroke-opacity="1" stroke-width="1" opacity="1"/><line transform="translate(369,-160)" x2="0" y2="160" stroke="#2c3235" stroke-opacity="1" stroke-width="1" opacity="1"/><line transform="translate(391,-160)" x2="0" y2="160" stroke="#2c3235" stroke-opacity="1" stroke-width="1" opacity="1"/><line transform="translate(412,-160)" x2="0" y2="160" stroke="#2c3235" stroke-opacity="1" stroke-width="1" opacity="1"/><line transform="translate(434,-160)" x2="0" y2="160" stroke="#2c3235" stroke-opacity="1" stroke-width="1" opacity="1"/><line transform="translate(456,-160)" x2="0" y2="160" stroke="#2c3235" stroke-opacity="1" stroke-width="1" opacity="1"/><line transform="translate(478,-160)" x2="0" y2="160" stroke="#2c3235" stroke-opacity="1" stroke-width="1" opacity="1"/><line transform="translate(499,-160)" x2="0" y2="160" stroke="#2c3235" stroke-opacity="1" stroke-width="1" opacity="1"/><line transform="translate(521,-160)" x2="0" y2="160" stroke="#2c3235" stroke-opacity="1" stroke-width="1" opacity="1"/><line transform="translate(543,-160)" x2="0" y2="160" stroke="#2c3235" stroke-opacity="1" stroke-width="1" opacity="1"/><line transform="translate(564,-160)" x2="0" y2="160" stroke="#2c3235" stroke-opacity="1" stroke-width="1" opacity="1"/><line transform="translate(586,-160)" x2="0" y2="160" stroke="#2c3235" stroke-opacity="1" stroke-width="1" opacity="1"/><line transform="translate(608,-160)" x2="0" y2="160" stroke="#2c3235" stroke-opacity="1" stroke-width="1" opacity="1"/><line transform="translate(630,-160)" x2="0" y2="160" stroke="#2c3235" stroke-opacity="1" stroke-width="1" opacity="1"/><line transform="translate(651,-160)" x2="0" y2="160" stroke="#2c3235" stroke-opacity="1" stroke-width="1" opacity="1"/><line transform="translate(673,-160)" x2="0" y2="160" stroke="#2c3235" stroke-opacity="1" stroke-width="1" opacity="1"/><line transform="translate(695,-160)" x2="0" y2="160" stroke="#2c3235" stroke-opacity="1" stroke-width="1" opacity="1"/><line transform="translate(716,-160)" x2="0" y2="160" stroke="#2c3235" stroke-opacity="1" stroke-width="1" opacity="1"/><line transform="translate(738,-160)" x2="0" y2="160" stroke="#2c3235" stroke-opacity="1" stroke-width="1" opacity="1"/><line transform="translate(760,-160)" x2="0" y2="160" stroke="#2c3235" stroke-opacity="1" stroke-width="1" opacity="1"/></g></g><path class="foreground" aria-hidden="true" d="" pointer-events="none" display="none"/></g></g><g class="mark-group role-axis" aria-hidden="true"><g transform="translate(0.5,0.5)"><path class="background" aria-hidden="true" d="M0,0h0v0h0Z" pointer-events="none"/><g><g class="mark-rule role-axis-grid" pointer-events="none"><line transform="translate(0,160)" x2="760" y2="0" stroke="#2c3235" stroke-opacity="1" stroke-width="1" opacity="1"/><line transform="translate(0,128)" x2="760" y2="0" stroke="#2c3235" stroke-opacity="1" stroke-width="1" opacity="1"/><line transform="translate(0,96)" x2="760" y2="0" stroke="#2c3235" stroke-opacity="1" stroke-width="1" opacity="1"/><line transform="translate(0,64)" x2="760" y2="0" stroke="#2c3235" stroke-opacity="1" stroke-width="1" opacity="1"/><line transform="translate(0,32)" x2="760" y2="0" stroke="#2c3235" stroke-opacity="1" stroke-width="1" opacity="1"/><line transform="translate(0,0)" x2="760" y2="0" stroke="#2c3235" stroke-opacity="1" stroke-width="1" opacity="1"/></g></g><path class="foreground" aria-hidden="true" d="" pointer-events="none" display="none"/></g></g><g class="mark-group role-axis" role="graphics-symbol" aria-roledescription="axis" aria-label="X-axis titled 'Time (UTC)' for a time scale with values from 09:52 to 10:27"><g transform="translate(0.5,160.5)"><path class="background" aria-hidden="true" d="M0,0h0v0h0Z" pointer-events="none"/><g><g class="mark-rule role-axis-tick" pointer-events="none"><line transform="translate(22,0)" x2="0" y2="5" stroke="#9fa7b3" stroke-width="1" opacity="1"/><line transform="translate(43,0)" x2="0" y2="5" stroke="#9fa7b3" stroke-width="1" opacity="1"/><line transform="translate(65,0)" x2="0" y2="5" stroke="#9fa7b3" stroke-width="1" opacity="1"/><line transform="translate(87,0)" x2="0" y2="5" stroke="#9fa7b3" stroke-width="1" opacity="1"/><line transform="translate(108,0)" x2="0" y2="5" stroke="#9fa7b3" stroke-width="1" opacity="1"/><line transform="translate(130,0)" x2="0" y2="5" stroke="#9fa7b3" stroke-width="1" opacity="1"/><line transform="translate(152,0)" x2="0" y2="5" stroke="#9fa7b3" stroke-width="1" opacity="1"/><line transform="translate(174,0)" x2="0" y2="5" stroke="#9fa7b3" stroke-width="1" opacity="1"/><line transform="translate(195,0)" x2="0" y2="5" stroke="#9fa7b3" stroke-width="1" opacity="1"/><line transform="translate(217,0)" x2="0" y2="5" stroke="#9fa7b3" stroke-width="1" opacity="1"/><line transform="translate(239,0)" x2="0" y2="5" stroke="#9fa7b3" stroke-width="1" opacity="1"/><line transform="translate(260,0)" x2="0" y2="5" stroke="#9fa7b3" stroke-width="1" opacity="1"/><line transform="translate(282,0)" x2="0" y2="5" stroke="#9fa7b3" stroke-width="1" opacity="1"/><line transform="translate(304,0)" x2="0" y2="5" stroke="#9fa7b3" stroke-width="1" opacity="1"/><line transform="translate(326,0)" x2="0" y2="5" stroke="#9fa7b3" stroke-width="1" opacity="1"/><line transform="translate(347,0)" x2="0" y2="5" stroke="#9fa7b3" stroke-width="1" opacity="1"/><line transform="translate(369,0)" x2="0" y2="5" stroke="#9fa7b3" stroke-width="1" opacity="1"/><line transform="translate(391,0)" x2="0" y2="5" stroke="#9fa7b3" stroke-width="1" opacity="1"/><line transform="translate(412,0)" x2="0" y2="5" stroke="#9fa7b3" stroke-width="1" opacity="1"/><line transform="translate(434,0)" x2="0" y2="5" stroke="#9fa7b3" stroke-width="1" opacity="1"/><line transform="translate(456,0)" x2="0" y2="5" stroke="#9fa7b3" stroke-width="1" opacity="1"/><line transform="translate(478,0)" x2="0" y2="5" stroke="#9fa7b3" stroke-width="1" opacity="1"/><line transform="translate(499,0)" x2="0" y2="5" stroke="#9fa7b3" stroke-width="1" opacity="1"/><line transform="translate(521,0)" x2="0" y2="5" stroke="#9fa7b3" stroke-width="1" opacity="1"/><line transform="translate(543,0)" x2="0" y2="5" stroke="#9fa7b3" stroke-width="1" opacity="1"/><line transform="translate(564,0)" x2="0" y2="5" stroke="#9fa7b3" stroke-width="1" opacity="1"/><line transform="translate(586,0)" x2="0" y2="5" stroke="#9fa7b3" stroke-width="1" opacity="1"/><line transform="translate(608,0)" x2="0" y2="5" stroke="#9fa7b3" stroke-width="1" opacity="1"/><line transform="translate(630,0)" x2="0" y2="5" stroke="#9fa7b3" stroke-width="1" opacity="1"/><line transform="translate(651,0)" x2="0" y2="5" stroke="#9fa7b3" stroke-width="1" opacity="1"/><line transform="translate(673,0)" x2="0" y2="5" stroke="#9fa7b3" stroke-width="1" opacity="1"/><line transform="translate(695,0)" x2="0" y2="5" stroke="#9fa7b3" stroke-width="1" opacity="1"/><line transform="translate(716,0)" x2="0" y2="5" stroke="#9fa7b3" stroke-width="1" opacity="1"/><line transform="translate(738,0)" x2="0" y2="5" stroke="#9fa7b3" stroke-width="1" opacity="1"/><line transform="translate(760,0)" x2="0" y2="5" stroke="#9fa7b3" stroke-width="1" opacity="1"/></g><g class="mark-text role-axis-label" pointer-events="none"><text text-anchor="middle" transform="translate(21.551267088275477,15)" font-family="sans-serif" font-size="10px" fill="#9fa7b3" opacity="1">09:53</text><text text-anchor="middle" transform="translate(43.2650254684291,15)" font-family="sans-serif" font-size="10px" fill="#9fa7b3" opacity="0">09:54</text><text text-anchor="middle" transform="translate(64.97878384858272,15)" font-family="sans-serif" font-size="10px" fill="#9fa7b3" opacity="0">09:55</text><text text-anchor="middle" transform="translate(86.69254222873634,15)" font-family="sans-serif" font-size="10px" fill="#9fa7b3" opacity="0">09:56</text><text text-anchor="middle" transform="translate(108.40630060888998,15)" font-family="sans-serif" font-size="10px" fill="#9fa7b3" opacity="1">09:57</text><text text-anchor="middle" transform="translate(130.1200589890436,15)" font-family="sans-serif" font-size="10px" fill="#9fa7b3" opacity="0">09:58</text><text text-anchor="middle" transform="translate(151.83381736919722,15)" font-family="sans-serif" font-size="10px" fill="#9fa7b3" opacity="0">09:59</text><text text-anchor="middle" transform="translate(173.54757574935084,15)" font-family="sans-serif" font-size="10px" fill="#9fa7b3" opacity="0">10:00</text><text text-anchor="middle" transform="translate(195.26133412950446,15)" font-family="sans-serif" font-size="10px" fill="#9fa7b3" opacity="1">10:01</text><text text-anchor="middle" transform="translate(216.97509250965808,15)" font-family="sans-serif" font-size="10px" fill="#9fa7b3" opacity="0">10:02</text><text text-anchor="middle" transform="translate(238.68885088981173,15)" font-family="sans-serif" font-size="10px" fill="#9fa7b3" opacity="0">10:03</text><text text-anchor="middle" transform="translate(260.40260926996535,15)" font-family="sans-serif" font-size="10px" fill="#9fa7b3" opacity="0">10:04</text><text text-anchor="middle" transform="translate(282.116367650119,15)" font-family="sans-serif" font-size="10px" fill="#9fa7b3" opacity="1">10:05</text><text text-anchor="middle" transform="translate(303.8301260302726,15)" font-family="sans-serif" font-size="10px" fill="#9fa7b3" opacity="0">10:06</text><text text-anchor="middle" transform="translate(325.5438844104262,15)" font-family="sans-serif" font-size="10px" fill="#9fa7b3" opacity="0">10:07</text><text text-anchor="middle" transform="translate(347.25764279057984,15)" font-family="sans-serif" font-size="10px" fill="#9fa7b3" opacity="0">10:08</text><text text-anchor="middle" transform="translate(368.9714011707335,15)" font-family="sans-serif" font-size="10px" fill="#9fa7b3" opacity="1">10:09</text><text text-anchor="middle" transform="translate(390.6851595508871,15)" font-family="sans-serif" font-size="10px" fill="#9fa7b3" opacity="0">10:10</text><text text-anchor="middle" transform="translate(412.39891793104067,15)" font-family="sans-serif" font-size="10px" fill="#9fa7b3" opacity="0">10:11</text><text text-anchor="middle" transform="translate(434.1126763111943,15)" font-family="sans-serif" font-size="10px" fill="#9fa7b3" opacity="0">10:12</text><text text-anchor="middle" transform="translate(455.82643469134797,15)" font-family="sans-serif" font-size="10px" fill="#9fa7b3" opacity="1">10:13</text><text text-anchor="middle" transform="translate(477.54019307150156,15)" font-family="sans-serif" font-size="10px" fill="#9fa7b3" opacity="0">10:14</text><text text-anchor="middle" transform="translate(499.2539514516552,15)" font-family="sans-serif" font-size="10px" fill="#9fa7b3" opacity="0">10:15</text><text text-anchor="middle" transform="translate(520.9677098318089,15)" font-family="sans-serif" font-size="10px" fill="#9fa7b3" opacity="0">10:16</text><text text-anchor="middle" transform="translate(542.6814682119625,15)" font-family="sans-serif" font-size="10px" fill="#9fa7b3" opacity="1">10:17</text><text text-anchor="middle" transform="translate(564.3952265921162,15)" font-family="sans-serif" font-size="10px" fill="#9fa7b3" opacity="0">10:18</text><text text-anchor="middle" transform="translate(586.1089849722697,15)" font-family="sans-serif" font-size="10px" fill="#9fa7b3" opacity="0">10:19</text><text text-anchor="middle" transform="translate(607.8227433524233,15)" font-family="sans-serif" font-size="10px" fill="#9fa7b3" opacity="0">10:20</text><text text-anchor="middle" transform="translate(629.536501732577,15)" font-family="sans-serif" font-size="10px" fill="#9fa7b3" opacity="1">10:21</text><text text-anchor="middle" transform="translate(651.2502601127305,15)" font-family="sans-serif" font-size="10px" fill="#9fa7b3" opacity="0">10:22</text><text text-anchor="middle" transform="translate(672.9640184928842,15)" font-family="sans-serif" font-size="10px" fill="#9fa7b3" opacity="0">10:23</text><text text-anchor="middle" transform="translate(694.6777768730378,15)" font-family="sans-serif" font-size="10px" fill="#9fa7b3" opacity="0">10:24</text><text text-anchor="middle" transform="translate(716.3915352531915,15)" font-family="sans-serif" font-size="10px" fill="#9fa7b3" opacity="1">10:25</text><text text-anchor="middle" transform="translate(738.1052936333451,15)" font-family="sans-serif" font-size="10px" fill="#9fa7b3" opacity="0">10:26</text><text text-anchor="end" transform="translate(759.8190520134987,15)" font-family="sans-serif" font-size="10px" fill="#9fa7b3" opacity="0">10:27</text></g><g class="mark-rule role-axis-domain" pointer-events="none"><line transform="translate(0,0)" x2="760" y2="0" stroke="#9fa7b3" stroke-width="1" opacity="1"/></g><g class="mark-text role-axis-title" pointer-events="none"><text text-anchor="middle" transform="translate(380,29)" font-family="sans-serif" font-size="10px" font-weight="bold" fill="#9fa7b3" opacity="1">Time (UTC)</text></g></g><path class="foreground" aria-hidden="true" d="" pointer-events="none" display="none"/></g></g><g class="mark-group role-axis" role="graphics-symbol" aria-roledescription="axis" aria-label="Y-axis titled 'rejects/s' for a linear scale with values from 0 to 1"><g transform="translate(0.5,0.5)"><path class="background" aria-hidden="true" d="M0,0h0v0h0Z" pointer-events="none"/><g><g class="mark-rule role-axis-tick" pointer-events="none"><line transform="translate(0,160)" x2="-5" y2="0" stroke="#9fa7b3" stroke-width="1" opacity="1"/><line transform="translate(0,128)" x2="-5" y2="0" stroke="#9fa7b3" stroke-width="1" opacity="1"/><line transform="translate(0,96)" x2="-5" y2="0" stroke="#9fa7b3" stroke-width="1" opacity="1"/><line transform="translate(0,64)" x2="-5" y2="0" stroke="#9fa7b3" stroke-width="1" opacity="1"/><line transform="translate(0,32)" x2="-5" y2="0" stroke="#9fa7b3" stroke-width="1" opacity="1"/><line transform="translate(0,0)" x2="-5" y2="0" stroke="#9fa7b3" stroke-width="1" opacity="1"/></g><g class="mark-text role-axis-label" pointer-events="none"><text text-anchor="end" transform="translate(-7,163)" font-family="sans-serif" font-size="10px" fill="#9fa7b3" opacity="1">0</text><text text-anchor="end" transform="translate(-7,131)" font-family="sans-serif" font-size="10px" fill="#9fa7b3" opacity="1">0.2</text><text text-anchor="end" transform="translate(-7,99)" font-family="sans-serif" font-size="10px" fill="#9fa7b3" opacity="1">0.4</text><text text-anchor="end" transform="translate(-7,67)" font-family="sans-serif" font-size="10px" fill="#9fa7b3" opacity="1">0.6</text><text text-anchor="end" transform="translate(-7,34.99999999999999)" font-family="sans-serif" font-size="10px" fill="#9fa7b3" opacity="1">0.8</text><text text-anchor="end" transform="translate(-7,3)" font-family="sans-serif" font-size="10px" fill="#9fa7b3" opacity="1">1</text></g><g class="mark-rule role-axis-domain" pointer-events="none"><line transform="translate(0,160)" x2="0" y2="-160" stroke="#9fa7b3" stroke-width="1" opacity="1"/></g><g class="mark-text role-axis-title" pointer-events="none"><text text-anchor="middle" transform="translate(-35,80) rotate(-90) translate(0,-2)" font-family="sans-serif" font-size="10px" font-weight="bold" fill="#9fa7b3" opacity="1">rejects/s</text></g></g><path class="foreground" aria-hidden="true" d="" pointer-events="none" display="none"/></g></g><g class="mark-line role-mark layer_0_marks" role="graphics-object" aria-roledescription="line mark container"><path aria-label="ts: 09:52; value: 0" role="graphics-symbol" aria-roledescription="line mark" d="M5.266,160C7.075,160,8.885,160,10.694,160C12.504,160,14.313,160,16.123,160C17.932,160,19.742,160,21.551,160C23.361,160,25.17,160,26.98,160C28.789,160,30.599,160,32.408,160C34.218,160,36.027,160,37.837,160C39.646,160,41.456,160,43.265,160C45.075,160,46.884,160,48.693,160C50.503,160,52.312,160,54.122,160C55.931,160,57.741,160,59.55,160C61.36,160,63.169,160,64.979,160C66.788,160,68.598,160,70.407,160C72.217,160,74.026,160,75.836,160C77.645,160,79.455,160,81.264,160C83.074,160,84.883,160,86.693,160C88.502,160,90.312,160,92.121,160C93.93,160,95.74,160,97.549,160C99.359,160,101.168,160,102.978,160C104.787,160,106.597,160,108.406,160C110.216,160,112.025,160,113.835,160C115.644,160,117.454,160,119.263,160C121.073,160,122.882,160,124.692,160C126.501,160,128.311,160,130.12,160C131.93,160,133.739,160,135.548,160C137.358,160,139.167,160,140.977,160C142.786,160,144.596,160,146.405,160C148.215,160,150.024,160,151.834,160C153.643,160,155.453,160,157.262,160C159.072,160,160.881,160,162.691,160C164.5,160,166.31,160,168.119,160C169.929,160,171.738,160,173.548,160C175.357,160,177.167,160,178.976,160C180.785,160,182.595,160,184.404,160C186.214,160,188.023,160,189.833,160C191.642,160,193.452,160,195.261,160C197.071,160,198.88,160,200.69,160C202.499,160,204.309,160,206.118,160C207.928,160,209.737,160,211.547,160C213.356,160,215.166,160,216.975,160C218.785,160,220.594,160,222.404,160C224.213,160,226.022,160,227.832,160C229.641,160,231.451,160,233.26,160C235.07,160,236.879,160,238.689,160C240.498,160,242.308,160,244.117,160C245.927,160,247.736,160,249.546,160C251.355,160,253.165,160,254.974,160C256.784,160,258.593,160,260.403,160C262.212,160,264.022,160,265.831,160C267.641,160,269.45,160,271.259,160C273.069,160,274.878,160,276.688,160C278.497,160,280.307,160,282.116,160C283.926,160,285.735,160,287.545,160C289.354,160,291.164,160,292.973,160C294.783,160,296.592,160,298.402,160C300.211,160,302.021,160,303.83,160C305.64,160,307.449,160,309.259,160C311.068,160,312.878,160,314.687,160C316.496,160,318.306,160,320.115,160C321.925,160,323.734,160,325.544,160C327.353,160,329.163,160,330.972,160C332.782,160,334.591,160,336.401,160C338.21,160,340.02,160,341.829,160C343.639,160,345.448,160,347.258,160C349.067,160,350.877,160,352.686,160C354.496,160,356.305,160,358.115,160C359.924,160,361.733,160,363.543,160C365.352,160,367.162,160,368.971,160C370.781,160,372.59,160,374.4,160C376.209,160,378.019,160,379.828,160C381.638,160,383.447,160,385.257,160C387.066,160,388.876,160,390.685,160C392.495,160,394.304,160,396.114,160C397.923,160,399.733,160,401.542,160C403.352,160,405.161,160,406.97,160C408.78,160,410.589,160,412.399,160C414.208,160,416.018,160,417.827,160C419.637,160,421.446,160,423.256,160C425.065,160,426.875,160,428.684,160C430.494,160,432.303,160,434.113,160C435.922,160,437.732,160,439.541,160C441.351,160,443.16,160,444.97,160C446.779,160,448.589,160,450.398,160C452.207,160,454.017,160,455.826,160C457.636,160,459.445,160,461.255,160C463.064,160,464.874,160,466.683,160C468.493,160,470.302,160,472.112,160C473.921,160,475.731,160,477.54,160C479.35,160,481.159,160,482.969,160C484.778,160,486.588,160,488.397,160C490.207,160,492.016,160,493.826,160C495.635,160,497.444,160,499.254,160C501.063,160,502.873,160,504.682,160C506.492,160,508.301,160,510.111,160C511.92,160,513.73,160,515.539,160C517.349,160,519.158,160,520.968,160C522.777,160,524.587,160,526.396,160C528.206,160,530.015,160,531.825,160C533.634,160,535.444,160,537.253,160C539.063,160,540.872,160,542.681,160C544.491,160,546.3,160,548.11,160C549.919,160,551.729,160,553.538,160C555.348,160,557.157,160,558.967,160C560.776,160,562.586,160,564.395,160C566.205,160,568.014,160,569.824,160C571.633,160,573.443,160,575.252,160C577.062,160,578.871,160,580.681,160C582.49,160,584.3,160,586.109,160C587.918,160,589.728,160,591.537,160C593.347,160,595.156,160,596.966,160C598.775,160,600.585,160,602.394,160C604.204,160,606.013,160,607.823,160C609.632,160,611.442,160,613.251,160C615.061,160,616.87,160,618.68,160C620.489,160,622.299,160,624.108,160C625.918,160,627.727,160,629.537,160C631.346,160,633.155,160,634.965,160C636.774,160,638.584,160,640.393,160C642.203,160,644.012,160,645.822,160C647.631,160,649.441,160,651.25,160C653.06,160,654.869,160,656.679,160C658.488,160,660.298,160,662.107,160C663.917,160,665.726,160,667.536,160C669.345,160,671.155,160,672.964,160C674.773,160,676.583,160,678.392,160C680.202,160,682.011,160,683.821,160C685.63,160,687.44,160,689.249,160C691.059,160,692.868,160,694.678,160C696.487,160,698.297,160,700.106,160C701.916,160,703.725,160,705.535,160C707.344,160,709.154,160,710.963,160C712.773,160,714.582,160,716.392,160C718.201,160,720.01,160,721.82,160C723.629,160,725.439,160,727.248,160C729.058,160,730.867,160,732.677,160C734.486,160,736.296,160,738.105,160C739.915,160,741.724,160,743.534,160C745.343,160,747.153,160,748.962,160C750.772,160,752.581,160,754.391,160C756.2,160,758.01,160,759.819,160" stroke="#7EB26D" stroke-width="1.5"/></g><g class="mark-group role-title"><g transform="translate(-45,-26)"><path class="background" aria-hidden="true" d="M0,0h0v0h0Z" pointer-events="none"/><g><g class="mark-text role-title-text" role="graphics-symbol" aria-roledescription="title" aria-label="Title text 'Stream Backpressure Rejections'" pointer-events="none"><text text-anchor="start" transform="translate(0,10)" font-family="sans-serif" font-size="13px" font-weight="normal" fill="#d0d0d0" opacity="1">Stream Backpressure Rejections</text></g></g><path class="foreground" aria-hidden="true" d="" pointer-events="none" display="none"/></g></g></g><path class="foreground" aria-hidden="true" d="" display="none"/></g></g></g></svg>