<svg xmlns="http://www.w3.org/2000/svg" xmlns:xlink="http://www.w3.org/1999/xlink" version="1.1" class="marks" width="817" height="227" viewBox="0 0 817 227"><rect width="817" height="227" fill="#111217"/><g fill="none" stroke-miterlimit="10" transform="translate(50,31)"><g class="mark-group role-frame root" role="graphics-object" aria-roledescription="group mark container"><g transform="translate(0,0)"><path class="background" aria-hidden="true" d="M0.5,0.5h760v160h-760Z" fill="#181b1f"/><g><g class="mark-group role-axis" aria-hidden="true"><g transform="translate(0.5,160.5)"><path class="background" aria-hidden="true" d="M0,0h0v0h0Z" pointer-events="none"/><g><g class="mark-rule role-axis-grid" pointer-events="none"><line transform="translate(22,-160)" x2="0" y2="160" stroke="#2c3235" stroke-opacity="1" stroke-width="1" opacity="1"/><line transform="translate(43,-160)" x2="0" y2="160" stroke="#2c3235" stroke-opacity="1" stroke-width="1" opacity="1"/><line transform="translate(65,-160)" x2="0" y2="160" stroke="#2c3235" stroke-opacity="1" stroke-width="1" opacity="1"/><line transform="translate(87,-160)" x2="0" y2="160" stroke="#2c3235" stroke-opacity="1" stroke-width="1" opacity="1"/><line transform="translate(108,-160)" x2="0" y2="160" stroke="#2c3235" stroke-opacity="1" stroke-width="1" opacity="1"/><line transform="translate(130,-160)" x2="0" y2="160" stroke="#2c3235" stroke-opacity="1" stroke-width="1" opacity="1"/><line transform="translate(152,-160)" x2="0" y2="160" stroke="#2c3235" stroke-opacity="1" stroke-width="1" opacity="1"/><line transform="translate(174,-160)" x2="0" y2="160" stroke="#2c3235" stroke-opacity="1" stroke-width="1" opacity="1"/><line transform="translate(195,-160)" x2="0" y2="160" stroke="#2c3235" stroke-opacity="1" stroke-width="1" opacity="1"/><line transform="translate(217,-160)" x2="0" y2="160" stroke="#2c3235" stroke-opacity="1" stroke-width="1" opacity="1"/><line transform="translate(239,-160)" x2="0" y2="160" stroke="#2c3235" stroke-opacity="1" stroke-width="1" opacity="1"/><line transform="translate(260,-160)" x2="0" y2="160" stroke="#2c3235" stroke-opacity="1" stroke-width="1" opacity="1"/><line transform="translate(282,-160)" x2="0" y2="160" stroke="#2c3235" stroke-opacity="1" stroke-width="1" opacity="1"/><line transform="translate(304,-160)" x2="0" y2="160" stroke="#2c3235" stroke-opacity="1" stroke-width="1" opacity="1"/><line transform="translate(326,-160)" x2="0" y2="160" stroke="#2c3235" stroke-opacity="1" stroke-width="1" opacity="1"/><line transform="translate(347,-160)" x2="0" y2="160" stroke="#2c3235" stroke-opacity="1" stroke-width="1" opacity="1"/><line transform="translate(369,-160)" x2="0" y2="160" stroke="#2c3235" stroke-opacity="1" stroke-width="1" opacity="1"/><line transform="translate(391,-160)" x2="0" y2="160" stroke="#2c3235" stroke-opacity="1" stroke-width="1" opacity="1"/><line transform="translate(412,-160)" x2="0" y2="160" stroke="#2c3235" stroke-opacity="1" stroke-width="1" opacity="1"/><line transform="translate(434,-160)" x2="0" y2="160" stroke="#2c3235" stroke-opacity="1" stroke-width="1" opacity="1"/><line transform="translate(456,-160)" x2="0" y2="160" stroke="#2c3235" stroke-opacity="1" stroke-width="1" opacity="1"/><line transform="translate(478,-160)" x2="0" y2="160" stroke="#2c3235" stroke-opacity="1" stroke-width="1" opacity="1"/><line transform="translate(499,-160)" x2="0" y2="160" stroke="#2c3235" stroke-opacity="1" stroke-width="1" opacity="1"/><line transform="translate(521,-160)" x2="0" y2="160" stroke="#2c3235" stroke-opacity="1" stroke-width="1" opacity="1"/><line transform="translate(543,-160)" x2="0" y2="160" stroke="#2c3235" stroke-opacity="1" stroke-width="1" opacity="1"/><line transform="translate(564,-160)" x2="0" y2="160" stroke="#2c3235" stroke-opacity="1" stroke-width="1" opacity="1"/><line transform="translate(586,-160)" x2="0" y2="160" stroke="#2c3235" stroke-opacity="1" stroke-width="1" opacity="1"/><line transform="translate(608,-160)" x2="0" y2="160" stroke="#2c3235" stroke-opacity="1" stroke-width="1" opacity="1"/><line transform="translate(630,-160)" x2="0" y2="160" stroke="#2c3235" stroke-opacity="1" stroke-width="1" opacity="1"/><line transform="translate(651,-160)" x2="0" y2="160" stroke="#2c3235" stroke-opacity="1" stroke-width="1" opacity="1"/><line transform="translate(673,-160)" x2="0" y2="160" stroke="#2c3235" stroke-opacity="1" stroke-width="1" opacity="1"/><line transform="translate(695,-160)" x2="0" y2="160" stroke="#2c3235" stroke-opacity="1" stroke-width="1" opacity="1"/><line transform="translate(716,-160)" x2="0" y2="160" stroke="#2c3235" stroke-opacity="1" stroke-width="1" opacity="1"/><line transform="translate(738,-160)" x2="0" y2="160" stroke="#2c3235" stroke-opacity="1" stroke-width="1" opacity="1"/><line transform="translate(760,-160)" x2="0" y2="160" stroke="#2c3235" stroke-opacity="1" stroke-width="1" opacity="1"/></g></g><path class="foreground" aria-hidden="true" d="" pointer-events="none" display="none"/></g></g><g class="mark-group role-axis" aria-hidden="true"><g transform="translate(0.5,0.5)"><path class="background" aria-hidden="true" d="M0,0h0v0h0Z" pointer-events="none"/><g><g class="mark-rule role-axis-grid" pointer-events="none"><line transform="translate(0,160)" x2="760" y2="0" stroke="#2c3235" stroke-opacity="1" stroke-width="1" opacity="1"/><line transform="translate(0,120)" x2="760" y2="0" stroke="#2c3235" stroke-opacity="1" stroke-width="1" opacity="1"/><line transform="translate(0,80)" x2="760" y2="0" stroke="#2c3235" stroke-opacity="1" stroke-width="1" opacity="1"/><line transform="translate(0,40)" x2="760" y2="0" stroke="#2c3235" stroke-opacity="1" stroke-width="1" opacity="1"/><line transform="translate(0,0)" x2="760" y2="0" stroke="#2c3235" stroke-opacity="1" stroke-width="1" opacity="1"/></g></g><path class="foreground" aria-hidden="true" d="" pointer-events="none" display="none"/></g></g><g class="mark-group role-axis" role="graphics-symbol" aria-roledescription="axis" aria-label="X-axis titled 'Time (UTC)' for a time scale with values from 09:52 to 10:27"><g transform="translate(0.5,160.5)"><path class="background" aria-hidden="true" d="M0,0h0v0h0Z" pointer-events="none"/><g><g class="mark-rule role-axis-tick" pointer-events="none"><line transform="translate(22,0)" x2="0" y2="5" stroke="#9fa7b3" stroke-width="1" opacity="1"/><line transform="translate(43,0)" x2="0" y2="5" stroke="#9fa7b3" stroke-width="1" opacity="1"/><line transform="translate(65,0)" x2="0" y2="5" stroke="#9fa7b3" stroke-width="1" opacity="1"/><line transform="translate(87,0)" x2="0" y2="5" stroke="#9fa7b3" stroke-width="1" opacity="1"/><line transform="translate(108,0)" x2="0" y2="5" stroke="#9fa7b3" stroke-width="1" opacity="1"/><line transform="translate(130,0)" x2="0" y2="5" stroke="#9fa7b3" stroke-width="1" opacity="1"/><line transform="translate(152,0)" x2="0" y2="5" stroke="#9fa7b3" stroke-width="1" opacity="1"/><line transform="translate(174,0)" x2="0" y2="5" stroke="#9fa7b3" stroke-width="1" opacity="1"/><line transform="translate(195,0)" x2="0" y2="5" stroke="#9fa7b3" stroke-width="1" opacity="1"/><line transform="translate(217,0)" x2="0" y2="5" stroke="#9fa7b3" stroke-width="1" opacity="1"/><line transform="translate(239,0)" x2="0" y2="5" stroke="#9fa7b3" stroke-width="1" opacity="1"/><line transform="translate(260,0)" x2="0" y2="5" stroke="#9fa7b3" stroke-width="1" opacity="1"/><line transform="translate(282,0)" x2="0" y2="5" stroke="#9fa7b3" stroke-width="1" opacity="1"/><line transform="translate(304,0)" x2="0" y2="5" stroke="#9fa7b3" stroke-width="1" opacity="1"/><line transform="translate(326,0)" x2="0" y2="5" stroke="#9fa7b3" stroke-width="1" opacity="1"/><line transform="translate(347,0)" x2="0" y2="5" stroke="#9fa7b3" stroke-width="1" opacity="1"/><line transform="translate(369,0)" x2="0" y2="5" stroke="#9fa7b3" stroke-width="1" opacity="1"/><line transform="translate(391,0)" x2="0" y2="5" stroke="#9fa7b3" stroke-width="1" opacity="1"/><line transform="translate(412,0)" x2="0" y2="5" stroke="#9fa7b3" stroke-width="1" opacity="1"/><line transform="translate(434,0)" x2="0" y2="5" stroke="#9fa7b3" stroke-width="1" opacity="1"/><line transform="translate(456,0)" x2="0" y2="5" stroke="#9fa7b3" stroke-width="1" opacity="1"/><line transform="translate(478,0)" x2="0" y2="5" stroke="#9fa7b3" stroke-width="1" opacity="1"/><line transform="translate(499,0)" x2="0" y2="5" stroke="#9fa7b3" stroke-width="1" opacity="1"/><line transform="translate(521,0)" x2="0" y2="5" stroke="#9fa7b3" stroke-width="1" opacity="1"/><line transform="translate(543,0)" x2="0" y2="5" stroke="#9fa7b3" stroke-width="1" opacity="1"/><line transform="translate(564,0)" x2="0" y2="5" stroke="#9fa7b3" stroke-width="1" opacity="1"/><line transform="translate(586,0)" x2="0" y2="5" stroke="#9fa7b3" stroke-width="1" opacity="1"/><line transform="translate(608,0)" x2="0" y2="5" stroke="#9fa7b3" stroke-width="1" opacity="1"/><line transform="translate(630,0)" x2="0" y2="5" stroke="#9fa7b3" stroke-width="1" opacity="1"/><line transform="translate(651,0)" x2="0" y2="5" stroke="#9fa7b3" stroke-width="1" opacity="1"/><line transform="translate(673,0)" x2="0" y2="5" stroke="#9fa7b3" stroke-width="1" opacity="1"/><line transform="translate(695,0)" x2="0" y2="5" stroke="#9fa7b3" stroke-width="1" opacity="1"/><line transform="translate(716,0)" x2="0" y2="5" stroke="#9fa7b3" stroke-width="1" opacity="1"/><line transform="translate(738,0)" x2="0" y2="5" stroke="#9fa7b3" stroke-width="1" opacity="1"/><line transform="translate(760,0)" x2="0" y2="5" stroke="#9fa7b3" stroke-width="1" opacity="1"/></g><g class="mark-text role-axis-label" pointer-events="none"><text text-anchor="middle" transform="translate(21.551267088275477,15)" font-family="sans-serif" font-size="10px" fill="#9fa7b3" opacity="1">09:53</text><text text-anchor="middle" transform="translate(43.2650254684291,15)" font-family="sans-serif" font-size="10px" fill="#9fa7b3" opacity="0">09:54</text><text text-anchor="middle" transform="translate(64.97878384858272,15)" font-family="sans-serif" font-size="10px" fill="#9fa7b3" opacity="0">09:55</text><text text-anchor="middle" transform="translate(86.69254222873634,15)" font-family="sans-serif" font-size="10px" fill="#9fa7b3" opacity="0">09:56</text><text text-anchor="middle" transform="translate(108.40630060888998,15)" font-family="sans-serif" font-size="10px" fill="#9fa7b3" opacity="1">09:57</text><text text-anchor="middle" transform="translate(130.1200589890436,15)" font-family="sans-serif" font-size="10px" fill="#9fa7b3" opacity="0">09:58</text><text text-anchor="middle" transform="translate(151.83381736919722,15)" font-family="sans-serif" font-size="10px" fill="#9fa7b3" opacity="0">09:59</text><text text-anchor="middle" transform="translate(173.54757574935084,15)" font-family="sans-serif" font-size="10px" fill="#9fa7b3" opacity="0">10:00</text><text text-anchor="middle" transform="translate(195.26133412950446,15)" font-family="sans-serif" font-size="10px" fill="#9fa7b3" opacity="1">10:01</text><text text-anchor="middle" transform="translate(216.97509250965808,15)" font-family="sans-serif" font-size="10px" fill="#9fa7b3" opacity="0">10:02</text><text text-anchor="middle" transform="translate(238.68885088981173,15)" font-family="sans-serif" font-size="10px" fill="#9fa7b3" opacity="0">10:03</text><text text-anchor="middle" transform="translate(260.40260926996535,15)" font-family="sans-serif" font-size="10px" fill="#9fa7b3" opacity="0">10:04</text><text text-anchor="middle" transform="translate(282.116367650119,15)" font-family="sans-serif" font-size="10px" fill="#9fa7b3" opacity="1">10:05</text><text text-anchor="middle" transform="translate(303.8301260302726,15)" font-family="sans-serif" font-size="10px" fill="#9fa7b3" opacity="0">10:06</text><text text-anchor="middle" transform="translate(325.5438844104262,15)" font-family="sans-serif" font-size="10px" fill="#9fa7b3" opacity="0">10:07</text><text text-anchor="middle" transform="translate(347.25764279057984,15)" font-family="sans-serif" font-size="10px" fill="#9fa7b3" opacity="0">10:08</text><text text-anchor="middle" transform="translate(368.9714011707335,15)" font-family="sans-serif" font-size="10px" fill="#9fa7b3" opacity="1">10:09</text><text text-anchor="middle" transform="translate(390.6851595508871,15)" font-family="sans-serif" font-size="10px" fill="#9fa7b3" opacity="0">10:10</text><text text-anchor="middle" transform="translate(412.39891793104067,15)" font-family="sans-serif" font-size="10px" fill="#9fa7b3" opacity="0">10:11</text><text text-anchor="middle" transform="translate(434.1126763111943,15)" font-family="sans-serif" font-size="10px" fill="#9fa7b3" opacity="0">10:12</text><text text-anchor="middle" transform="translate(455.82643469134797,15)" font-family="sans-serif" font-size="10px" fill="#9fa7b3" opacity="1">10:13</text><text text-anchor="middle" transform="translate(477.54019307150156,15)" font-family="sans-serif" font-size="10px" fill="#9fa7b3" opacity="0">10:14</text><text text-anchor="middle" transform="translate(499.2539514516552,15)" font-family="sans-serif" font-size="10px" fill="#9fa7b3" opacity="0">10:15</text><text text-anchor="middle" transform="translate(520.9677098318089,15)" font-family="sans-serif" font-size="10px" fill="#9fa7b3" opacity="0">10:16</text><text text-anchor="middle" transform="translate(542.6814682119625,15)" font-family="sans-serif" font-size="10px" fill="#9fa7b3" opacity="1">10:17</text><text text-anchor="middle" transform="translate(564.3952265921162,15)" font-family="sans-serif" font-size="10px" fill="#9fa7b3" opacity="0">10:18</text><text text-anchor="middle" transform="translate(586.1089849722697,15)" font-family="sans-serif" font-size="10px" fill="#9fa7b3" opacity="0">10:19</text><text text-anchor="middle" transform="translate(607.8227433524233,15)" font-family="sans-serif" font-size="10px" fill="#9fa7b3" opacity="0">10:20</text><text text-anchor="middle" transform="translate(629.536501732577,15)" font-family="sans-serif" font-size="10px" fill="#9fa7b3" opacity="1">10:21</text><text text-anchor="middle" transform="translate(651.2502601127305,15)" font-family="sans-serif" font-size="10px" fill="#9fa7b3" opacity="0">10:22</text><text text-anchor="middle" transform="translate(672.9640184928842,15)" font-family="sans-serif" font-size="10px" fill="#9fa7b3" opacity="0">10:23</text><text text-anchor="middle" transform="translate(694.6777768730378,15)" font-family="sans-serif" font-size="10px" fill="#9fa7b3" opacity="0">10:24</text><text text-anchor="middle" transform="translate(716.3915352531915,15)" font-family="sans-serif" font-size="10px" fill="#9fa7b3" opacity="1">10:25</text><text text-anchor="middle" transform="translate(738.1052936333451,15)" font-family="sans-serif" font-size="10px" fill="#9fa7b3" opacity="0">10:26</text><text text-anchor="end" transform="translate(759.8190520134987,15)" font-family="sans-serif" font-size="10px" fill="#9fa7b3" opacity="0">10:27</text></g><g class="mark-rule role-axis-domain" pointer-events="none"><line transform="translate(0,0)" x2="760" y2="0" stroke="#9fa7b3" stroke-width="1" opacity="1"/></g><g class="mark-text role-axis-title" pointer-events="none"><text text-anchor="middle" transform="translate(380,29)" font-family="sans-serif" font-size="10px" font-weight="bold" fill="#9fa7b3" opacity="1">Time (UTC)</text></g></g><path class="foreground" aria-hidden="true" d="" pointer-events="none" display="none"/></g></g><g class="mark-group role-axis" role="graphics-symbol" aria-roledescription="axis" aria-label="Y-axis titled 'txs' for a linear scale with values from 0 to 400"><g transform="translate(0.5,0.5)"><path class="background" aria-hidden="true" d="M0,0h0v0h0Z" pointer-events="none"/><g><g class="mark-rule role-axis-tick" pointer-events="none"><line transform="translate(0,160)" x2="-5" y2="0" stroke="#9fa7b3" stroke-width="1" opacity="1"/><line transform="translate(0,120)" x2="-5" y2="0" stroke="#9fa7b3" stroke-width="1" opacity="1"/><line transform="translate(0,80)" x2="-5" y2="0" stroke="#9fa7b3" stroke-width="1" opacity="1"/><line transform="translate(0,40)" x2="-5" y2="0" stroke="#9fa7b3" stroke-width="1" opacity="1"/><line transform="translate(0,0)" x2="-5" y2="0" stroke="#9fa7b3" stroke-width="1" opacity="1"/></g><g class="mark-text role-axis-label" pointer-events="none"><text text-anchor="end" transform="translate(-7,163)" font-family="sans-serif" font-size="10px" fill="#9fa7b3" opacity="1">0</text><text text-anchor="end" transform="translate(-7,123)" font-family="sans-serif" font-size="10px" fill="#9fa7b3" opacity="1">100</text><text text-anchor="end" transform="translate(-7,83)" font-family="sans-serif" font-size="10px" fill="#9fa7b3" opacity="1">200</text><text text-anchor="end" transform="translate(-7,43)" font-family="sans-serif" font-size="10px" fill="#9fa7b3" opacity="1">300</text><text text-anchor="end" transform="translate(-7,3)" font-family="sans-serif" font-size="10px" fill="#9fa7b3" opacity="1">400</text></g><g class="mark-rule role-axis-domain" pointer-events="none"><line transform="translate(0,160)" x2="0" y2="-160" stroke="#9fa7b3" stroke-width="1" opacity="1"/></g><g class="mark-text role-axis-title" pointer-events="none"><text text-anchor="middle" transform="translate(-35,80) rotate(-90) translate(0,-2)" font-family="sans-serif" font-size="10px" font-weight="bold" fill="#9fa7b3" opacity="1">txs</text></g></g><path class="foreground" aria-hidden="true" d="" pointer-events="none" display="none"/></g></g><g class="mark-line role-mark layer_0_marks" role="graphics-object" aria-roledescription="line mark container"><path aria-label="ts: 09:52; value: 0" role="graphics-symbol" aria-roledescription="line mark" d="M-0.162,160C1.647,152.175,3.456,144.35,5.266,134.96C7.075,125.57,8.885,114.093,10.694,103.66C12.504,93.227,14.313,82.793,16.123,72.36C17.932,61.927,19.742,50.375,21.551,41.06C23.361,31.745,25.17,16.469,26.98,16.469C28.789,16.469,30.599,34.017,32.408,34.017C34.218,34.017,36.027,24.995,37.837,24.995C39.646,24.995,41.456,28.999,43.265,32.463C45.075,35.927,46.884,45.779,48.693,45.779C50.503,45.779,52.312,42.407,54.122,38.315C55.931,34.222,57.741,21.225,59.55,21.225C61.36,21.225,63.169,21.376,64.979,21.68C66.788,21.983,68.598,38.285,70.407,38.285C72.217,38.285,74.026,16.02,75.836,16.02C77.645,16.02,79.455,16.02,81.264,16.02C83.074,16.02,84.883,33.156,86.693,33.156C88.502,33.156,90.312,22.497,92.121,22.497C93.93,22.497,95.74,23.375,97.549,23.375C99.359,23.375,101.168,22.977,102.978,22.977C104.787,22.977,106.597,25.854,108.406,26.974C110.216,28.094,112.025,27.881,113.835,29.695C115.644,31.508,117.454,43.948,119.263,43.948C121.073,43.948,122.882,32.576,124.692,32.576C126.501,32.576,128.311,53.58,130.12,53.58C131.93,53.58,133.739,38.637,135.548,33.834C137.358,29.032,139.167,24.765,140.977,24.765C142.786,24.765,144.596,38.251,146.405,42.175C148.215,46.099,150.024,48.307,151.834,48.307C153.643,48.307,155.453,34.223,157.262,29.24C159.072,24.256,160.881,18.405,162.691,18.405C164.5,18.405,166.31,40.579,168.119,40.579C169.929,40.579,171.738,39.814,173.548,38.942C175.357,38.071,177.167,35.352,178.976,35.352C180.785,35.352,182.595,53.58,184.404,53.58C186.214,53.58,188.023,41.085,189.833,37.657C191.642,34.229,193.452,33.811,195.261,32.515C197.071,31.219,198.88,29.883,200.69,29.883C202.499,29.883,204.309,44.575,206.118,44.575C207.928,44.575,209.737,42.297,211.547,37.742C213.356,33.187,215.166,16.469,216.975,16.469C218.785,16.469,220.594,36.227,222.404,41.709C224.213,47.191,226.022,49.931,227.832,49.931C229.641,49.931,231.451,16.02,233.26,16.02C235.07,16.02,236.879,23.722,238.689,26.209C240.498,28.697,242.308,30.943,244.117,30.943C245.927,30.943,247.736,26.518,249.546,26.518C251.355,26.518,253.165,44.677,254.974,44.677C256.784,44.677,258.593,16.02,260.403,16.02C262.212,16.02,264.022,30.91,265.831,36.067C267.641,41.224,269.45,44.112,271.259,46.963C273.069,49.815,274.878,53.176,276.688,53.176C278.497,53.176,280.307,21.583,282.116,21.583C283.926,21.583,285.735,49.217,287.545,49.217C289.354,49.217,291.164,28.551,292.973,28.551C294.783,28.551,296.592,37.873,298.402,39.836C300.211,41.799,302.021,42.78,303.83,42.78C305.64,42.78,307.449,35.027,309.259,35.027C311.068,35.027,312.878,39.219,314.687,39.219C316.496,39.219,318.306,28.11,320.115,28.11C321.925,28.11,323.734,51.556,325.544,51.556C327.353,51.556,329.163,16.657,330.972,16.657C332.782,16.657,334.591,18.094,336.401,20.897C338.21,23.699,340.02,30.494,341.829,33.47C343.639,36.446,345.448,38.753,347.258,38.753C349.067,38.753,350.877,26.898,352.686,26.898C354.496,26.898,356.305,27.23,358.115,27.894C359.924,28.558,361.733,45.119,363.543,45.119C365.352,45.119,367.162,36.46,368.971,36.46C370.781,36.46,372.59,53.58,374.4,53.58C376.209,53.58,378.019,16.02,379.828,16.02C381.638,16.02,383.447,53.58,385.257,53.58C387.066,53.58,388.876,27.409,390.685,27.409C392.495,27.409,394.304,35.361,396.114,37.19C397.923,39.019,399.733,39.934,401.542,39.934C403.352,39.934,405.161,23.475,406.97,23.475C408.78,23.475,410.589,30.371,412.399,30.371C414.208,30.371,416.018,24.974,417.827,24.974C419.637,24.974,421.446,29.421,423.256,29.421C425.065,29.421,426.875,16.02,428.684,16.02C430.494,16.02,432.303,48.933,434.113,48.933C435.922,48.933,437.732,45.555,439.541,40.99C441.351,36.424,443.16,21.54,444.97,21.54C446.779,21.54,448.589,42.839,450.398,42.839C452.207,42.839,454.017,16.02,455.826,16.02C457.636,16.02,459.445,48.491,461.255,48.491C463.064,48.491,464.874,47.984,466.683,47.456C468.493,46.928,470.302,45.325,472.112,45.325C473.921,45.325,475.731,46.552,477.54,46.552C479.35,46.552,481.159,32.334,482.969,32.334C484.778,32.334,486.588,36.453,488.397,36.453C490.207,36.453,492.016,35.615,493.826,33.94C495.635,32.265,497.444,16.049,499.254,16.049C501.063,16.049,502.873,44.672,504.682,44.672C506.492,44.672,508.301,19.422,510.111,19.422C511.92,19.422,513.73,22.765,515.539,26.408C517.349,30.052,519.158,37.576,520.968,41.282C522.777,44.988,524.587,48.645,526.396,48.645C528.206,48.645,530.015,26.401,531.825,26.387C533.634,26.373,535.444,26.366,537.253,26.366C539.063,26.366,540.872,30.37,542.681,30.37C544.491,30.37,546.3,23.56,548.11,23.56C549.919,23.56,551.729,28.837,553.538,28.996C555.348,29.155,557.157,29.234,558.967,29.234C560.776,29.234,562.586,16.02,564.395,16.02C566.205,16.02,568.014,36.985,569.824,36.985C571.633,36.985,573.443,29.687,575.252,29.687C577.062,29.687,578.871,51.276,580.681,51.276C582.49,51.276,584.3,39.708,586.109,35.353C587.918,30.997,589.728,25.142,591.537,25.142C593.347,25.142,595.156,49.52,596.966,49.52C598.775,49.52,600.585,48.632,602.394,46.996C604.204,45.361,606.013,39.709,607.823,39.709C609.632,39.709,611.442,45.818,613.251,47.899C615.061,49.98,616.87,52.195,618.68,52.195C620.489,52.195,622.299,25.001,624.108,25.001C625.918,25.001,627.727,25.104,629.537,25.308C631.346,25.513,633.155,37.66,634.965,37.66C636.774,37.66,638.584,30.46,640.393,30.46C642.203,30.46,644.012,33.676,645.822,35.242C647.631,36.809,649.441,37.966,651.25,39.859C653.06,41.751,654.869,44.312,656.679,46.594C658.488,48.877,660.298,51.25,662.107,53.555C663.917,55.861,665.726,57.404,667.536,60.425C669.345,63.446,671.155,67.479,672.964,71.68C674.773,75.88,676.583,80.418,678.392,85.629C680.202,90.84,682.011,99.087,683.821,102.945C685.63,106.804,687.44,105.933,689.249,108.781C691.059,111.629,692.868,116.373,694.678,120.033C696.487,123.694,698.297,126.96,700.106,130.744C701.916,134.527,703.725,138.975,705.535,142.736C707.344,146.497,709.154,150.433,710.963,153.31C712.773,156.187,714.582,160,716.392,160C718.201,160,720.01,160,721.82,160C723.629,160,725.439,160,727.248,160C729.058,160,730.867,160,732.677,160C734.486,160,736.296,160,738.105,160C739.915,160,741.724,160,743.534,160C745.343,160,747.153,160,748.962,160C750.772,160,752.581,160,754.391,160C756.2,160,758.01,160,759.819,160" stroke="#7EB26D" stroke-width="1.5"/></g><g class="mark-group role-title"><g transform="translate(-45,-26)"><path class="background" aria-hidden="true" d="M0,0h0v0h0Z" pointer-events="none"/><g><g class="mark-text role-title-text" role="graphics-symbol" aria-roledescription="title" aria-label="Title text 'Midgard Transactions in Queue'" pointer-events="none"><text text-anchor="start" transform="translate(0,10)" font-family="sans-serif" font-size="13px" font-weight="normal" fill="#d0d0d0" opacity="1">Midgard Transactions in Queue</text></g></g><path class="foreground" aria-hidden="true" d="" pointer-events="none" display="none"/></g></g></g><path class="foreground" aria-hidden="true" d="" display="none"/></g></g></g></svg>