<svg xmlns="http://www.w3.org/2000/svg" xmlns:xlink="http://www.w3.org/1999/xlink" version="1.1" class="marks" width="842" height="227" viewBox="0 0 842 227"><rect width="842" height="227" fill="#111217"/><g fill="none" stroke-miterlimit="10" transform="translate(58,31)"><g class="mark-group role-frame root" role="graphics-object" aria-roledescription="group mark container"><g transform="translate(0,0)"><path class="background" aria-hidden="true" d="M0.5,0.5h760v160h-760Z" fill="#181b1f"/><g><g class="mark-group role-axis" aria-hidden="true"><g transform="translate(0.5,160.5)"><path class="background" aria-hidden="true" d="M0,0h0v0h0Z" pointer-events="none"/><g><g class="mark-rule role-axis-grid" pointer-events="none"><line transform="translate(41,-160)" x2="0" y2="160" stroke="#2c3235" stroke-opacity="1" stroke-width="1" opacity="1"/><line transform="translate(83,-160)" x2="0" y2="160" stroke="#2c3235" stroke-opacity="1" stroke-width="1" opacity="1"/><line transform="translate(126,-160)" x2="0" y2="160" stroke="#2c3235" stroke-opacity="1" stroke-width="1" opacity="1"/><line transform="translate(168,-160)" x2="0" y2="160" stroke="#2c3235" stroke-opacity="1" stroke-width="1" opacity="1"/><line transform="translate(210,-160)" x2="0" y2="160" stroke="#2c3235" stroke-opacity="1" stroke-width="1" opacity="1"/><line transform="translate(252,-160)" x2="0" y2="160" stroke="#2c3235" stroke-opacity="1" stroke-width="1" opacity="1"/><line transform="translate(294,-160)" x2="0" y2="160" stroke="#2c3235" stroke-opacity="1" stroke-width="1" opacity="1"/><line transform="translate(337,-160)" x2="0" y2="160" stroke="#2c3235" stroke-opacity="1" stroke-width="1" opacity="1"/><line transform="translate(379,-160)" x2="0" y2="160" stroke="#2c3235" stroke-opacity="1" stroke-width="1" opacity="1"/><line transform="translate(421,-160)" x2="0" y2="160" stroke="#2c3235" stroke-opacity="1" stroke-width="1" opacity="1"/><line transform="translate(463,-160)" x2="0" y2="160" stroke="#2c3235" stroke-opacity="1" stroke-width="1" opacity="1"/><line transform="translate(505,-160)" x2="0" y2="160" stroke="#2c3235" stroke-opacity="1" stroke-width="1" opacity="1"/><line transform="translate(548,-160)" x2="0" y2="160" stroke="#2c3235" stroke-opacity="1" stroke-width="1" opacity="1"/><line transform="translate(590,-160)" x2="0" y2="160" stroke="#2c3235" stroke-opacity="1" stroke-width="1" opacity="1"/><line transform="translate(632,-160)" x2="0" y2="160" stroke="#2c3235" stroke-opacity="1" stroke-width="1" opacity="1"/><line transform="translate(674,-160)" x2="0" y2="160" stroke="#2c3235" stroke-opacity="1" stroke-width="1" opacity="1"/><line transform="translate(716,-160)" x2="0" y2="160" stroke="#2c3235" stroke-opacity="1" stroke-width="1" opacity="1"/><line transform="translate(759,-160)" x2="0" y2="160" stroke="#2c3235" stroke-opacity="1" stroke-width="1" opacity="1"/></g></g><path class="foreground" aria-hidden="true" d="" pointer-events="none" display="none"/></g></g><g class="mark-group role-axis" aria-hidden="true"><g transform="translate(0.5,0.5)"><path class="background" aria-hidden="true" d="M0,0h0v0h0Z" pointer-events="none"/><g><g class="mark-rule role-axis-grid" pointer-events="none"><line transform="translate(0,160)" x2="760" y2="0" stroke="#2c3235" stroke-opacity="1" stroke-width="1" opacity="1"/><line transform="translate(0,107)" x2="760" y2="0" stroke="#2c3235" stroke-opacity="1" stroke-width="1" opacity="1"/><line transform="translate(0,53)" x2="760" y2="0" stroke="#2c3235" stroke-opacity="1" stroke-width="1" opacity="1"/><line transform="translate(0,0)" x2="760" y2="0" stroke="#2c3235" stroke-opacity="1" stroke-width="1" opacity="1"/></g></g><path class="foreground" aria-hidden="true" d="" pointer-events="none" display="none"/></g></g><g class="mark-group role-axis" role="graphics-symbol" aria-roledescription="axis" aria-label="X-axis titled 'Time (UTC)' for a time scale with values from 14:18 to 14:36"><g transform="translate(0.5,160.5)"><path class="background" aria-hidden="true" d="M0,0h0v0h0Z" pointer-events="none"/><g><g class="mark-rule role-axis-tick" pointer-events="none"><line transform="translate(41,0)" x2="0" y2="5" stroke="#9fa7b3" stroke-width="1" opacity="1"/><line transform="translate(83,0)" x2="0" y2="5" stroke="#9fa7b3" stroke-width="1" opacity="1"/><line transform="translate(126,0)" x2="0" y2="5" stroke="#9fa7b3" stroke-width="1" opacity="1"/><line transform="translate(168,0)" x2="0" y2="5" stroke="#9fa7b3" stroke-width="1" opacity="1"/><line transform="translate(210,0)" x2="0" y2="5" stroke="#9fa7b3" stroke-width="1" opacity="1"/><line transform="translate(252,0)" x2="0" y2="5" stroke="#9fa7b3" stroke-width="1" opacity="1"/><line transform="translate(294,0)" x2="0" y2="5" stroke="#9fa7b3" stroke-width="1" opacity="1"/><line transform="translate(337,0)" x2="0" y2="5" stroke="#9fa7b3" stroke-width="1" opacity="1"/><line transform="translate(379,0)" x2="0" y2="5" stroke="#9fa7b3" stroke-width="1" opacity="1"/><line transform="translate(421,0)" x2="0" y2="5" stroke="#9fa7b3" stroke-width="1" opacity="1"/><line transform="translate(463,0)" x2="0" y2="5" stroke="#9fa7b3" stroke-width="1" opacity="1"/><line transform="translate(505,0)" x2="0" y2="5" stroke="#9fa7b3" stroke-width="1" opacity="1"/><line transform="translate(548,0)" x2="0" y2="5" stroke="#9fa7b3" stroke-width="1" opacity="1"/><line transform="translate(590,0)" x2="0" y2="5" stroke="#9fa7b3" stroke-width="1" opacity="1"/><line transform="translate(632,0)" x2="0" y2="5" stroke="#9fa7b3" stroke-width="1" opacity="1"/><line transform="translate(674,0)" x2="0" y2="5" stroke="#9fa7b3" stroke-width="1" opacity="1"/><line transform="translate(716,0)" x2="0" y2="5" stroke="#9fa7b3" stroke-width="1" opacity="1"/><line transform="translate(759,0)" x2="0" y2="5" stroke="#9fa7b3" stroke-width="1" opacity="1"/></g><g class="mark-text role-axis-label" pointer-events="none"><text text-anchor="middle" transform="translate(41.252774060521254,15)" font-family="sans-serif" font-size="10px" fill="#9fa7b3" opacity="1">14:19</text><text text-anchor="middle" transform="translate(83.45366138970483,15)" font-family="sans-serif" font-size="10px" fill="#9fa7b3" opacity="1">14:20</text><text text-anchor="middle" transform="translate(125.65454871888842,15)" font-family="sans-serif" font-size="10px" fill="#9fa7b3" opacity="1">14:21</text><text text-anchor="middle" transform="translate(167.855436048072,15)" font-family="sans-serif" font-size="10px" fill="#9fa7b3" opacity="1">14:22</text><text text-anchor="middle" transform="translate(210.05632337725555,15)" font-family="sans-serif" font-size="10px" fill="#9fa7b3" opacity="1">14:23</text><text text-anchor="middle" transform="translate(252.25721070643917,15)" font-family="sans-serif" font-size="10px" fill="#9fa7b3" opacity="1">14:24</text><text text-anchor="middle" transform="translate(294.4580980356227,15)" font-family="sans-serif" font-size="10px" fill="#9fa7b3" opacity="1">14:25</text><text text-anchor="middle" transform="translate(336.6589853648063,15)" font-family="sans-serif" font-size="10px" fill="#9fa7b3" opacity="1">14:26</text><text text-anchor="middle" transform="translate(378.85987269398987,15)" font-family="sans-serif" font-size="10px" fill="#9fa7b3" opacity="1">14:27</text><text text-anchor="middle" transform="translate(421.0607600231735,15)" font-family="sans-serif" font-size="10px" fill="#9fa7b3" opacity="1">14:28</text><text text-anchor="middle" transform="translate(463.2616473523571,15)" font-family="sans-serif" font-size="10px" fill="#9fa7b3" opacity="1">14:29</text><text text-anchor="middle" transform="translate(505.4625346815406,15)" font-family="sans-serif" font-size="10px" fill="#9fa7b3" opacity="1">14:30</text><text text-anchor="middle" transform="translate(547.6634220107242,15)" font-family="sans-serif" font-size="10px" fill="#9fa7b3" opacity="1">14:31</text><text text-anchor="middle" transform="translate(589.8643093399078,15)" font-family="sans-serif" font-size="10px" fill="#9fa7b3" opacity="1">14:32</text><text text-anchor="middle" transform="translate(632.0651966690913,15)" font-family="sans-serif" font-size="10px" fill="#9fa7b3" opacity="1">14:33</text><text text-anchor="middle" transform="translate(674.2660839982749,15)" font-family="sans-serif" font-size="10px" fill="#9fa7b3" opacity="1">14:34</text><text text-anchor="middle" transform="translate(716.4669713274585,15)" font-family="sans-serif" font-size="10px" fill="#9fa7b3" opacity="1">14:35</text><text text-anchor="middle" transform="translate(758.6678586566421,15)" font-family="sans-serif" font-size="10px" fill="#9fa7b3" opacity="1">14:36</text></g><g class="mark-rule role-axis-domain" pointer-events="none"><line transform="translate(0,0)" x2="760" y2="0" stroke="#9fa7b3" stroke-width="1" opacity="1"/></g><g class="mark-text role-axis-title" pointer-events="none"><text text-anchor="middle" transform="translate(380,29)" font-family="sans-serif" font-size="10px" font-weight="bold" fill="#9fa7b3" opacity="1">Time (UTC)</text></g></g><path class="foreground" aria-hidden="true" d="" pointer-events="none" display="none"/></g></g><g class="mark-group role-axis" role="graphics-symbol" aria-roledescription="axis" aria-label="Y-axis titled 'tx' for a linear scale with values from 0k to 300k"><g transform="translate(0.5,0.5)"><path class="background" aria-hidden="true" d="M0,0h0v0h0Z" pointer-events="none"/><g><g class="mark-rule role-axis-tick" pointer-events="none"><line transform="translate(0,160)" x2="-5" y2="0" stroke="#9fa7b3" stroke-width="1" opacity="1"/><line transform="translate(0,107)" x2="-5" y2="0" stroke="#9fa7b3" stroke-width="1" opacity="1"/><line transform="translate(0,53)" x2="-5" y2="0" stroke="#9fa7b3" stroke-width="1" opacity="1"/><line transform="translate(0,0)" x2="-5" y2="0" stroke="#9fa7b3" stroke-width="1" opacity="1"/></g><g class="mark-text role-axis-label" pointer-events="none"><text text-anchor="end" transform="translate(-7,163)" font-family="sans-serif" font-size="10px" fill="#9fa7b3" opacity="1">0k</text><text text-anchor="end" transform="translate(-7,109.66666666666669)" font-family="sans-serif" font-size="10px" fill="#9fa7b3" opacity="1">100k</text><text text-anchor="end" transform="translate(-7,56.33333333333334)" font-family="sans-serif" font-size="10px" fill="#9fa7b3" opacity="1">200k</text><text text-anchor="end" transform="translate(-7,3)" font-family="sans-serif" font-size="10px" fill="#9fa7b3" opacity="1">300k</text></g><g class="mark-rule role-axis-domain" pointer-events="none"><line transform="translate(0,160)" x2="0" y2="-160" stroke="#9fa7b3" stroke-width="1" opacity="1"/></g><g class="mark-text role-axis-title" pointer-events="none"><text text-anchor="middle" transform="translate(-43,80) rotate(-90) translate(0,-2)" font-family="sans-serif" font-size="10px" font-weight="bold" fill="#9fa7b3" opacity="1">tx</text></g></g><path class="foreground" aria-hidden="true" d="" pointer-events="none" display="none"/></g></g><g class="mark-line role-mark layer_0_marks" role="graphics-object" aria-roledescription="line mark container"><path aria-label="ts: 14:18; value: 0" role="graphics-symbol" aria-roledescription="line mark" d="M0,160C3.517,159.805,7.033,159.61,10.55,159.364C14.067,159.118,17.584,158.804,21.1,158.524C24.617,158.244,28.134,157.964,31.651,157.684C35.167,157.404,38.684,157.124,42.201,156.844C45.718,156.564,49.234,156.284,52.751,156.004C56.268,155.724,59.785,155.444,63.301,155.164C66.818,154.884,70.335,154.604,73.852,154.324C77.368,154.044,80.885,153.764,84.402,153.484C87.919,153.204,91.435,152.924,94.952,152.644C98.469,152.364,101.985,152.084,105.502,151.804C109.019,151.524,112.536,151.244,116.052,150.964C119.569,150.684,123.086,150.206,126.603,150.124C130.119,150.042,133.636,150.002,137.153,150.002C140.67,150.002,144.186,150.002,147.703,150.002C151.22,150.002,154.737,150.002,158.253,150.002C161.77,150.002,165.287,150.002,168.804,150.002C172.32,150.002,175.837,150.002,179.354,150.002C182.871,150.002,186.387,150.002,189.904,150.002C189.952,150.002,190,150.002,190.048,150.002C193.565,150.002,197.082,149.234,200.598,148.745C204.115,148.256,207.632,147.625,211.149,147.065C214.665,146.505,218.182,145.945,221.699,145.385C225.216,144.825,228.732,144.265,232.249,143.705C235.766,143.145,239.283,142.585,242.799,142.025C246.316,141.465,249.833,140.905,253.35,140.345C256.866,139.785,260.383,139.225,263.9,138.665C267.416,138.105,270.933,137.545,274.45,136.985C277.967,136.425,281.483,135.865,285,135.305C288.517,134.745,292.034,134.185,295.55,133.625C299.067,133.065,302.584,132.505,306.101,131.945C309.617,131.385,313.134,130.441,316.651,130.265C320.168,130.089,323.684,130.001,327.201,130.001C330.718,130.001,334.235,130.001,337.751,130.001C341.268,130.001,344.785,130.001,348.302,130.001C351.818,130.001,355.335,130.001,358.852,130.001C362.368,130.001,365.885,130.001,369.402,130.001C372.919,130.001,376.435,130.001,379.952,130.001C379.993,130.001,380.034,130.001,380.075,130.001C383.591,130.001,387.108,128.504,390.625,127.533C394.142,126.561,397.658,125.292,401.175,124.172C404.692,123.052,408.208,121.933,411.725,120.813C415.242,119.693,418.759,118.573,422.275,117.453C425.792,116.333,429.309,115.212,432.826,114.092C436.342,112.972,439.859,111.852,443.376,110.732C446.893,109.612,450.409,108.492,453.926,107.372C457.443,106.252,460.96,105.132,464.476,104.012C467.993,102.892,471.51,101.772,475.027,100.652C478.543,99.532,482.06,98.412,485.577,97.292C489.094,96.172,492.61,95.053,496.127,93.933C499.644,92.813,503.16,90.95,506.677,90.572C510.194,90.195,513.711,90.006,517.227,90.006C520.744,90.006,524.261,90.006,527.778,90.006C531.294,90.006,534.811,90.006,538.328,90.006C541.845,90.006,545.361,90.006,548.878,90.006C552.395,90.006,555.912,90.006,559.428,90.006C562.945,90.006,566.462,90.006,569.979,90.006C570.014,90.006,570.049,90.006,570.085,90.006C573.601,90.006,577.118,87.08,580.635,85.15C584.152,83.22,587.668,80.643,591.185,78.427C594.702,76.211,598.219,74.091,601.735,71.855C605.252,69.619,608.769,67.274,612.286,65.009C615.802,62.743,619.319,60.502,622.836,58.26C626.353,56.018,629.869,53.794,633.386,51.556C636.903,49.317,640.42,47.065,643.936,44.828C647.453,42.591,650.97,40.374,654.487,38.133C658.003,35.892,661.52,33.628,665.037,31.382C668.553,29.137,672.07,26.899,675.587,24.659C679.104,22.419,682.62,20.179,686.137,17.941C689.654,15.703,693.171,12.01,696.687,11.23C700.204,10.451,703.721,10.061,707.238,10.061C710.754,10.061,714.271,10.061,717.788,10.061C721.305,10.061,724.821,10.061,728.338,10.061C731.855,10.061,735.372,10.061,738.888,10.061C742.405,10.061,745.922,10.061,749.439,10.061C752.955,10.061,756.472,10.061,759.989,10.061" stroke="#7EB26D" stroke-width="1.5"/></g><g class="mark-rule role-mark layer_1_marks" role="graphics-object" aria-roledescription="rule mark container"><line aria-label="ts: May 27, 2026" role="graphics-symbol" aria-roledescription="rule mark" transform="translate(190.04817934636748,0)" x2="0" y2="160" stroke="#5c6e7e" stroke-width="1" stroke-dasharray="4,4"/><line aria-label="ts: May 27, 2026" role="graphics-symbol" aria-roledescription="rule mark" transform="translate(380.0745549009482,0)" x2="0" y2="160" stroke="#5c6e7e" stroke-width="1" stroke-dasharray="4,4"/><line aria-label="ts: May 27, 2026" role="graphics-symbol" aria-roledescription="rule mark" transform="translate(570.0847534487194,0)" x2="0" y2="160" stroke="#5c6e7e" stroke-width="1" stroke-dasharray="4,4"/></g><g class="mark-group role-title"><g transform="translate(-53,-26)"><path class="background" aria-hidden="true" d="M0,0h0v0h0Z" pointer-events="none"/><g><g class="mark-text role-title-text" role="graphics-symbol" aria-roledescription="title" aria-label="Title text 'Received Transactions'" pointer-events="none"><text text-anchor="start" transform="translate(0,10)" font-family="sans-serif" font-size="13px" font-weight="normal" fill="#d0d0d0" opacity="1">Received Transactions</text></g></g><path class="foreground" aria-hidden="true" d="" pointer-events="none" display="none"/></g></g></g><path class="foreground" aria-hidden="true" d="" display="none"/></g></g></g></svg>