<svg xmlns="http://www.w3.org/2000/svg" xmlns:xlink="http://www.w3.org/1999/xlink" version="1.1" class="marks" width="817" height="227" viewBox="0 0 817 227"><rect width="817" height="227" fill="#111217"/><g fill="none" stroke-miterlimit="10" transform="translate(50,31)"><g class="mark-group role-frame root" role="graphics-object" aria-roledescription="group mark container"><g transform="translate(0,0)"><path class="background" aria-hidden="true" d="M0.5,0.5h760v160h-760Z" fill="#181b1f"/><g><g class="mark-group role-axis" aria-hidden="true"><g transform="translate(0.5,160.5)"><path class="background" aria-hidden="true" d="M0,0h0v0h0Z" pointer-events="none"/><g><g class="mark-rule role-axis-grid" pointer-events="none"><line transform="translate(22,-160)" x2="0" y2="160" stroke="#2c3235" stroke-opacity="1" stroke-width="1" opacity="1"/><line transform="translate(54,-160)" x2="0" y2="160" stroke="#2c3235" stroke-opacity="1" stroke-width="1" opacity="1"/><line transform="translate(86,-160)" x2="0" y2="160" stroke="#2c3235" stroke-opacity="1" stroke-width="1" opacity="1"/><line transform="translate(117,-160)" x2="0" y2="160" stroke="#2c3235" stroke-opacity="1" stroke-width="1" opacity="1"/><line transform="translate(149,-160)" x2="0" y2="160" stroke="#2c3235" stroke-opacity="1" stroke-width="1" opacity="1"/><line transform="translate(181,-160)" x2="0" y2="160" stroke="#2c3235" stroke-opacity="1" stroke-width="1" opacity="1"/><line transform="translate(212,-160)" x2="0" y2="160" stroke="#2c3235" stroke-opacity="1" stroke-width="1" opacity="1"/><line transform="translate(244,-160)" x2="0" y2="160" stroke="#2c3235" stroke-opacity="1" stroke-width="1" opacity="1"/><line transform="translate(276,-160)" x2="0" y2="160" stroke="#2c3235" stroke-opacity="1" stroke-width="1" opacity="1"/><line transform="translate(307,-160)" x2="0" y2="160" stroke="#2c3235" stroke-opacity="1" stroke-width="1" opacity="1"/><line transform="translate(339,-160)" x2="0" y2="160" stroke="#2c3235" stroke-opacity="1" stroke-width="1" opacity="1"/><line transform="translate(371,-160)" x2="0" y2="160" stroke="#2c3235" stroke-opacity="1" stroke-width="1" opacity="1"/><line transform="translate(402,-160)" x2="0" y2="160" stroke="#2c3235" stroke-opacity="1" stroke-width="1" opacity="1"/><line transform="translate(434,-160)" x2="0" y2="160" stroke="#2c3235" stroke-opacity="1" stroke-width="1" opacity="1"/><line transform="translate(466,-160)" x2="0" y2="160" stroke="#2c3235" stroke-opacity="1" stroke-width="1" opacity="1"/><line transform="translate(497,-160)" x2="0" y2="160" stroke="#2c3235" stroke-opacity="1" stroke-width="1" opacity="1"/><line transform="translate(529,-160)" x2="0" y2="160" stroke="#2c3235" stroke-opacity="1" stroke-width="1" opacity="1"/><line transform="translate(561,-160)" x2="0" y2="160" stroke="#2c3235" stroke-opacity="1" stroke-width="1" opacity="1"/><line transform="translate(592,-160)" x2="0" y2="160" stroke="#2c3235" stroke-opacity="1" stroke-width="1" opacity="1"/><line transform="translate(624,-160)" x2="0" y2="160" stroke="#2c3235" stroke-opacity="1" stroke-width="1" opacity="1"/><line transform="translate(656,-160)" x2="0" y2="160" stroke="#2c3235" stroke-opacity="1" stroke-width="1" opacity="1"/><line transform="translate(687,-160)" x2="0" y2="160" stroke="#2c3235" stroke-opacity="1" stroke-width="1" opacity="1"/><line transform="translate(719,-160)" x2="0" y2="160" stroke="#2c3235" stroke-opacity="1" stroke-width="1" opacity="1"/><line transform="translate(751,-160)" x2="0" y2="160" stroke="#2c3235" stroke-opacity="1" stroke-width="1" opacity="1"/></g></g><path class="foreground" aria-hidden="true" d="" pointer-events="none" display="none"/></g></g><g class="mark-group role-axis" aria-hidden="true"><g transform="translate(0.5,0.5)"><path class="background" aria-hidden="true" d="M0,0h0v0h0Z" pointer-events="none"/><g><g class="mark-rule role-axis-grid" pointer-events="none"><line transform="translate(0,160)" x2="760" y2="0" stroke="#2c3235" stroke-opacity="1" stroke-width="1" opacity="1"/><line transform="translate(0,107)" x2="760" y2="0" stroke="#2c3235" stroke-opacity="1" stroke-width="1" opacity="1"/><line transform="translate(0,53)" x2="760" y2="0" stroke="#2c3235" stroke-opacity="1" stroke-width="1" opacity="1"/><line transform="translate(0,0)" x2="760" y2="0" stroke="#2c3235" stroke-opacity="1" stroke-width="1" opacity="1"/></g></g><path class="foreground" aria-hidden="true" d="" pointer-events="none" display="none"/></g></g><g class="mark-group role-axis" role="graphics-symbol" aria-roledescription="axis" aria-label="X-axis titled 'Time (UTC)' for a time scale with values from 10:40 to 10:52"><g transform="translate(0.5,160.5)"><path class="background" aria-hidden="true" d="M0,0h0v0h0Z" pointer-events="none"/><g><g class="mark-rule role-axis-tick" pointer-events="none"><line transform="translate(22,0)" x2="0" y2="5" stroke="#9fa7b3" stroke-width="1" opacity="1"/><line transform="translate(54,0)" x2="0" y2="5" stroke="#9fa7b3" stroke-width="1" opacity="1"/><line transform="translate(86,0)" x2="0" y2="5" stroke="#9fa7b3" stroke-width="1" opacity="1"/><line transform="translate(117,0)" x2="0" y2="5" stroke="#9fa7b3" stroke-width="1" opacity="1"/><line transform="translate(149,0)" x2="0" y2="5" stroke="#9fa7b3" stroke-width="1" opacity="1"/><line transform="translate(181,0)" x2="0" y2="5" stroke="#9fa7b3" stroke-width="1" opacity="1"/><line transform="translate(212,0)" x2="0" y2="5" stroke="#9fa7b3" stroke-width="1" opacity="1"/><line transform="translate(244,0)" x2="0" y2="5" stroke="#9fa7b3" stroke-width="1" opacity="1"/><line transform="translate(276,0)" x2="0" y2="5" stroke="#9fa7b3" stroke-width="1" opacity="1"/><line transform="translate(307,0)" x2="0" y2="5" stroke="#9fa7b3" stroke-width="1" opacity="1"/><line transform="translate(339,0)" x2="0" y2="5" stroke="#9fa7b3" stroke-width="1" opacity="1"/><line transform="translate(371,0)" x2="0" y2="5" stroke="#9fa7b3" stroke-width="1" opacity="1"/><line transform="translate(402,0)" x2="0" y2="5" stroke="#9fa7b3" stroke-width="1" opacity="1"/><line transform="translate(434,0)" x2="0" y2="5" stroke="#9fa7b3" stroke-width="1" opacity="1"/><line transform="translate(466,0)" x2="0" y2="5" stroke="#9fa7b3" stroke-width="1" opacity="1"/><line transform="translate(497,0)" x2="0" y2="5" stroke="#9fa7b3" stroke-width="1" opacity="1"/><line transform="translate(529,0)" x2="0" y2="5" stroke="#9fa7b3" stroke-width="1" opacity="1"/><line transform="translate(561,0)" x2="0" y2="5" stroke="#9fa7b3" stroke-width="1" opacity="1"/><line transform="translate(592,0)" x2="0" y2="5" stroke="#9fa7b3" stroke-width="1" opacity="1"/><line transform="translate(624,0)" x2="0" y2="5" stroke="#9fa7b3" stroke-width="1" opacity="1"/><line transform="translate(656,0)" x2="0" y2="5" stroke="#9fa7b3" stroke-width="1" opacity="1"/><line transform="translate(687,0)" x2="0" y2="5" stroke="#9fa7b3" stroke-width="1" opacity="1"/><line transform="translate(719,0)" x2="0" y2="5" stroke="#9fa7b3" stroke-width="1" opacity="1"/><line transform="translate(751,0)" x2="0" y2="5" stroke="#9fa7b3" stroke-width="1" opacity="1"/></g><g class="mark-text role-axis-label" pointer-events="none"><text text-anchor="middle" transform="translate(22.24354719098315,15)" font-family="sans-serif" font-size="10px" fill="#9fa7b3" opacity="1">10:41</text><text text-anchor="middle" transform="translate(53.90695956248941,15)" font-family="sans-serif" font-size="10px" fill="#9fa7b3" opacity="0">10:41</text><text text-anchor="middle" transform="translate(85.57037193399567,15)" font-family="sans-serif" font-size="10px" fill="#9fa7b3" opacity="1">10:42</text><text text-anchor="middle" transform="translate(117.23378430550193,15)" font-family="sans-serif" font-size="10px" fill="#9fa7b3" opacity="0">10:42</text><text text-anchor="middle" transform="translate(148.8971966770082,15)" font-family="sans-serif" font-size="10px" fill="#9fa7b3" opacity="1">10:43</text><text text-anchor="middle" transform="translate(180.56060904851444,15)" font-family="sans-serif" font-size="10px" fill="#9fa7b3" opacity="0">10:43</text><text text-anchor="middle" transform="translate(212.2240214200207,15)" font-family="sans-serif" font-size="10px" fill="#9fa7b3" opacity="1">10:44</text><text text-anchor="middle" transform="translate(243.88743379152697,15)" font-family="sans-serif" font-size="10px" fill="#9fa7b3" opacity="0">10:44</text><text text-anchor="middle" transform="translate(275.55084616303327,15)" font-family="sans-serif" font-size="10px" fill="#9fa7b3" opacity="1">10:45</text><text text-anchor="middle" transform="translate(307.2142585345395,15)" font-family="sans-serif" font-size="10px" fill="#9fa7b3" opacity="0">10:45</text><text text-anchor="middle" transform="translate(338.8776709060458,15)" font-family="sans-serif" font-size="10px" fill="#9fa7b3" opacity="1">10:46</text><text text-anchor="middle" transform="translate(370.541083277552,15)" font-family="sans-serif" font-size="10px" fill="#9fa7b3" opacity="0">10:46</text><text text-anchor="middle" transform="translate(402.20449564905834,15)" font-family="sans-serif" font-size="10px" fill="#9fa7b3" opacity="1">10:47</text><text text-anchor="middle" transform="translate(433.8679080205646,15)" font-family="sans-serif" font-size="10px" fill="#9fa7b3" opacity="0">10:47</text><text text-anchor="middle" transform="translate(465.53132039207077,15)" font-family="sans-serif" font-size="10px" fill="#9fa7b3" opacity="1">10:48</text><text text-anchor="middle" transform="translate(497.19473276357706,15)" font-family="sans-serif" font-size="10px" fill="#9fa7b3" opacity="0">10:48</text><text text-anchor="middle" transform="translate(528.8581451350833,15)" font-family="sans-serif" font-size="10px" fill="#9fa7b3" opacity="1">10:49</text><text text-anchor="middle" transform="translate(560.5215575065896,15)" font-family="sans-serif" font-size="10px" fill="#9fa7b3" opacity="0">10:49</text><text text-anchor="middle" transform="translate(592.1849698780959,15)" font-family="sans-serif" font-size="10px" fill="#9fa7b3" opacity="1">10:50</text><text text-anchor="middle" transform="translate(623.8483822496021,15)" font-family="sans-serif" font-size="10px" fill="#9fa7b3" opacity="0">10:50</text><text text-anchor="middle" transform="translate(655.5117946211084,15)" font-family="sans-serif" font-size="10px" fill="#9fa7b3" opacity="1">10:51</text><text text-anchor="middle" transform="translate(687.1752069926147,15)" font-family="sans-serif" font-size="10px" fill="#9fa7b3" opacity="0">10:51</text><text text-anchor="middle" transform="translate(718.8386193641209,15)" font-family="sans-serif" font-size="10px" fill="#9fa7b3" opacity="1">10:52</text><text text-anchor="middle" transform="translate(750.5020317356272,15)" font-family="sans-serif" font-size="10px" fill="#9fa7b3" opacity="0">10:52</text></g><g class="mark-rule role-axis-domain" pointer-events="none"><line transform="translate(0,0)" x2="760" y2="0" stroke="#9fa7b3" stroke-width="1" opacity="1"/></g><g class="mark-text role-axis-title" pointer-events="none"><text text-anchor="middle" transform="translate(380,29)" font-family="sans-serif" font-size="10px" font-weight="bold" fill="#9fa7b3" opacity="1">Time (UTC)</text></g></g><path class="foreground" aria-hidden="true" d="" pointer-events="none" display="none"/></g></g><g class="mark-group role-axis" role="graphics-symbol" aria-roledescription="axis" aria-label="Y-axis titled 'tx' for a linear scale with values from 0k to 60k"><g transform="translate(0.5,0.5)"><path class="background" aria-hidden="true" d="M0,0h0v0h0Z" pointer-events="none"/><g><g class="mark-rule role-axis-tick" pointer-events="none"><line transform="translate(0,160)" x2="-5" y2="0" stroke="#9fa7b3" stroke-width="1" opacity="1"/><line transform="translate(0,107)" x2="-5" y2="0" stroke="#9fa7b3" stroke-width="1" opacity="1"/><line transform="translate(0,53)" x2="-5" y2="0" stroke="#9fa7b3" stroke-width="1" opacity="1"/><line transform="translate(0,0)" x2="-5" y2="0" stroke="#9fa7b3" stroke-width="1" opacity="1"/></g><g class="mark-text role-axis-label" pointer-events="none"><text text-anchor="end" transform="translate(-7,163)" font-family="sans-serif" font-size="10px" fill="#9fa7b3" opacity="1">0k</text><text text-anchor="end" transform="translate(-7,109.66666666666669)" font-family="sans-serif" font-size="10px" fill="#9fa7b3" opacity="1">20k</text><text text-anchor="end" transform="translate(-7,56.33333333333334)" font-family="sans-serif" font-size="10px" fill="#9fa7b3" opacity="1">40k</text><text text-anchor="end" transform="translate(-7,3)" font-family="sans-serif" font-size="10px" fill="#9fa7b3" opacity="1">60k</text></g><g class="mark-rule role-axis-domain" pointer-events="none"><line transform="translate(0,160)" x2="0" y2="-160" stroke="#9fa7b3" stroke-width="1" opacity="1"/></g><g class="mark-text role-axis-title" pointer-events="none"><text text-anchor="middle" transform="translate(-35,80) rotate(-90) translate(0,-2)" font-family="sans-serif" font-size="10px" font-weight="bold" fill="#9fa7b3" opacity="1">tx</text></g></g><path class="foreground" aria-hidden="true" d="" pointer-events="none" display="none"/></g></g><g class="mark-line role-mark layer_0_marks" role="graphics-object" aria-roledescription="line mark container"><path aria-label="ts: 10:40; value: 0" role="graphics-symbol" aria-roledescription="line mark" d="M0.079,160C5.356,158.477,10.634,156.954,15.911,155.456C21.188,153.958,26.465,151.85,31.743,151.011C37.02,150.172,42.297,150.591,47.574,149.752C52.852,148.913,58.129,144.8,63.406,143.32C68.683,141.84,73.96,142.028,79.238,140.869C84.515,139.71,89.792,138.29,95.069,136.365C100.347,134.44,105.624,131.502,110.901,129.32C116.178,127.138,121.456,124.817,126.733,123.272C132.01,121.727,137.287,121.012,142.565,120.048C147.842,119.084,153.119,118.635,158.396,117.485C163.673,116.336,168.951,114.502,174.228,113.149C179.505,111.797,184.782,111.043,190.06,109.371C195.337,107.699,200.614,105.108,205.891,103.117C211.169,101.127,216.446,98.888,221.723,97.429C227,95.971,232.278,95.628,237.555,94.368C242.832,93.108,248.109,91.146,253.386,89.867C258.664,88.587,263.941,88.064,269.218,86.691C274.495,85.317,279.773,83.428,285.05,81.627C290.327,79.825,295.604,77.701,300.882,75.88C306.159,74.059,311.436,72.087,316.713,70.699C321.991,69.311,327.268,69.14,332.545,67.552C337.822,65.964,343.099,63.298,348.377,61.171C353.654,59.043,358.931,56.368,364.208,54.787C369.486,53.205,374.763,52.937,380.04,51.683C385.317,50.428,390.595,48.115,395.872,47.261C401.149,46.408,406.426,46.835,411.704,45.981C416.981,45.128,422.258,41.896,427.535,41.501C432.812,41.107,438.09,41.304,443.367,40.909C448.644,40.515,453.921,37.412,459.199,36.32C464.476,35.228,469.753,35.18,475.03,34.355C480.308,33.529,485.585,32.604,490.862,31.365C496.139,30.126,501.417,27.745,506.694,26.92C511.971,26.095,517.248,26.108,522.525,25.683C527.803,25.257,533.08,24.799,538.357,24.368C543.634,23.937,548.912,23.84,554.189,23.096C559.466,22.352,564.743,21.401,570.021,19.907C575.298,18.412,580.575,15.519,585.852,14.128C591.13,12.737,596.407,12.488,601.684,11.56C606.961,10.632,612.238,9.685,617.516,8.56C622.793,7.435,628.07,6.061,633.347,4.811C638.625,3.56,643.902,1.056,649.179,1.056C654.456,1.056,659.734,1.056,665.011,1.056C670.288,1.056,675.565,1.056,680.843,1.056C686.12,1.056,691.397,1.056,696.674,1.056C701.951,1.056,707.229,1.056,712.506,1.056C717.783,1.056,723.06,1.056,728.338,1.056C733.615,1.056,738.892,1.056,744.169,1.056C749.447,1.056,754.724,1.056,760.001,1.056" stroke="#7EB26D" stroke-width="1.5"/></g><g class="mark-group role-title"><g transform="translate(-45,-26)"><path class="background" aria-hidden="true" d="M0,0h0v0h0Z" pointer-events="none"/><g><g class="mark-text role-title-text" role="graphics-symbol" aria-roledescription="title" aria-label="Title text 'Committed Transactions'" pointer-events="none"><text text-anchor="start" transform="translate(0,10)" font-family="sans-serif" font-size="13px" font-weight="normal" fill="#d0d0d0" opacity="1">Committed Transactions</text></g></g><path class="foreground" aria-hidden="true" d="" pointer-events="none" display="none"/></g></g></g><path class="foreground" aria-hidden="true" d="" display="none"/></g></g></g></svg>