<svg xmlns="http://www.w3.org/2000/svg" xmlns:xlink="http://www.w3.org/1999/xlink" version="1.1" class="marks" width="817" height="227" viewBox="0 0 817 227"><rect width="817" height="227" fill="#111217"/><g fill="none" stroke-miterlimit="10" transform="translate(50,31)"><g class="mark-group role-frame root" role="graphics-object" aria-roledescription="group mark container"><g transform="translate(0,0)"><path class="background" aria-hidden="true" d="M0.5,0.5h760v160h-760Z" fill="#181b1f"/><g><g class="mark-group role-axis" aria-hidden="true"><g transform="translate(0.5,160.5)"><path class="background" aria-hidden="true" d="M0,0h0v0h0Z" pointer-events="none"/><g><g class="mark-rule role-axis-grid" pointer-events="none"><line transform="translate(22,-160)" x2="0" y2="160" stroke="#2c3235" stroke-opacity="1" stroke-width="1" opacity="1"/><line transform="translate(54,-160)" x2="0" y2="160" stroke="#2c3235" stroke-opacity="1" stroke-width="1" opacity="1"/><line transform="translate(86,-160)" x2="0" y2="160" stroke="#2c3235" stroke-opacity="1" stroke-width="1" opacity="1"/><line transform="translate(117,-160)" x2="0" y2="160" stroke="#2c3235" stroke-opacity="1" stroke-width="1" opacity="1"/><line transform="translate(149,-160)" x2="0" y2="160" stroke="#2c3235" stroke-opacity="1" stroke-width="1" opacity="1"/><line transform="translate(181,-160)" x2="0" y2="160" stroke="#2c3235" stroke-opacity="1" stroke-width="1" opacity="1"/><line transform="translate(212,-160)" x2="0" y2="160" stroke="#2c3235" stroke-opacity="1" stroke-width="1" opacity="1"/><line transform="translate(244,-160)" x2="0" y2="160" stroke="#2c3235" stroke-opacity="1" stroke-width="1" opacity="1"/><line transform="translate(276,-160)" x2="0" y2="160" stroke="#2c3235" stroke-opacity="1" stroke-width="1" opacity="1"/><line transform="translate(307,-160)" x2="0" y2="160" stroke="#2c3235" stroke-opacity="1" stroke-width="1" opacity="1"/><line transform="translate(339,-160)" x2="0" y2="160" stroke="#2c3235" stroke-opacity="1" stroke-width="1" opacity="1"/><line transform="translate(371,-160)" x2="0" y2="160" stroke="#2c3235" stroke-opacity="1" stroke-width="1" opacity="1"/><line transform="translate(402,-160)" x2="0" y2="160" stroke="#2c3235" stroke-opacity="1" stroke-width="1" opacity="1"/><line transform="translate(434,-160)" x2="0" y2="160" stroke="#2c3235" stroke-opacity="1" stroke-width="1" opacity="1"/><line transform="translate(466,-160)" x2="0" y2="160" stroke="#2c3235" stroke-opacity="1" stroke-width="1" opacity="1"/><line transform="translate(497,-160)" x2="0" y2="160" stroke="#2c3235" stroke-opacity="1" stroke-width="1" opacity="1"/><line transform="translate(529,-160)" x2="0" y2="160" stroke="#2c3235" stroke-opacity="1" stroke-width="1" opacity="1"/><line transform="translate(561,-160)" x2="0" y2="160" stroke="#2c3235" stroke-opacity="1" stroke-width="1" opacity="1"/><line transform="translate(592,-160)" x2="0" y2="160" stroke="#2c3235" stroke-opacity="1" stroke-width="1" opacity="1"/><line transform="translate(624,-160)" x2="0" y2="160" stroke="#2c3235" stroke-opacity="1" stroke-width="1" opacity="1"/><line transform="translate(656,-160)" x2="0" y2="160" stroke="#2c3235" stroke-opacity="1" stroke-width="1" opacity="1"/><line transform="translate(687,-160)" x2="0" y2="160" stroke="#2c3235" stroke-opacity="1" stroke-width="1" opacity="1"/><line transform="translate(719,-160)" x2="0" y2="160" stroke="#2c3235" stroke-opacity="1" stroke-width="1" opacity="1"/><line transform="translate(751,-160)" x2="0" y2="160" stroke="#2c3235" stroke-opacity="1" stroke-width="1" opacity="1"/></g></g><path class="foreground" aria-hidden="true" d="" pointer-events="none" display="none"/></g></g><g class="mark-group role-axis" aria-hidden="true"><g transform="translate(0.5,0.5)"><path class="background" aria-hidden="true" d="M0,0h0v0h0Z" pointer-events="none"/><g><g class="mark-rule role-axis-grid" pointer-events="none"><line transform="translate(0,160)" x2="760" y2="0" stroke="#2c3235" stroke-opacity="1" stroke-width="1" opacity="1"/><line transform="translate(0,120)" x2="760" y2="0" stroke="#2c3235" stroke-opacity="1" stroke-width="1" opacity="1"/><line transform="translate(0,80)" x2="760" y2="0" stroke="#2c3235" stroke-opacity="1" stroke-width="1" opacity="1"/><line transform="translate(0,40)" x2="760" y2="0" stroke="#2c3235" stroke-opacity="1" stroke-width="1" opacity="1"/><line transform="translate(0,0)" x2="760" y2="0" stroke="#2c3235" stroke-opacity="1" stroke-width="1" opacity="1"/></g></g><path class="foreground" aria-hidden="true" d="" pointer-events="none" display="none"/></g></g><g class="mark-group role-axis" role="graphics-symbol" aria-roledescription="axis" aria-label="X-axis titled 'Time (UTC)' for a time scale with values from 10:40 to 10:52"><g transform="translate(0.5,160.5)"><path class="background" aria-hidden="true" d="M0,0h0v0h0Z" pointer-events="none"/><g><g class="mark-rule role-axis-tick" pointer-events="none"><line transform="translate(22,0)" x2="0" y2="5" stroke="#9fa7b3" stroke-width="1" opacity="1"/><line transform="translate(54,0)" x2="0" y2="5" stroke="#9fa7b3" stroke-width="1" opacity="1"/><line transform="translate(86,0)" x2="0" y2="5" stroke="#9fa7b3" stroke-width="1" opacity="1"/><line transform="translate(117,0)" x2="0" y2="5" stroke="#9fa7b3" stroke-width="1" opacity="1"/><line transform="translate(149,0)" x2="0" y2="5" stroke="#9fa7b3" stroke-width="1" opacity="1"/><line transform="translate(181,0)" x2="0" y2="5" stroke="#9fa7b3" stroke-width="1" opacity="1"/><line transform="translate(212,0)" x2="0" y2="5" stroke="#9fa7b3" stroke-width="1" opacity="1"/><line transform="translate(244,0)" x2="0" y2="5" stroke="#9fa7b3" stroke-width="1" opacity="1"/><line transform="translate(276,0)" x2="0" y2="5" stroke="#9fa7b3" stroke-width="1" opacity="1"/><line transform="translate(307,0)" x2="0" y2="5" stroke="#9fa7b3" stroke-width="1" opacity="1"/><line transform="translate(339,0)" x2="0" y2="5" stroke="#9fa7b3" stroke-width="1" opacity="1"/><line transform="translate(371,0)" x2="0" y2="5" stroke="#9fa7b3" stroke-width="1" opacity="1"/><line transform="translate(402,0)" x2="0" y2="5" stroke="#9fa7b3" stroke-width="1" opacity="1"/><line transform="translate(434,0)" x2="0" y2="5" stroke="#9fa7b3" stroke-width="1" opacity="1"/><line transform="translate(466,0)" x2="0" y2="5" stroke="#9fa7b3" stroke-width="1" opacity="1"/><line transform="translate(497,0)" x2="0" y2="5" stroke="#9fa7b3" stroke-width="1" opacity="1"/><line transform="translate(529,0)" x2="0" y2="5" stroke="#9fa7b3" stroke-width="1" opacity="1"/><line transform="translate(561,0)" x2="0" y2="5" stroke="#9fa7b3" stroke-width="1" opacity="1"/><line transform="translate(592,0)" x2="0" y2="5" stroke="#9fa7b3" stroke-width="1" opacity="1"/><line transform="translate(624,0)" x2="0" y2="5" stroke="#9fa7b3" stroke-width="1" opacity="1"/><line transform="translate(656,0)" x2="0" y2="5" stroke="#9fa7b3" stroke-width="1" opacity="1"/><line transform="translate(687,0)" x2="0" y2="5" stroke="#9fa7b3" stroke-width="1" opacity="1"/><line transform="translate(719,0)" x2="0" y2="5" stroke="#9fa7b3" stroke-width="1" opacity="1"/><line transform="translate(751,0)" x2="0" y2="5" stroke="#9fa7b3" stroke-width="1" opacity="1"/></g><g class="mark-text role-axis-label" pointer-events="none"><text text-anchor="middle" transform="translate(22.24354719098315,15)" font-family="sans-serif" font-size="10px" fill="#9fa7b3" opacity="1">10:41</text><text text-anchor="middle" transform="translate(53.90695956248941,15)" font-family="sans-serif" font-size="10px" fill="#9fa7b3" opacity="0">10:41</text><text text-anchor="middle" transform="translate(85.57037193399567,15)" font-family="sans-serif" font-size="10px" fill="#9fa7b3" opacity="1">10:42</text><text text-anchor="middle" transform="translate(117.23378430550193,15)" font-family="sans-serif" font-size="10px" fill="#9fa7b3" opacity="0">10:42</text><text text-anchor="middle" transform="translate(148.8971966770082,15)" font-family="sans-serif" font-size="10px" fill="#9fa7b3" opacity="1">10:43</text><text text-anchor="middle" transform="translate(180.56060904851444,15)" font-family="sans-serif" font-size="10px" fill="#9fa7b3" opacity="0">10:43</text><text text-anchor="middle" transform="translate(212.2240214200207,15)" font-family="sans-serif" font-size="10px" fill="#9fa7b3" opacity="1">10:44</text><text text-anchor="middle" transform="translate(243.88743379152697,15)" font-family="sans-serif" font-size="10px" fill="#9fa7b3" opacity="0">10:44</text><text text-anchor="middle" transform="translate(275.55084616303327,15)" font-family="sans-serif" font-size="10px" fill="#9fa7b3" opacity="1">10:45</text><text text-anchor="middle" transform="translate(307.2142585345395,15)" font-family="sans-serif" font-size="10px" fill="#9fa7b3" opacity="0">10:45</text><text text-anchor="middle" transform="translate(338.8776709060458,15)" font-family="sans-serif" font-size="10px" fill="#9fa7b3" opacity="1">10:46</text><text text-anchor="middle" transform="translate(370.541083277552,15)" font-family="sans-serif" font-size="10px" fill="#9fa7b3" opacity="0">10:46</text><text text-anchor="middle" transform="translate(402.20449564905834,15)" font-family="sans-serif" font-size="10px" fill="#9fa7b3" opacity="1">10:47</text><text text-anchor="middle" transform="translate(433.8679080205646,15)" font-family="sans-serif" font-size="10px" fill="#9fa7b3" opacity="0">10:47</text><text text-anchor="middle" transform="translate(465.53132039207077,15)" font-family="sans-serif" font-size="10px" fill="#9fa7b3" opacity="1">10:48</text><text text-anchor="middle" transform="translate(497.19473276357706,15)" font-family="sans-serif" font-size="10px" fill="#9fa7b3" opacity="0">10:48</text><text text-anchor="middle" transform="translate(528.8581451350833,15)" font-family="sans-serif" font-size="10px" fill="#9fa7b3" opacity="1">10:49</text><text text-anchor="middle" transform="translate(560.5215575065896,15)" font-family="sans-serif" font-size="10px" fill="#9fa7b3" opacity="0">10:49</text><text text-anchor="middle" transform="translate(592.1849698780959,15)" font-family="sans-serif" font-size="10px" fill="#9fa7b3" opacity="1">10:50</text><text text-anchor="middle" transform="translate(623.8483822496021,15)" font-family="sans-serif" font-size="10px" fill="#9fa7b3" opacity="0">10:50</text><text text-anchor="middle" transform="translate(655.5117946211084,15)" font-family="sans-serif" font-size="10px" fill="#9fa7b3" opacity="1">10:51</text><text text-anchor="middle" transform="translate(687.1752069926147,15)" font-family="sans-serif" font-size="10px" fill="#9fa7b3" opacity="0">10:51</text><text text-anchor="middle" transform="translate(718.8386193641209,15)" font-family="sans-serif" font-size="10px" fill="#9fa7b3" opacity="1">10:52</text><text text-anchor="middle" transform="translate(750.5020317356272,15)" font-family="sans-serif" font-size="10px" fill="#9fa7b3" opacity="0">10:52</text></g><g class="mark-rule role-axis-domain" pointer-events="none"><line transform="translate(0,0)" x2="760" y2="0" stroke="#9fa7b3" stroke-width="1" opacity="1"/></g><g class="mark-text role-axis-title" pointer-events="none"><text text-anchor="middle" transform="translate(380,29)" font-family="sans-serif" font-size="10px" font-weight="bold" fill="#9fa7b3" opacity="1">Time (UTC)</text></g></g><path class="foreground" aria-hidden="true" d="" pointer-events="none" display="none"/></g></g><g class="mark-group role-axis" role="graphics-symbol" aria-roledescription="axis" aria-label="Y-axis titled 'blocks/s' for a linear scale with values from 0 to 0.8"><g transform="translate(0.5,0.5)"><path class="background" aria-hidden="true" d="M0,0h0v0h0Z" pointer-events="none"/><g><g class="mark-rule role-axis-tick" pointer-events="none"><line transform="translate(0,160)" x2="-5" y2="0" stroke="#9fa7b3" stroke-width="1" opacity="1"/><line transform="translate(0,120)" x2="-5" y2="0" stroke="#9fa7b3" stroke-width="1" opacity="1"/><line transform="translate(0,80)" x2="-5" y2="0" stroke="#9fa7b3" stroke-width="1" opacity="1"/><line transform="translate(0,40)" x2="-5" y2="0" stroke="#9fa7b3" stroke-width="1" opacity="1"/><line transform="translate(0,0)" x2="-5" y2="0" stroke="#9fa7b3" stroke-width="1" opacity="1"/></g><g class="mark-text role-axis-label" pointer-events="none"><text text-anchor="end" transform="translate(-7,163)" font-family="sans-serif" font-size="10px" fill="#9fa7b3" opacity="1">0</text><text text-anchor="end" transform="translate(-7,123)" font-family="sans-serif" font-size="10px" fill="#9fa7b3" opacity="1">0.2</text><text text-anchor="end" transform="translate(-7,83)" font-family="sans-serif" font-size="10px" fill="#9fa7b3" opacity="1">0.4</text><text text-anchor="end" transform="translate(-7,43.000000000000014)" font-family="sans-serif" font-size="10px" fill="#9fa7b3" opacity="1">0.6</text><text text-anchor="end" transform="translate(-7,3)" font-family="sans-serif" font-size="10px" fill="#9fa7b3" opacity="1">0.8</text></g><g class="mark-rule role-axis-domain" pointer-events="none"><line transform="translate(0,160)" x2="0" y2="-160" stroke="#9fa7b3" stroke-width="1" opacity="1"/></g><g class="mark-text role-axis-title" pointer-events="none"><text text-anchor="middle" transform="translate(-35,80) rotate(-90) translate(0,-2)" font-family="sans-serif" font-size="10px" font-weight="bold" fill="#9fa7b3" opacity="1">blocks/s</text></g></g><path class="foreground" aria-hidden="true" d="" pointer-events="none" display="none"/></g></g><g class="mark-line role-mark layer_0_marks" role="graphics-object" aria-roledescription="line mark container"><path aria-label="ts: 10:40; value: 0.4" role="graphics-symbol" aria-roledescription="line mark" d="M15.911,80C21.188,73.333,26.465,66.667,31.743,66.667C37.02,66.667,42.297,120,47.574,120C52.852,120,58.129,26.667,63.406,26.667C68.683,26.667,73.96,106.667,79.238,106.667C84.515,106.667,89.792,80,95.069,66.667C100.347,53.333,105.624,26.667,110.901,26.667C116.178,26.667,121.456,26.667,126.733,26.667C132.01,26.667,137.287,66.667,142.565,80C147.842,93.333,153.119,106.667,158.396,106.667C163.673,106.667,168.951,66.667,174.228,66.667C179.505,66.667,184.782,106.667,190.06,106.667C195.337,106.667,200.614,0,205.891,0C211.169,0,216.446,22.222,221.723,40C227,57.778,232.278,106.667,237.555,106.667C242.832,106.667,248.109,66.667,253.386,66.667C258.664,66.667,263.941,93.333,269.218,93.333C274.495,93.333,279.773,80,285.05,66.667C290.327,53.333,295.604,13.333,300.882,13.333C306.159,13.333,311.436,93.333,316.713,93.333C321.991,93.333,327.268,77.778,332.545,66.667C337.822,55.556,343.099,35.556,348.377,26.667C353.654,17.778,358.931,13.333,364.208,13.333C369.486,13.333,374.763,120,380.04,120C385.317,120,390.595,40,395.872,40C401.149,40,406.426,146.667,411.704,146.667C416.981,146.667,422.258,80,427.535,80C432.812,80,438.09,120,443.367,120C448.644,120,453.921,66.667,459.199,66.667C464.476,66.667,469.753,120,475.03,120C480.308,120,485.585,102.222,490.862,93.333C496.139,84.444,501.417,66.667,506.694,66.667C511.971,66.667,517.248,133.333,522.525,133.333C527.803,133.333,533.08,133.333,538.357,133.333C543.634,133.333,548.912,133.333,554.189,133.333C559.466,133.333,564.743,124.444,570.021,106.667C575.298,88.889,580.575,26.667,585.852,26.667C591.13,26.667,596.407,106.667,601.684,106.667C606.961,106.667,612.238,93.333,617.516,93.333C622.793,93.333,628.07,93.333,633.347,93.333C638.625,93.333,643.902,80,649.179,80C654.456,80,659.734,137.778,665.011,146.667C670.288,155.556,675.565,160,680.843,160C686.12,160,691.397,160,696.674,160C701.951,160,707.229,160,712.506,160C717.783,160,723.06,160,728.338,160C733.615,160,738.892,160,744.169,160C749.447,160,754.724,160,760.001,160" stroke="#7EB26D" stroke-width="1.5"/></g><g class="mark-group role-title"><g transform="translate(-45,-26)"><path class="background" aria-hidden="true" d="M0,0h0v0h0Z" pointer-events="none"/><g><g class="mark-text role-title-text" role="graphics-symbol" aria-roledescription="title" aria-label="Title text 'Submitted Blocks Per Second'" pointer-events="none"><text text-anchor="start" transform="translate(0,10)" font-family="sans-serif" font-size="13px" font-weight="normal" fill="#d0d0d0" opacity="1">Submitted Blocks Per Second</text></g></g><path class="foreground" aria-hidden="true" d="" pointer-events="none" display="none"/></g></g></g><path class="foreground" aria-hidden="true" d="" display="none"/></g></g></g></svg>