<svg xmlns="http://www.w3.org/2000/svg" xmlns:xlink="http://www.w3.org/1999/xlink" version="1.1" class="marks" width="832" height="223" viewBox="0 0 832 223"><rect width="832" height="223" fill="#111217"/><g fill="none" stroke-miterlimit="10" transform="translate(58,27)"><g class="mark-group role-frame root" role="graphics-object" aria-roledescription="group mark container"><g transform="translate(0,0)"><path class="background" aria-hidden="true" d="M0.5,0.5h760v160h-760Z" fill="#181b1f"/><g><g class="mark-group role-axis" aria-hidden="true"><g transform="translate(0.5,160.5)"><path class="background" aria-hidden="true" d="M0,0h0v0h0Z" pointer-events="none"/><g><g class="mark-rule role-axis-grid" pointer-events="none"><line transform="translate(31,-160)" x2="0" y2="160" stroke="#2c3235" stroke-opacity="1" stroke-width="1" opacity="1"/><line transform="translate(73,-160)" x2="0" y2="160" stroke="#2c3235" stroke-opacity="1" stroke-width="1" opacity="1"/><line transform="translate(115,-160)" x2="0" y2="160" stroke="#2c3235" stroke-opacity="1" stroke-width="1" opacity="1"/><line transform="translate(158,-160)" x2="0" y2="160" stroke="#2c3235" stroke-opacity="1" stroke-width="1" opacity="1"/><line transform="translate(200,-160)" x2="0" y2="160" stroke="#2c3235" stroke-opacity="1" stroke-width="1" opacity="1"/><line transform="translate(242,-160)" x2="0" y2="160" stroke="#2c3235" stroke-opacity="1" stroke-width="1" opacity="1"/><line transform="translate(284,-160)" x2="0" y2="160" stroke="#2c3235" stroke-opacity="1" stroke-width="1" opacity="1"/><line transform="translate(326,-160)" x2="0" y2="160" stroke="#2c3235" stroke-opacity="1" stroke-width="1" opacity="1"/><line transform="translate(369,-160)" x2="0" y2="160" stroke="#2c3235" stroke-opacity="1" stroke-width="1" opacity="1"/><line transform="translate(411,-160)" x2="0" y2="160" stroke="#2c3235" stroke-opacity="1" stroke-width="1" opacity="1"/><line transform="translate(453,-160)" x2="0" y2="160" stroke="#2c3235" stroke-opacity="1" stroke-width="1" opacity="1"/><line transform="translate(495,-160)" x2="0" y2="160" stroke="#2c3235" stroke-opacity="1" stroke-width="1" opacity="1"/><line transform="translate(537,-160)" x2="0" y2="160" stroke="#2c3235" stroke-opacity="1" stroke-width="1" opacity="1"/><line transform="translate(580,-160)" x2="0" y2="160" stroke="#2c3235" stroke-opacity="1" stroke-width="1" opacity="1"/><line transform="translate(622,-160)" x2="0" y2="160" stroke="#2c3235" stroke-opacity="1" stroke-width="1" opacity="1"/><line transform="translate(664,-160)" x2="0" y2="160" stroke="#2c3235" stroke-opacity="1" stroke-width="1" opacity="1"/><line transform="translate(706,-160)" x2="0" y2="160" stroke="#2c3235" stroke-opacity="1" stroke-width="1" opacity="1"/><line transform="translate(748,-160)" x2="0" y2="160" stroke="#2c3235" stroke-opacity="1" stroke-width="1" opacity="1"/></g></g><path class="foreground" aria-hidden="true" d="" pointer-events="none" display="none"/></g></g><g class="mark-group role-axis" aria-hidden="true"><g transform="translate(0.5,0.5)"><path class="background" aria-hidden="true" d="M0,0h0v0h0Z" pointer-events="none"/><g><g class="mark-rule role-axis-grid" pointer-events="none"><line transform="translate(0,160)" x2="760" y2="0" stroke="#2c3235" stroke-opacity="1" stroke-width="1" opacity="1"/><line transform="translate(0,129)" x2="760" y2="0" stroke="#2c3235" stroke-opacity="1" stroke-width="1" opacity="1"/><line transform="translate(0,98)" x2="760" y2="0" stroke="#2c3235" stroke-opacity="1" stroke-width="1" opacity="1"/><line transform="translate(0,68)" x2="760" y2="0" stroke="#2c3235" stroke-opacity="1" stroke-width="1" opacity="1"/><line transform="translate(0,37)" x2="760" y2="0" stroke="#2c3235" stroke-opacity="1" stroke-width="1" opacity="1"/><line transform="translate(0,6)" x2="760" y2="0" stroke="#2c3235" stroke-opacity="1" stroke-width="1" opacity="1"/></g></g><path class="foreground" aria-hidden="true" d="" pointer-events="none" display="none"/></g></g><g class="mark-group role-axis" role="graphics-symbol" aria-roledescription="axis" aria-label="X-axis titled 'Time (UTC)' for a time scale with values from 18:07 to 18:25"><g transform="translate(0.5,160.5)"><path class="background" aria-hidden="true" d="M0,0h0v0h0Z" pointer-events="none"/><g><g class="mark-rule role-axis-tick" pointer-events="none"><line transform="translate(31,0)" x2="0" y2="5" stroke="#9fa7b3" stroke-width="1" opacity="1"/><line transform="translate(73,0)" x2="0" y2="5" stroke="#9fa7b3" stroke-width="1" opacity="1"/><line transform="translate(115,0)" x2="0" y2="5" stroke="#9fa7b3" stroke-width="1" opacity="1"/><line transform="translate(158,0)" x2="0" y2="5" stroke="#9fa7b3" stroke-width="1" opacity="1"/><line transform="translate(200,0)" x2="0" y2="5" stroke="#9fa7b3" stroke-width="1" opacity="1"/><line transform="translate(242,0)" x2="0" y2="5" stroke="#9fa7b3" stroke-width="1" opacity="1"/><line transform="translate(284,0)" x2="0" y2="5" stroke="#9fa7b3" stroke-width="1" opacity="1"/><line transform="translate(326,0)" x2="0" y2="5" stroke="#9fa7b3" stroke-width="1" opacity="1"/><line transform="translate(369,0)" x2="0" y2="5" stroke="#9fa7b3" stroke-width="1" opacity="1"/><line transform="translate(411,0)" x2="0" y2="5" stroke="#9fa7b3" stroke-width="1" opacity="1"/><line transform="translate(453,0)" x2="0" y2="5" stroke="#9fa7b3" stroke-width="1" opacity="1"/><line transform="translate(495,0)" x2="0" y2="5" stroke="#9fa7b3" stroke-width="1" opacity="1"/><line transform="translate(537,0)" x2="0" y2="5" stroke="#9fa7b3" stroke-width="1" opacity="1"/><line transform="translate(580,0)" x2="0" y2="5" stroke="#9fa7b3" stroke-width="1" opacity="1"/><line transform="translate(622,0)" x2="0" y2="5" stroke="#9fa7b3" stroke-width="1" opacity="1"/><line transform="translate(664,0)" x2="0" y2="5" stroke="#9fa7b3" stroke-width="1" opacity="1"/><line transform="translate(706,0)" x2="0" y2="5" stroke="#9fa7b3" stroke-width="1" opacity="1"/><line transform="translate(748,0)" x2="0" y2="5" stroke="#9fa7b3" stroke-width="1" opacity="1"/></g><g class="mark-text role-axis-label" pointer-events="none"><text text-anchor="middle" transform="translate(30.987692028603213,15)" font-family="sans-serif" font-size="10px" fill="#9fa7b3" opacity="1">18:08</text><text text-anchor="middle" transform="translate(73.1927977357331,15)" font-family="sans-serif" font-size="10px" fill="#9fa7b3" opacity="1">18:09</text><text text-anchor="middle" transform="translate(115.397903442863,15)" font-family="sans-serif" font-size="10px" fill="#9fa7b3" opacity="1">18:10</text><text text-anchor="middle" transform="translate(157.60300914999286,15)" font-family="sans-serif" font-size="10px" fill="#9fa7b3" opacity="1">18:11</text><text text-anchor="middle" transform="translate(199.80811485712277,15)" font-family="sans-serif" font-size="10px" fill="#9fa7b3" opacity="1">18:12</text><text text-anchor="middle" transform="translate(242.01322056425266,15)" font-family="sans-serif" font-size="10px" fill="#9fa7b3" opacity="1">18:13</text><text text-anchor="middle" transform="translate(284.2183262713825,15)" font-family="sans-serif" font-size="10px" fill="#9fa7b3" opacity="1">18:14</text><text text-anchor="middle" transform="translate(326.4234319785124,15)" font-family="sans-serif" font-size="10px" fill="#9fa7b3" opacity="1">18:15</text><text text-anchor="middle" transform="translate(368.6285376856423,15)" font-family="sans-serif" font-size="10px" fill="#9fa7b3" opacity="1">18:16</text><text text-anchor="middle" transform="translate(410.8336433927722,15)" font-family="sans-serif" font-size="10px" fill="#9fa7b3" opacity="1">18:17</text><text text-anchor="middle" transform="translate(453.0387490999021,15)" font-family="sans-serif" font-size="10px" fill="#9fa7b3" opacity="1">18:18</text><text text-anchor="middle" transform="translate(495.243854807032,15)" font-family="sans-serif" font-size="10px" fill="#9fa7b3" opacity="1">18:19</text><text text-anchor="middle" transform="translate(537.4489605141619,15)" font-family="sans-serif" font-size="10px" fill="#9fa7b3" opacity="1">18:20</text><text text-anchor="middle" transform="translate(579.6540662212917,15)" font-family="sans-serif" font-size="10px" fill="#9fa7b3" opacity="1">18:21</text><text text-anchor="middle" transform="translate(621.8591719284217,15)" font-family="sans-serif" font-size="10px" fill="#9fa7b3" opacity="1">18:22</text><text text-anchor="middle" transform="translate(664.0642776355515,15)" font-family="sans-serif" font-size="10px" fill="#9fa7b3" opacity="1">18:23</text><text text-anchor="middle" transform="translate(706.2693833426814,15)" font-family="sans-serif" font-size="10px" fill="#9fa7b3" opacity="1">18:24</text><text text-anchor="middle" transform="translate(748.4744890498113,15)" font-family="sans-serif" font-size="10px" fill="#9fa7b3" opacity="1">18:25</text></g><g class="mark-rule role-axis-domain" pointer-events="none"><line transform="translate(0,0)" x2="760" y2="0" stroke="#9fa7b3" stroke-width="1" opacity="1"/></g><g class="mark-text role-axis-title" pointer-events="none"><text text-anchor="middle" transform="translate(380,29)" font-family="sans-serif" font-size="10px" font-weight="bold" fill="#9fa7b3" opacity="1">Time (UTC)</text></g></g><path class="foreground" aria-hidden="true" d="" pointer-events="none" display="none"/></g></g><g class="mark-group role-axis" role="graphics-symbol" aria-roledescription="axis" aria-label="Y-axis titled 'tx/s' for a linear scale with values from 0k to 2.6k"><g transform="translate(0.5,0.5)"><path class="background" aria-hidden="true" d="M0,0h0v0h0Z" pointer-events="none"/><g><g class="mark-rule role-axis-tick" pointer-events="none"><line transform="translate(0,160)" x2="-5" y2="0" stroke="#9fa7b3" stroke-width="1" opacity="1"/><line transform="translate(0,129)" x2="-5" y2="0" stroke="#9fa7b3" stroke-width="1" opacity="1"/><line transform="translate(0,98)" x2="-5" y2="0" stroke="#9fa7b3" stroke-width="1" opacity="1"/><line transform="translate(0,68)" x2="-5" y2="0" stroke="#9fa7b3" stroke-width="1" opacity="1"/><line transform="translate(0,37)" x2="-5" y2="0" stroke="#9fa7b3" stroke-width="1" opacity="1"/><line transform="translate(0,6)" x2="-5" y2="0" stroke="#9fa7b3" stroke-width="1" opacity="1"/></g><g class="mark-text role-axis-label" pointer-events="none"><text text-anchor="end" transform="translate(-7,163)" font-family="sans-serif" font-size="10px" fill="#9fa7b3" opacity="1">0k</text><text text-anchor="end" transform="translate(-7,132.23076923076923)" font-family="sans-serif" font-size="10px" fill="#9fa7b3" opacity="1">0.5k</text><text text-anchor="end" transform="translate(-7,101.46153846153847)" font-family="sans-serif" font-size="10px" fill="#9fa7b3" opacity="1">1k</text><text text-anchor="end" transform="translate(-7,70.69230769230771)" font-family="sans-serif" font-size="10px" fill="#9fa7b3" opacity="1">1.5k</text><text text-anchor="end" transform="translate(-7,39.92307692307692)" font-family="sans-serif" font-size="10px" fill="#9fa7b3" opacity="1">2k</text><text text-anchor="end" transform="translate(-7,9.15384615384615)" font-family="sans-serif" font-size="10px" fill="#9fa7b3" opacity="1">2.5k</text></g><g class="mark-rule role-axis-domain" pointer-events="none"><line transform="translate(0,160)" x2="0" y2="-160" stroke="#9fa7b3" stroke-width="1" opacity="1"/></g><g class="mark-text role-axis-title" pointer-events="none"><text text-anchor="middle" transform="translate(-43,80) rotate(-90) translate(0,-2)" font-family="sans-serif" font-size="10px" font-weight="bold" fill="#9fa7b3" opacity="1">tx/s</text></g></g><path class="foreground" aria-hidden="true" d="" pointer-events="none" display="none"/></g></g><g class="mark-line role-mark layer_0_marks" role="graphics-object" aria-roledescription="line mark container"><path aria-label="ts: 18:07; value: 28.2667" role="graphics-symbol" aria-roledescription="line mark" d="M10.551,158.261C14.068,155.112,17.585,151.963,21.103,151.955C24.62,151.947,28.137,151.943,31.654,151.943C35.171,151.943,38.688,151.964,42.205,151.971C45.722,151.979,49.239,151.988,52.756,151.988C56.273,151.988,59.791,151.937,63.308,151.922C66.825,151.907,70.342,151.897,73.859,151.897C77.376,151.897,80.893,151.967,84.41,151.967C87.927,151.967,91.444,151.932,94.961,151.914C98.479,151.895,101.996,151.856,105.513,151.856C109.03,151.856,112.547,151.87,116.064,151.897C119.581,151.925,123.098,152.004,126.615,152.217C130.132,152.431,133.65,153.702,137.167,154.999C140.684,156.296,144.201,160,147.718,160C151.235,160,154.752,160,158.269,160C161.786,160,165.303,160,168.82,160C172.338,160,175.855,160,179.372,160C182.889,160,186.406,160,189.923,160C189.961,160,189.998,160,190.036,160C193.553,160,197.07,157.198,200.588,154.954C204.105,152.71,207.622,148.684,211.139,146.535C214.656,144.386,218.173,142.059,221.69,142.059C225.207,142.059,228.724,146.601,232.241,146.601C235.758,146.601,239.276,141.559,242.793,141.559C246.31,141.559,249.827,146.486,253.344,146.486C256.861,146.486,260.378,142.07,263.895,142.068C267.412,142.065,270.929,142.064,274.446,142.064C277.964,142.064,281.481,146.556,284.998,146.556C288.515,146.556,292.032,142.027,295.549,142.027C299.066,142.027,302.583,146.478,306.1,146.478C309.617,146.478,313.134,141.969,316.652,141.969C320.169,141.969,323.686,147.218,327.203,150.224C330.72,153.229,334.237,160,337.754,160C341.271,160,344.788,160,348.305,160C351.822,160,355.34,160,358.857,160C362.374,160,365.891,160,369.408,160C372.925,160,376.442,160,379.959,160C379.989,160,380.018,160,380.048,160C383.565,160,387.082,159.065,390.599,157.194C394.116,155.323,397.633,131.003,401.15,128.115C404.667,125.227,408.185,123.783,411.702,123.783C415.219,123.783,418.736,136.55,422.253,136.55C425.77,136.55,429.287,124.335,432.804,124.07C436.321,123.804,439.838,123.672,443.355,123.672C446.873,123.672,450.39,135.717,453.907,135.717C457.424,135.717,460.941,125.798,464.458,125.046C467.975,124.294,471.492,123.918,475.009,123.918C478.526,123.918,482.044,135.385,485.561,135.385C489.078,135.385,492.595,125.672,496.112,124.956C499.629,124.239,503.146,123.881,506.663,123.881C510.18,123.881,513.697,130.768,517.214,136.788C520.732,142.808,524.249,160,527.766,160C531.283,160,534.8,160,538.317,160C541.834,160,545.351,160,548.868,160C552.385,160,555.902,160,559.42,160C562.937,160,566.454,160,569.971,160C570.002,160,570.032,160,570.063,160C573.58,160,577.097,159.627,580.614,158.88C584.131,158.133,587.648,107.852,591.166,107.852C594.683,107.852,598.2,116.751,601.717,116.751C605.234,116.751,608.751,107.458,612.268,107.458C615.785,107.458,619.302,160,622.819,160C626.336,160,629.854,105.38,633.371,93.723C636.888,82.066,640.405,76.238,643.922,76.238C647.439,76.238,650.956,160,654.473,160C657.99,160,661.507,55.159,665.024,55.159C668.542,55.159,672.059,160,675.576,160C679.093,160,682.61,44.254,686.127,44.254C689.644,44.254,693.161,160,696.678,160C700.195,160,703.712,160,707.23,160C710.747,160,714.264,3.577,717.781,3.577C721.298,3.577,724.815,160,728.332,160C731.849,160,735.366,82.757,738.883,82.757C742.4,82.757,745.918,160,749.435,160C752.952,160,756.469,160,759.986,160" stroke="#7EB26D" stroke-width="1.5"/></g><g class="mark-rule role-mark layer_1_marks" role="graphics-object" aria-roledescription="rule mark container"><line aria-label="ts: May 20, 2026" role="graphics-symbol" aria-roledescription="rule mark" transform="translate(190.03622604906528,0)" x2="0" y2="160" stroke="#5c6e7e" stroke-width="1" stroke-dasharray="4,4"/><line aria-label="ts: May 20, 2026" role="graphics-symbol" aria-roledescription="rule mark" transform="translate(380.04783245313473,0)" x2="0" y2="160" stroke="#5c6e7e" stroke-width="1" stroke-dasharray="4,4"/><line aria-label="ts: May 20, 2026" role="graphics-symbol" aria-roledescription="rule mark" transform="translate(570.0629559493465,0)" x2="0" y2="160" stroke="#5c6e7e" stroke-width="1" stroke-dasharray="4,4"/></g><g class="mark-group role-title"><g transform="translate(-53,-22)"><path class="background" aria-hidden="true" d="M0,0h0v0h0Z" pointer-events="none"/><g><g class="mark-text role-title-text" role="graphics-symbol" aria-roledescription="title" aria-label="Title text 'Mempool Drain Rate (committed tx/s)'" pointer-events="none"><text text-anchor="start" transform="translate(0,10)" font-family="sans-serif" font-size="13px" font-weight="normal" fill="#d0d0d0" opacity="1">Mempool Drain Rate (committed tx/s)</text></g></g><path class="foreground" aria-hidden="true" d="" pointer-events="none" display="none"/></g></g></g><path class="foreground" aria-hidden="true" d="" display="none"/></g></g></g></svg>