<svg xmlns="http://www.w3.org/2000/svg" xmlns:xlink="http://www.w3.org/1999/xlink" version="1.1" class="marks" width="815" height="227" viewBox="0 0 815 227"><rect width="815" height="227" fill="#111217"/><g fill="none" stroke-miterlimit="10" transform="translate(50,31)"><g class="mark-group role-frame root" role="graphics-object" aria-roledescription="group mark container"><g transform="translate(0,0)"><path class="background" aria-hidden="true" d="M0.5,0.5h760v160h-760Z" fill="#181b1f"/><g><g class="mark-group role-axis" aria-hidden="true"><g transform="translate(0.5,160.5)"><path class="background" aria-hidden="true" d="M0,0h0v0h0Z" pointer-events="none"/><g><g class="mark-rule role-axis-grid" pointer-events="none"><line transform="translate(29,-160)" x2="0" y2="160" stroke="#2c3235" stroke-opacity="1" stroke-width="1" opacity="1"/><line transform="translate(83,-160)" x2="0" y2="160" stroke="#2c3235" stroke-opacity="1" stroke-width="1" opacity="1"/><line transform="translate(136,-160)" x2="0" y2="160" stroke="#2c3235" stroke-opacity="1" stroke-width="1" opacity="1"/><line transform="translate(189,-160)" x2="0" y2="160" stroke="#2c3235" stroke-opacity="1" stroke-width="1" opacity="1"/><line transform="translate(243,-160)" x2="0" y2="160" stroke="#2c3235" stroke-opacity="1" stroke-width="1" opacity="1"/><line transform="translate(296,-160)" x2="0" y2="160" stroke="#2c3235" stroke-opacity="1" stroke-width="1" opacity="1"/><line transform="translate(349,-160)" x2="0" y2="160" stroke="#2c3235" stroke-opacity="1" stroke-width="1" opacity="1"/><line transform="translate(403,-160)" x2="0" y2="160" stroke="#2c3235" stroke-opacity="1" stroke-width="1" opacity="1"/><line transform="translate(456,-160)" x2="0" y2="160" stroke="#2c3235" stroke-opacity="1" stroke-width="1" opacity="1"/><line transform="translate(510,-160)" x2="0" y2="160" stroke="#2c3235" stroke-opacity="1" stroke-width="1" opacity="1"/><line transform="translate(563,-160)" x2="0" y2="160" stroke="#2c3235" stroke-opacity="1" stroke-width="1" opacity="1"/><line transform="translate(616,-160)" x2="0" y2="160" stroke="#2c3235" stroke-opacity="1" stroke-width="1" opacity="1"/><line transform="translate(670,-160)" x2="0" y2="160" stroke="#2c3235" stroke-opacity="1" stroke-width="1" opacity="1"/><line transform="translate(723,-160)" x2="0" y2="160" stroke="#2c3235" stroke-opacity="1" stroke-width="1" opacity="1"/></g></g><path class="foreground" aria-hidden="true" d="" pointer-events="none" display="none"/></g></g><g class="mark-group role-axis" aria-hidden="true"><g transform="translate(0.5,0.5)"><path class="background" aria-hidden="true" d="M0,0h0v0h0Z" pointer-events="none"/><g><g class="mark-rule role-axis-grid" pointer-events="none"><line transform="translate(0,160)" x2="760" y2="0" stroke="#2c3235" stroke-opacity="1" stroke-width="1" opacity="1"/><line transform="translate(0,128)" x2="760" y2="0" stroke="#2c3235" stroke-opacity="1" stroke-width="1" opacity="1"/><line transform="translate(0,96)" x2="760" y2="0" stroke="#2c3235" stroke-opacity="1" stroke-width="1" opacity="1"/><line transform="translate(0,64)" x2="760" y2="0" stroke="#2c3235" stroke-opacity="1" stroke-width="1" opacity="1"/><line transform="translate(0,32)" x2="760" y2="0" stroke="#2c3235" stroke-opacity="1" stroke-width="1" opacity="1"/><line transform="translate(0,0)" x2="760" y2="0" stroke="#2c3235" stroke-opacity="1" stroke-width="1" opacity="1"/></g></g><path class="foreground" aria-hidden="true" d="" pointer-events="none" display="none"/></g></g><g class="mark-group role-axis" role="graphics-symbol" aria-roledescription="axis" aria-label="X-axis titled 'Time (UTC)' for a time scale with values from 09:16 to 09:30"><g transform="translate(0.5,160.5)"><path class="background" aria-hidden="true" d="M0,0h0v0h0Z" pointer-events="none"/><g><g class="mark-rule role-axis-tick" pointer-events="none"><line transform="translate(29,0)" x2="0" y2="5" stroke="#9fa7b3" stroke-width="1" opacity="1"/><line transform="translate(83,0)" x2="0" y2="5" stroke="#9fa7b3" stroke-width="1" opacity="1"/><line transform="translate(136,0)" x2="0" y2="5" stroke="#9fa7b3" stroke-width="1" opacity="1"/><line transform="translate(189,0)" x2="0" y2="5" stroke="#9fa7b3" stroke-width="1" opacity="1"/><line transform="translate(243,0)" x2="0" y2="5" stroke="#9fa7b3" stroke-width="1" opacity="1"/><line transform="translate(296,0)" x2="0" y2="5" stroke="#9fa7b3" stroke-width="1" opacity="1"/><line transform="translate(349,0)" x2="0" y2="5" stroke="#9fa7b3" stroke-width="1" opacity="1"/><line transform="translate(403,0)" x2="0" y2="5" stroke="#9fa7b3" stroke-width="1" opacity="1"/><line transform="translate(456,0)" x2="0" y2="5" stroke="#9fa7b3" stroke-width="1" opacity="1"/><line transform="translate(510,0)" x2="0" y2="5" stroke="#9fa7b3" stroke-width="1" opacity="1"/><line transform="translate(563,0)" x2="0" y2="5" stroke="#9fa7b3" stroke-width="1" opacity="1"/><line transform="translate(616,0)" x2="0" y2="5" stroke="#9fa7b3" stroke-width="1" opacity="1"/><line transform="translate(670,0)" x2="0" y2="5" stroke="#9fa7b3" stroke-width="1" opacity="1"/><line transform="translate(723,0)" x2="0" y2="5" stroke="#9fa7b3" stroke-width="1" opacity="1"/></g><g class="mark-text role-axis-label" pointer-events="none"><text text-anchor="middle" transform="translate(29.246335728389194,15)" font-family="sans-serif" font-size="10px" fill="#9fa7b3" opacity="1">09:17</text><text text-anchor="middle" transform="translate(82.61718471112442,15)" font-family="sans-serif" font-size="10px" fill="#9fa7b3" opacity="1">09:18</text><text text-anchor="middle" transform="translate(135.98803369385965,15)" font-family="sans-serif" font-size="10px" fill="#9fa7b3" opacity="1">09:19</text><text text-anchor="middle" transform="translate(189.3588826765949,15)" font-family="sans-serif" font-size="10px" fill="#9fa7b3" opacity="1">09:20</text><text text-anchor="middle" transform="translate(242.72973165933013,15)" font-family="sans-serif" font-size="10px" fill="#9fa7b3" opacity="1">09:21</text><text text-anchor="middle" transform="translate(296.1005806420654,15)" font-family="sans-serif" font-size="10px" fill="#9fa7b3" opacity="1">09:22</text><text text-anchor="middle" transform="translate(349.4714296248006,15)" font-family="sans-serif" font-size="10px" fill="#9fa7b3" opacity="1">09:23</text><text text-anchor="middle" transform="translate(402.84227860753583,15)" font-family="sans-serif" font-size="10px" fill="#9fa7b3" opacity="1">09:24</text><text text-anchor="middle" transform="translate(456.21312759027103,15)" font-family="sans-serif" font-size="10px" fill="#9fa7b3" opacity="1">09:25</text><text text-anchor="middle" transform="translate(509.58397657300634,15)" font-family="sans-serif" font-size="10px" fill="#9fa7b3" opacity="1">09:26</text><text text-anchor="middle" transform="translate(562.9548255557415,15)" font-family="sans-serif" font-size="10px" fill="#9fa7b3" opacity="1">09:27</text><text text-anchor="middle" transform="translate(616.3256745384767,15)" font-family="sans-serif" font-size="10px" fill="#9fa7b3" opacity="1">09:28</text><text text-anchor="middle" transform="translate(669.6965235212119,15)" font-family="sans-serif" font-size="10px" fill="#9fa7b3" opacity="1">09:29</text><text text-anchor="middle" transform="translate(723.0673725039471,15)" font-family="sans-serif" font-size="10px" fill="#9fa7b3" opacity="1">09:30</text></g><g class="mark-rule role-axis-domain" pointer-events="none"><line transform="translate(0,0)" x2="760" y2="0" stroke="#9fa7b3" stroke-width="1" opacity="1"/></g><g class="mark-text role-axis-title" pointer-events="none"><text text-anchor="middle" transform="translate(380,29)" font-family="sans-serif" font-size="10px" font-weight="bold" fill="#9fa7b3" opacity="1">Time (UTC)</text></g></g><path class="foreground" aria-hidden="true" d="" pointer-events="none" display="none"/></g></g><g class="mark-group role-axis" role="graphics-symbol" aria-roledescription="axis" aria-label="Y-axis titled 'blocks' for a linear scale with values from 0 to 1"><g transform="translate(0.5,0.5)"><path class="background" aria-hidden="true" d="M0,0h0v0h0Z" pointer-events="none"/><g><g class="mark-rule role-axis-tick" pointer-events="none"><line transform="translate(0,160)" x2="-5" y2="0" stroke="#9fa7b3" stroke-width="1" opacity="1"/><line transform="translate(0,128)" x2="-5" y2="0" stroke="#9fa7b3" stroke-width="1" opacity="1"/><line transform="translate(0,96)" x2="-5" y2="0" stroke="#9fa7b3" stroke-width="1" opacity="1"/><line transform="translate(0,64)" x2="-5" y2="0" stroke="#9fa7b3" stroke-width="1" opacity="1"/><line transform="translate(0,32)" x2="-5" y2="0" stroke="#9fa7b3" stroke-width="1" opacity="1"/><line transform="translate(0,0)" x2="-5" y2="0" stroke="#9fa7b3" stroke-width="1" opacity="1"/></g><g class="mark-text role-axis-label" pointer-events="none"><text text-anchor="end" transform="translate(-7,163)" font-family="sans-serif" font-size="10px" fill="#9fa7b3" opacity="1">0</text><text text-anchor="end" transform="translate(-7,131)" font-family="sans-serif" font-size="10px" fill="#9fa7b3" opacity="1">0.2</text><text text-anchor="end" transform="translate(-7,99)" font-family="sans-serif" font-size="10px" fill="#9fa7b3" opacity="1">0.4</text><text text-anchor="end" transform="translate(-7,67)" font-family="sans-serif" font-size="10px" fill="#9fa7b3" opacity="1">0.6</text><text text-anchor="end" transform="translate(-7,34.99999999999999)" font-family="sans-serif" font-size="10px" fill="#9fa7b3" opacity="1">0.8</text><text text-anchor="end" transform="translate(-7,3)" font-family="sans-serif" font-size="10px" fill="#9fa7b3" opacity="1">1</text></g><g class="mark-rule role-axis-domain" pointer-events="none"><line transform="translate(0,160)" x2="0" y2="-160" stroke="#9fa7b3" stroke-width="1" opacity="1"/></g><g class="mark-text role-axis-title" pointer-events="none"><text text-anchor="middle" transform="translate(-35,80) rotate(-90) translate(0,-2)" font-family="sans-serif" font-size="10px" font-weight="bold" fill="#9fa7b3" opacity="1">blocks</text></g></g><path class="foreground" aria-hidden="true" d="" pointer-events="none" display="none"/></g></g><g class="mark-line role-mark layer_0_marks" role="graphics-object" aria-roledescription="line mark container"><path aria-label="ts: 09:16; value: 0" role="graphics-symbol" aria-roledescription="line mark" d="M0,160C4.448,160,8.895,160,13.343,160C17.79,160,22.238,0,26.685,0C31.133,0,35.581,0,40.028,0C44.476,0,48.923,0,53.371,0C57.818,0,62.266,0,66.714,0C71.161,0,75.609,0,80.056,0C84.504,0,88.951,0,93.399,0C97.847,0,102.294,0,106.742,0C111.189,0,115.637,0,120.084,0C124.532,0,128.98,0,133.427,0C137.875,0,142.322,0,146.77,0C151.217,0,155.665,0,160.113,0C164.56,0,169.008,0,173.455,0C177.903,0,182.35,0,186.798,0C191.246,0,195.693,0,200.141,0C204.588,0,209.036,0,213.483,0C217.931,0,222.379,0,226.826,0C231.274,0,235.721,0,240.169,0C244.616,0,249.064,0,253.512,0C257.959,0,262.407,0,266.854,0C271.302,0,275.749,0,280.197,0C284.645,0,289.092,0,293.54,0C297.987,0,302.435,0,306.882,0C311.33,0,315.778,0,320.225,0C324.673,0,329.12,0,333.568,0C338.015,0,342.463,0,346.911,0C351.358,0,355.806,0,360.253,0C364.701,0,369.148,0,373.596,0C378.044,0,382.491,0,386.939,0C391.386,0,395.834,0,400.281,0C404.729,0,409.177,0,413.624,0C418.072,0,422.519,0,426.967,0C431.414,0,435.862,0,440.31,0C444.757,0,449.205,0,453.652,0C458.1,0,462.547,0,466.995,0C471.442,0,475.89,0,480.338,0C484.785,0,489.233,0,493.68,0C498.128,0,502.575,0,507.023,0C511.471,0,515.918,0,520.366,0C524.813,0,529.261,0,533.708,0C538.156,0,542.604,0,547.051,0C551.499,0,555.946,0,560.394,0C564.841,0,569.289,0,573.737,0C578.184,0,582.632,0,587.079,0C591.527,0,595.974,0,600.422,0C604.87,0,609.317,0,613.765,0C618.212,0,622.66,0,627.107,0C631.555,0,636.003,0,640.45,0C644.898,0,649.345,0,653.793,0C658.24,0,662.688,0,667.136,0C671.583,0,676.031,0,680.478,0C684.926,0,689.373,0,693.821,0C698.269,0,702.716,0,707.164,0C711.611,0,716.059,0,720.506,0C724.954,0,729.402,0,733.849,0C738.297,0,742.744,0,747.192,0" stroke="#7EB26D" stroke-width="1.5"/></g><g class="mark-group role-title"><g transform="translate(-45,-26)"><path class="background" aria-hidden="true" d="M0,0h0v0h0Z" pointer-events="none"/><g><g class="mark-text role-title-text" role="graphics-symbol" aria-roledescription="title" aria-label="Title text 'Submitted Blocks'" pointer-events="none"><text text-anchor="start" transform="translate(0,10)" font-family="sans-serif" font-size="13px" font-weight="normal" fill="#d0d0d0" opacity="1">Submitted Blocks</text></g></g><path class="foreground" aria-hidden="true" d="" pointer-events="none" display="none"/></g></g></g><path class="foreground" aria-hidden="true" d="" display="none"/></g></g></g></svg>