<?xml version="1.0" encoding="UTF-8" standalone="no"?>
<!-- Created with Inkscape (http://www.inkscape.org/) -->

<svg
   version="1.1"
   id="svg1"
   width="210mm"
   height="64mm"
   viewBox="0 0 793.7008 241.88976"
   sodipodi:docname="midgard-logo-whitepaper-bar-5-clipped.svg"
   inkscape:version="1.4 (e7c3feb100, 2024-10-09)"
   inkscape:export-filename="midgard-logo-whitepaper-bar-5-clipped-plain.svg"
   inkscape:export-xdpi="300"
   inkscape:export-ydpi="300"
   xmlns:inkscape="http://www.inkscape.org/namespaces/inkscape"
   xmlns:sodipodi="http://sodipodi.sourceforge.net/DTD/sodipodi-0.dtd"
   xmlns:xlink="http://www.w3.org/1999/xlink"
   xmlns="http://www.w3.org/2000/svg"
   xmlns:svg="http://www.w3.org/2000/svg">
  <defs
     id="defs1">
    <linearGradient
       id="linearGradient1"
       inkscape:collect="always">
      <stop
         style="stop-color:#05501a;stop-opacity:1;"
         offset="0"
         id="stop1" />
      <stop
         style="stop-color:#259850;stop-opacity:1;"
         offset="0.28289065"
         id="stop3" />
      <stop
         style="stop-color:#ffffff;stop-opacity:1;"
         offset="0.60945457"
         id="stop4" />
      <stop
         style="stop-color:#ffffff;stop-opacity:1;"
         offset="1"
         id="stop2" />
    </linearGradient>
    <radialGradient
       inkscape:collect="always"
       xlink:href="#linearGradient1"
       id="radialGradient2"
       cx="-114.70889"
       cy="442.81476"
       fx="-114.70889"
       fy="442.81476"
       r="171.74292"
       gradientTransform="matrix(4.2913436,-4.3018887e-7,1.1500859e-7,4.2913432,889.10563,-1786.8843)"
       gradientUnits="userSpaceOnUse" />
    <clipPath
       clipPathUnits="userSpaceOnUse"
       id="clipPath2">
      <rect
         style="fill:#ffffff"
         id="rect3"
         width="793.70081"
         height="241.88977"
         x="0"
         y="-2.3374741e-06" />
    </clipPath>
  </defs>
  <sodipodi:namedview
     id="namedview1"
     pagecolor="#ffffff"
     bordercolor="#000000"
     borderopacity="0.25"
     inkscape:showpageshadow="2"
     inkscape:pageopacity="0.0"
     inkscape:pagecheckerboard="0"
     inkscape:deskcolor="#d1d1d1"
     inkscape:zoom="1.560472"
     inkscape:cx="421.66729"
     inkscape:cy="7.3695651"
     inkscape:window-width="5110"
     inkscape:window-height="1351"
     inkscape:window-x="26"
     inkscape:window-y="23"
     inkscape:window-maximized="0"
     inkscape:current-layer="g1"
     showguides="true"
     inkscape:lockguides="false"
     inkscape:document-units="mm">
    <sodipodi:guide
       position="241.88976,659.52757"
       orientation="-1,0"
       id="guide3"
       inkscape:locked="false"
       inkscape:label=""
       inkscape:color="rgb(0,134,229)" />
    <sodipodi:guide
       position="952.44092,659.52758"
       orientation="-1,0"
       id="guide4"
       inkscape:locked="false"
       inkscape:label=""
       inkscape:color="rgb(0,134,229)" />
    <sodipodi:guide
       position="-188.97638,464.88189"
       orientation="0,1"
       id="guide6"
       inkscape:locked="false"
       inkscape:label=""
       inkscape:color="rgb(0,134,229)" />
    <sodipodi:guide
       position="-188.97638,282.51969"
       orientation="0,1"
       id="guide7"
       inkscape:locked="false"
       inkscape:label=""
       inkscape:color="rgb(0,134,229)" />
    <sodipodi:guide
       position="-188.97638,128.50393"
       orientation="0,1"
       id="guide8"
       inkscape:locked="false"
       inkscape:label=""
       inkscape:color="rgb(0,134,229)" />
    <sodipodi:guide
       position="396.8504,659.52756"
       orientation="-1,0"
       id="guide9"
       inkscape:locked="false"
       inkscape:label=""
       inkscape:color="rgb(0,134,229)" />
    <sodipodi:guide
       position="551.81101,451.65354"
       orientation="-1,0"
       id="guide10"
       inkscape:locked="false"
       inkscape:label=""
       inkscape:color="rgb(0,134,229)" />
    <sodipodi:guide
       position="1133.8583,659.52756"
       orientation="-1,0"
       id="guide5"
       inkscape:locked="false"
       inkscape:label=""
       inkscape:color="rgb(0,134,229)" />
    <sodipodi:guide
       position="1017.6408,891.9685"
       orientation="0,1"
       id="guide11"
       inkscape:locked="false"
       inkscape:label=""
       inkscape:color="rgb(0,134,229)" />
    <sodipodi:guide
       position="793.70077,451.65354"
       orientation="-1,0"
       id="guide12"
       inkscape:locked="false"
       inkscape:label=""
       inkscape:color="rgb(0,134,229)" />
    <sodipodi:guide
       position="0,451.65354"
       orientation="-1,0"
       id="guide13"
       inkscape:locked="false"
       inkscape:label=""
       inkscape:color="rgb(0,134,229)" />
    <sodipodi:guide
       position="-188.97638,241.88976"
       orientation="0,1"
       id="guide14"
       inkscape:locked="false"
       inkscape:label=""
       inkscape:color="rgb(0,134,229)" />
    <sodipodi:guide
       position="-188.97638,0"
       orientation="0,1"
       id="guide15"
       inkscape:locked="false"
       inkscape:label=""
       inkscape:color="rgb(0,134,229)" />
  </sodipodi:namedview>
  <g
     inkscape:groupmode="layer"
     inkscape:label="Image"
     id="g1">
    <g
       id="g2"
       clip-path="url(#clipPath2)">
      <rect
         style="mix-blend-mode:normal;fill:url(#radialGradient2);stroke-width:3.12003"
         id="rect1"
         width="793.70081"
         height="793.70081"
         x="-1.6469727e-05"
         y="-283.46457" />
      <path
         style="fill:#ebebeb;fill-opacity:1;stroke-width:0.293243"
         d="m 385.99462,212.49664 c -8.19122,-1.12298 -14.37134,-2.50382 -20.52699,-4.58643 -30.05589,-10.16861 -53.41985,-33.82485 -63.15699,-63.94706 -3.56621,-11.03221 -4.92658,-20.64411 -4.63451,-32.74588 0.16745,-6.93839 0.58255,-11.04268 1.69048,-16.714825 5.74328,-29.403098 24.84115,-54.946298 51.60234,-69.017572 15.15066,-7.966354 31.50581,-11.729797 48.80809,-11.231106 10.51181,0.302976 19.22285,1.834034 28.8084,5.063384 33.62722,11.328967 58.85378,39.937752 65.90876,74.745424 1.48404,7.321905 1.67608,9.996225 1.52691,21.260085 -0.12674,9.56846 -0.19908,10.74705 -0.8946,14.57747 -2.867,15.78916 -8.29472,28.77033 -17.42987,41.68613 -2.9587,4.18316 -6.32915,8.10517 -10.747,12.50565 -14.49372,14.4368 -32.67556,23.8455 -53.36395,27.6147 -3.90244,0.71097 -4.75801,0.75711 -15.4215,0.83168 -6.20941,0.0434 -11.68572,0.0247 -12.16957,-0.0417 z m 20.60864,-7.89209 c 40.55027,-4.23051 74.02528,-35.80157 80.67447,-76.08597 1.90487,-11.54082 1.51075,-23.95992 -1.126,-35.482355 C 483.24444,80.331509 477.35788,68.084605 468.95798,57.264729 465.70715,53.077356 458.3042,45.600693 454.02694,42.185017 433.65243,25.914662 408.07197,19.165248 382.32909,23.267524 367.18711,25.680487 352.2665,32.328029 339.9516,42.14786 c -3.81942,3.045581 -11.39062,10.628406 -14.50401,14.526279 -8.60111,10.768317 -14.77867,23.58682 -17.7485,36.828356 -1.70069,7.582845 -2.02094,10.717175 -2.03472,19.914085 -0.0112,7.45669 0.0715,9.06383 0.67142,13.0493 2.63135,17.48172 9.76038,33.12911 21.17605,46.47897 2.98883,3.49524 9.09597,9.40283 12.72449,12.30872 13.50741,10.8174 30.77865,17.85113 47.81099,19.47108 4.46708,0.42486 13.91869,0.36369 18.55594,-0.1201 z m -53.53487,-24.05319 c -1.44324,-1.01089 -1.95161,-3.29145 -1.06451,-4.77546 0.2559,-0.42809 1.47653,-1.52539 2.71249,-2.43843 4.98818,-3.68491 11.42612,-10.01437 15.76897,-15.50326 7.98203,-10.08842 12.88754,-21.68596 13.51263,-31.94635 l 0.17241,-2.82996 -1.43382,-0.53708 c -0.7886,-0.29539 -2.84444,-1.1937 -4.56853,-1.99625 l -3.13471,-1.45917 -2.73015,1.32051 c -4.68588,2.26647 -10.37173,3.83359 -15.27711,4.21064 l -2.49005,0.1914 -0.52325,1.93306 c -0.68255,2.52151 -2.40844,5.91494 -4.08806,8.03789 -4.38824,5.54648 -15.01382,9.65767 -25.11902,9.7189 -3.52974,0.0214 -3.75045,-0.0122 -4.46344,-0.68041 -1.65314,-1.54921 -1.60865,-3.96181 0.0996,-5.39917 0.73552,-0.61889 1.21415,-0.71576 4.30576,-0.8714 7.8016,-0.39276 14.99285,-2.8245 18.63981,-6.30312 1.64562,-1.56965 3.7526,-5.04826 3.7526,-6.19552 0,-0.3767 -0.6418,-0.59569 -3.00102,-1.024 -6.70864,-1.21795 -14.34203,-4.38268 -19.98888,-8.28722 -3.46719,-2.3974 -4.13505,-3.1952 -4.13505,-4.93956 0,-1.60227 0.84164,-2.80269 2.30976,-3.2944 1.46945,-0.49214 2.67578,-0.0386 5.41408,2.03542 5.17232,3.91763 13.00159,6.97416 20.17804,7.87746 4.40239,0.55413 10.0602,0.21429 14.17845,-0.85165 1.85476,-0.48007 3.87134,-1.08681 4.48129,-1.3483 l 1.10901,-0.47544 -2.13536,-1.69832 c -2.77004,-2.20312 -4.61734,-4.26578 -6.72862,-7.51305 -2.61952,-4.02897 -4.68609,-9.595638 -5.11444,-13.776625 -0.16443,-1.604876 -0.10299,-2.020246 0.42522,-2.874926 1.05425,-1.7058 3.16789,-2.19393 4.90722,-1.13329 1.05707,0.6446 1.30088,1.23404 2.1365,5.165326 0.45654,2.14783 1.07036,3.834717 2.29413,6.304717 1.49652,3.020488 1.96317,3.665228 4.47326,6.180378 1.54134,1.54444 3.79164,3.45785 5.00066,4.25201 2.30249,1.51243 9.8289,5.40271 10.45246,5.40271 0.41376,0 0.3453,-0.66553 -0.52789,-5.13175 -1.26151,-6.45237 -4.37494,-13.948928 -8.28157,-19.940481 -1.46487,-2.24666 -6.21844,-8.85745 -6.92593,-9.63191 -0.12468,-0.13647 -1.19709,0.085 -2.38314,0.4921 -5.68886,1.95277 -10.07558,2.68212 -16.08548,2.67442 -5.17084,-0.007 -6.85037,-0.30285 -11.80244,-2.08159 -4.55127,-1.63477 -9.13528,-4.504227 -10.06369,-6.299574 -0.70046,-1.354552 -0.40261,-3.047686 0.73655,-4.186843 0.76264,-0.762639 1.13185,-0.907111 2.3182,-0.907111 1.25583,0 1.63335,0.171588 3.43134,1.559623 2.41598,1.865109 5.29825,3.295157 8.48883,4.211766 1.99937,0.574386 2.99577,0.671256 6.74459,0.655694 2.90422,-0.01205 5.29529,-0.191728 7.03782,-0.528852 3.28053,-0.634674 6.8912,-1.662372 6.8912,-1.961427 0,-0.123649 -0.68303,-1.323932 -1.51785,-2.667295 -1.85442,-2.984049 -3.77906,-7.045751 -4.59921,-9.70606 -0.79986,-2.594453 -1.71792,-7.54363 -2.07407,-11.18113 -0.33435,-3.414776 -0.0318,-4.511776 1.50222,-5.447054 2.65212,-1.616952 5.44597,0.348648 5.49939,3.869074 0.0297,1.9606 0.93853,7.3468 1.65913,9.833448 1.29639,4.473579 4.27733,9.763522 9.27429,16.458038 1.63995,2.197083 4.13426,5.613113 5.54289,7.591173 1.40863,1.97806 2.61877,3.49559 2.68919,3.37229 0.27426,-0.48017 1.66885,-6.23059 2.15234,-8.874842 0.74135,-4.054526 0.70049,-12.365777 -0.0793,-16.142714 -0.64624,-3.129902 -0.52777,-4.181365 0.5894,-5.230887 1.79775,-1.688899 4.64918,-0.772328 5.38217,1.730056 1.35053,4.610629 1.71121,13.134669 0.82437,19.482265 -0.59634,4.268262 -2.08035,10.162882 -3.53519,14.042038 l -1.08167,2.88416 1.47091,3.713797 c 1.99922,5.047688 2.15691,5.679998 6.3745,25.560368 2.03585,9.59637 3.75581,17.50293 3.82212,17.57013 0.0663,0.0672 0.17072,0.0672 0.232,0 0.0613,-0.0672 1.7915,-8.03974 3.84491,-17.71675 4.07147,-19.18728 4.52359,-20.98957 6.48776,-25.861368 l 1.32308,-3.281697 -1.08183,-2.8764 c -1.34053,-3.564276 -2.86279,-9.515716 -3.51657,-13.748456 -0.94717,-6.13239 -0.53382,-15.831421 0.85471,-20.054324 0.7854,-2.388617 3.8772,-3.056868 5.53901,-1.197172 0.96462,1.079502 1.02567,2.112714 0.31271,5.291849 -0.71346,3.181278 -0.70179,12.009408 0.0211,15.981727 0.54156,2.9759 1.82259,8.2254 2.12771,8.7191 0.0919,0.1487 0.63674,-0.43267 1.21077,-1.29194 0.57402,-0.85927 2.8509,-4.00355 5.05978,-6.9873 9.01437,-12.176682 11.16744,-16.512155 12.45129,-25.072247 0.2419,-1.612835 0.44057,-3.431511 0.44154,-4.041506 0.005,-3.321199 2.91503,-5.308787 5.48129,-3.74402 0.51388,0.313333 1.09725,0.873667 1.29637,1.245185 0.45675,0.852219 0.39669,3.274057 -0.18612,7.508303 -0.9136,6.637117 -2.54104,11.334739 -5.85935,16.91301 -1.04687,1.759911 -1.90343,3.28582 -1.90343,3.390903 0,0.269654 3.76523,1.322903 6.8912,1.927675 1.74254,0.337124 4.13358,0.516796 7.03782,0.528852 3.73644,0.01551 4.74634,-0.08202 6.7084,-0.647829 3.08312,-0.889109 6.38765,-2.533561 8.50354,-4.23168 2.10522,-1.689541 3.38953,-2.013053 4.86094,-1.224435 1.43906,0.771296 2.21841,2.296416 1.9378,3.792144 -0.52628,2.805286 -6.54828,6.370315 -14.48739,8.576525 -2.54423,0.70703 -3.32217,0.78697 -7.66991,0.78817 -2.72554,8.8e-4 -5.79896,-0.16854 -7.03782,-0.38767 -3.10107,-0.54851 -7.66557,-1.7117 -9.40057,-2.39557 -0.80912,-0.31892 -1.57216,-0.57987 -1.69562,-0.57987 -0.2948,0 -5.14521,6.57264 -7.40564,10.03519 -3.80828,5.833483 -6.92701,13.343531 -8.13206,19.582311 -0.9804,5.07584 -1.00204,5.27837 -0.56405,5.27837 0.65868,0 8.14121,-3.87757 10.48155,-5.43173 4.19648,-2.78675 7.591,-6.51349 9.60953,-10.549988 1.03618,-2.07207 2.25519,-5.849887 2.55356,-7.913687 0.27709,-1.916716 0.84818,-2.971566 1.9045,-3.517806 1.81989,-0.9411 4.00856,-0.26657 4.84337,1.49268 0.55695,1.17371 0.55675,1.883336 0,4.567966 -1.64943,7.934005 -5.67947,14.705685 -11.513,19.345315 l -2.13537,1.69832 1.10902,0.47544 c 0.60994,0.26149 2.62651,0.88079 4.48127,1.37621 3.17826,0.84894 3.69293,0.90219 8.9439,0.92531 4.36369,0.0192 6.11051,-0.0916 8.05717,-0.511 6.50738,-1.40207 13.16498,-4.30431 17.71394,-7.72198 2.25568,-1.69472 2.77117,-1.95711 3.84488,-1.95711 2.49655,0 4.15988,2.26122 3.38669,4.60404 -0.40045,1.21335 -1.62468,2.28896 -5.37534,4.72274 -5.30192,3.44037 -12.35836,6.23419 -18.61484,7.37004 -2.3592,0.42831 -3.00102,0.6473 -3.00102,1.024 0,1.14726 2.10698,4.62587 3.7526,6.19552 3.64697,3.47862 10.83822,5.91036 18.63982,6.30312 3.10591,0.15636 3.568,0.25063 4.31674,0.88065 1.6104,1.35505 1.66014,3.91526 0.10445,5.37675 -0.62425,0.58644 -1.12174,0.72523 -2.92629,0.81636 -6.33551,0.31992 -15.63638,-1.99288 -21.39476,-5.32016 -4.59438,-2.6547 -8.21088,-7.63323 -9.54496,-13.13971 l -0.32743,-1.35151 -2.50107,-0.19225 c -4.91281,-0.37763 -10.52642,-1.91709 -15.30469,-4.19713 l -2.75252,-1.31342 -3.11233,1.44868 c -1.71178,0.79677 -3.75785,1.69047 -4.54685,1.98601 l -1.43451,0.53734 0.1872,3.09663 c 0.81273,13.4439 8.77444,28.34228 21.78398,40.76321 2.67464,2.55365 8.03567,7.08673 9.25949,7.8295 0.75736,0.45966 1.40249,1.69038 1.40249,2.67553 0,2.13422 -1.46472,3.58572 -3.61838,3.58572 -1.16667,0 -1.60451,-0.23649 -4.47893,-2.41925 -3.60433,-2.73702 -10.86872,-9.68198 -14.0329,-13.41585 -6.77103,-7.99012 -11.32688,-15.64339 -14.38634,-24.16733 l -0.93823,-2.614 -0.51194,2.32075 c -1.35196,6.1288 -4.59004,15.00711 -5.89984,16.17647 -0.87016,0.77687 -2.06458,0.84941 -3.01579,0.18316 -1.25436,-0.87859 -4.27042,-8.81225 -5.76643,-15.16847 l -0.81802,-3.47553 -0.97851,2.70658 c -4.44331,12.29047 -13.2619,24.54366 -24.88101,34.57159 -4.7601,4.10823 -6.58488,5.30188 -8.1052,5.30188 -0.70973,0 -1.58445,-0.20595 -1.94383,-0.45766 z m -17.01401,-27.15435 c 0.16641,-2.59309 1.09734,-4.85364 2.75392,-6.68727 1.06552,-1.17941 3.7001,-2.93391 4.41441,-2.93979 0.95015,-0.008 0.6013,4.02544 -0.54372,6.28603 -1.30471,2.57586 -3.7614,4.78285 -5.9171,5.3157 l -0.84769,0.20953 z m 119.87863,1.44677 c -2.96485,-1.4664 -5.36681,-5.07398 -5.71527,-8.58402 -0.25629,-2.58135 0.0359,-2.84003 2.03426,-1.80107 3.28338,1.70704 5.3581,4.95253 5.65225,8.84182 0.19081,2.52309 0.12073,2.57796 -1.97124,1.54327 z m -107.03359,-6.75157 c 0,-4.12284 2.33458,-7.93587 5.96717,-9.74606 l 1.49469,-0.74484 0.24534,0.66323 c 0.32091,0.8675 -0.008,3.20905 -0.71988,5.12192 -0.93092,2.50212 -3.90776,5.36641 -6.32753,6.08829 -0.62692,0.18702 -0.65979,0.11815 -0.65979,-1.38254 z m 94.21769,0.79506 c -1.70269,-0.84848 -3.84852,-3.00357 -4.74986,-4.77033 -0.79011,-1.54878 -1.40883,-5.0717 -1.03702,-5.90492 l 0.27585,-0.61823 1.50994,0.75244 c 1.90396,0.94879 4.03097,3.20495 4.98401,5.28664 0.7668,1.67496 1.33601,5.99919 0.78964,5.99919 -0.15287,0 -0.95055,-0.33516 -1.77256,-0.74479 z m -80.41878,-5.58314 c -1.32705,-3.54684 -1.08571,-7.91367 0.63807,-11.54552 0.98761,-2.0808 4.43162,-5.91336 4.8763,-5.42644 0.57312,0.62754 1.26904,3.35276 1.41948,5.5587 0.3222,4.72422 -1.98416,9.97061 -5.47629,12.45723 l -0.84251,0.59991 z m 65.89658,-0.13801 c -3.11283,-3.11669 -4.59054,-7.11735 -4.25161,-11.5105 0.15463,-2.00459 0.87418,-4.75115 1.38704,-5.29432 0.34494,-0.36538 2.85864,2.04796 4.02713,3.86637 2.14263,3.33436 2.87298,7.41299 2.00959,11.22262 -0.27052,1.19366 -0.66988,2.49362 -0.88744,2.88881 l -0.39558,0.71851 z M 325.03946,130.98579 c -2.02251,-0.48954 -4.71805,-1.86683 -6.25663,-3.19683 l -1.09388,-0.94558 1.60289,-0.92469 c 5.29333,-3.05364 11.848,-2.57682 16.91576,1.23052 0.68047,0.51123 1.2413,1.07607 1.24629,1.2552 0.0144,0.5165 -3.23728,2.10965 -5.2966,2.59507 -2.30234,0.5427 -4.83931,0.53782 -7.11783,-0.0137 z m 136.69436,0.01 c -1.66418,-0.40345 -5.02562,-1.93447 -5.33059,-2.42789 -0.21204,-0.3431 2.85686,-2.61105 4.51491,-3.33658 4.51969,-1.97771 9.75073,-1.66928 14.00859,0.826 l 1.35082,0.79163 -1.15506,0.97544 c -3.6367,3.07117 -8.77836,4.28909 -13.38867,3.1714 z M 355.28638,113.27675 c -3.33763,-0.60015 -6.45832,-2.68107 -8.41503,-5.61126 -1.76706,-2.64618 -1.6818,-2.89956 0.97559,-2.89956 4.98349,0 9.34902,2.57365 11.47203,6.76321 0.41971,0.82824 0.71448,1.55452 0.65505,1.61395 -0.26802,0.26802 -3.43779,0.3584 -4.68764,0.13366 z m 79.44665,0.0751 c -0.98734,-0.14869 -0.90644,-0.65787 0.44465,-2.79899 2.33383,-3.6985 6.29809,-5.77585 11.0368,-5.78349 l 2.1578,-0.004 -0.19694,0.78461 c -0.28776,1.14652 -2.1178,3.78644 -3.30086,4.76161 -2.84821,2.34773 -6.82387,3.53937 -10.14145,3.03974 z M 395.52501,103.1956 c -1.83017,-1.34435 -3.17848,-2.95462 -4.07575,-4.867628 -0.67746,-1.44437 -0.76247,-1.98691 -0.76017,-4.851877 0.002,-2.41587 0.12915,-3.506856 0.50673,-4.345716 l 0.50414,-1.12004 0.90977,0.53356 c 0.96002,0.56303 3.44547,3.059966 4.03382,4.052466 l 0.34767,0.58648 0.34767,-0.58648 c 0.58835,-0.9925 3.07381,-3.489436 4.03383,-4.052466 l 0.90975,-0.53356 0.50415,1.12004 c 0.37758,0.83886 0.50479,1.929846 0.50672,4.345716 0.003,2.920557 -0.0729,3.379247 -0.7956,4.849427 -0.98623,2.006258 -2.51992,3.827258 -4.1927,4.978168 -0.70008,0.48167 -1.31507,0.87248 -1.36666,0.86849 -0.0516,-0.004 -0.6876,-0.44346 -1.41337,-0.97658 z m -59.61256,-5.918438 c -2.47201,-0.49163 -4.72284,-1.50724 -7.10035,-3.203797 -2.06919,-1.47654 -4.47388,-4.162526 -4.07348,-4.549996 0.65854,-0.63727 4.27044,-1.53898 6.71286,-1.67588 5.84678,-0.32769 11.87143,2.27204 15.21717,6.566446 l 1.09078,1.400067 -1.19019,0.50547 c -1.68187,0.71429 -5.2842,1.41358 -7.11454,1.38108 -0.85353,-0.0152 -2.44755,-0.20568 -3.54225,-0.42339 z m 114.68261,-0.019 c -1.08113,-0.23219 -2.51315,-0.65467 -3.18227,-0.93885 l -1.21661,-0.51669 1.34693,-1.653507 c 1.52627,-1.87364 4.93785,-4.285516 7.32546,-5.178836 3.77967,-1.41415 8.50096,-1.5385 12.20767,-0.32153 1.04834,0.34419 2.01147,0.72643 2.14026,0.84943 0.39919,0.38118 -2.02226,3.130986 -3.99974,4.542076 -2.39717,1.710577 -4.53192,2.650887 -7.33066,3.228977 -2.68168,0.55392 -4.67438,0.55089 -7.29104,-0.0111 z M 349.79121,70.828054 c -4.46614,-0.836858 -9.08702,-5.005564 -10.74005,-9.689073 -1.03172,-2.923166 -1.00779,-3.003855 0.83105,-2.801983 5.04402,0.553744 9.64667,3.733363 11.81312,8.160771 0.55244,1.128984 1.12502,2.613525 1.27241,3.29898 l 0.26798,1.246282 -1.36174,-0.03993 c -0.74895,-0.02196 -1.6862,-0.100735 -2.08277,-0.175043 z m 91.22349,-1.031305 c 0.42834,-1.992121 2.15809,-5.236344 3.58689,-6.727345 2.55121,-2.662301 5.92048,-4.339461 9.5096,-4.733702 l 1.55046,-0.17031 -0.19703,1.087142 c -1.12274,6.194957 -7.50913,11.769849 -13.50277,11.787016 l -1.21511,0.0035 z m -68.34516,-9.487967 c -2.52691,-2.33947 -3.83682,-5.055674 -4.04464,-8.386891 -0.11305,-1.811961 -0.0239,-2.908803 0.33739,-4.151648 l 0.49104,-1.689092 1.37944,1.015097 c 1.7016,1.252167 3.70176,4.095985 4.30166,6.116093 0.74265,2.50075 0.423,8.740166 -0.44775,8.740166 -0.13294,0 -1.04066,-0.739675 -2.01714,-1.643725 z m 45.99708,0.104201 c -0.51057,-2.088891 -0.45526,-5.002917 0.13337,-7.025946 0.62651,-2.153163 2.59296,-4.998072 4.347,-6.288794 l 1.37674,-1.013107 0.45602,1.535571 c 0.8936,3.009128 0.44837,6.638657 -1.18182,9.633841 -0.75909,1.394692 -3.92861,4.697959 -4.50773,4.697959 -0.13601,0 -0.41661,-0.692786 -0.62358,-1.539524 z M 395.90669,57.18531 c -2.34758,-3.463193 -3.24511,-7.938956 -2.4077,-12.006514 0.39706,-1.928667 2.11362,-5.51056 3.07258,-6.411448 0.70379,-0.661183 0.72534,-0.663189 1.15547,-0.10745 0.24107,0.311465 0.89975,1.490013 1.46374,2.618999 2.00423,4.012032 2.05086,8.921824 0.12388,13.041793 -0.89109,1.905183 -2.17519,3.821404 -2.55829,3.817659 -0.11276,-0.0012 -0.49512,-0.42997 -0.84968,-0.953039 z"
         id="path1" />
      <path
         id="rect11"
         style="font-variation-settings:normal;vector-effect:none;fill:#ffffff;fill-opacity:1;stroke-width:1.17997;stroke-linecap:butt;stroke-linejoin:miter;stroke-miterlimit:4;stroke-dasharray:none;stroke-dashoffset:0;stroke-opacity:1;-inkscape-stroke:none;stop-color:#000000"
         d="m -1.334918e-6,241.88976 c 0,0 263.690061334918,-15.11811 396.850381334918,-15.11811 133.16032,0 396.85039,15.11811 396.85039,15.11811 V 500.7874 H -1.334918e-6 Z"
         sodipodi:nodetypes="cscccc" />
    </g>
  </g>
</svg>
