<svg xmlns="http://www.w3.org/2000/svg" xmlns:xlink="http://www.w3.org/1999/xlink" version="1.1" class="marks" width="817" height="222" viewBox="0 0 817 222"><rect width="817" height="222" fill="#111217"/><g fill="none" stroke-miterlimit="10" transform="translate(50,26)"><g class="mark-group role-frame root" role="graphics-object" aria-roledescription="group mark container"><g transform="translate(0,0)"><path class="background" aria-hidden="true" d="M0.5,0.5h760v160h-760Z" fill="#181b1f"/><g><g class="mark-group role-axis" aria-hidden="true"><g transform="translate(0.5,160.5)"><path class="background" aria-hidden="true" d="M0,0h0v0h0Z" pointer-events="none"/><g><g class="mark-rule role-axis-grid" pointer-events="none"><line transform="translate(2,-160)" x2="0" y2="160" stroke="#2c3235" stroke-opacity="1" stroke-width="1" opacity="1"/><line transform="translate(34,-160)" x2="0" y2="160" stroke="#2c3235" stroke-opacity="1" stroke-width="1" opacity="1"/><line transform="translate(66,-160)" x2="0" y2="160" stroke="#2c3235" stroke-opacity="1" stroke-width="1" opacity="1"/><line transform="translate(97,-160)" x2="0" y2="160" stroke="#2c3235" stroke-opacity="1" stroke-width="1" opacity="1"/><line transform="translate(129,-160)" x2="0" y2="160" stroke="#2c3235" stroke-opacity="1" stroke-width="1" opacity="1"/><line transform="translate(161,-160)" x2="0" y2="160" stroke="#2c3235" stroke-opacity="1" stroke-width="1" opacity="1"/><line transform="translate(192,-160)" x2="0" y2="160" stroke="#2c3235" stroke-opacity="1" stroke-width="1" opacity="1"/><line transform="translate(224,-160)" x2="0" y2="160" stroke="#2c3235" stroke-opacity="1" stroke-width="1" opacity="1"/><line transform="translate(256,-160)" x2="0" y2="160" stroke="#2c3235" stroke-opacity="1" stroke-width="1" opacity="1"/><line transform="translate(287,-160)" x2="0" y2="160" stroke="#2c3235" stroke-opacity="1" stroke-width="1" opacity="1"/><line transform="translate(319,-160)" x2="0" y2="160" stroke="#2c3235" stroke-opacity="1" stroke-width="1" opacity="1"/><line transform="translate(351,-160)" x2="0" y2="160" stroke="#2c3235" stroke-opacity="1" stroke-width="1" opacity="1"/><line transform="translate(382,-160)" x2="0" y2="160" stroke="#2c3235" stroke-opacity="1" stroke-width="1" opacity="1"/><line transform="translate(414,-160)" x2="0" y2="160" stroke="#2c3235" stroke-opacity="1" stroke-width="1" opacity="1"/><line transform="translate(446,-160)" x2="0" y2="160" stroke="#2c3235" stroke-opacity="1" stroke-width="1" opacity="1"/><line transform="translate(477,-160)" x2="0" y2="160" stroke="#2c3235" stroke-opacity="1" stroke-width="1" opacity="1"/><line transform="translate(509,-160)" x2="0" y2="160" stroke="#2c3235" stroke-opacity="1" stroke-width="1" opacity="1"/><line transform="translate(541,-160)" x2="0" y2="160" stroke="#2c3235" stroke-opacity="1" stroke-width="1" opacity="1"/><line transform="translate(572,-160)" x2="0" y2="160" stroke="#2c3235" stroke-opacity="1" stroke-width="1" opacity="1"/><line transform="translate(604,-160)" x2="0" y2="160" stroke="#2c3235" stroke-opacity="1" stroke-width="1" opacity="1"/><line transform="translate(636,-160)" x2="0" y2="160" stroke="#2c3235" stroke-opacity="1" stroke-width="1" opacity="1"/><line transform="translate(667,-160)" x2="0" y2="160" stroke="#2c3235" stroke-opacity="1" stroke-width="1" opacity="1"/><line transform="translate(699,-160)" x2="0" y2="160" stroke="#2c3235" stroke-opacity="1" stroke-width="1" opacity="1"/><line transform="translate(731,-160)" x2="0" y2="160" stroke="#2c3235" stroke-opacity="1" stroke-width="1" opacity="1"/></g></g><path class="foreground" aria-hidden="true" d="" pointer-events="none" display="none"/></g></g><g class="mark-group role-axis" aria-hidden="true"><g transform="translate(0.5,0.5)"><path class="background" aria-hidden="true" d="M0,0h0v0h0Z" pointer-events="none"/><g><g class="mark-rule role-axis-grid" pointer-events="none"><line transform="translate(0,160)" x2="760" y2="0" stroke="#2c3235" stroke-opacity="1" stroke-width="1" opacity="1"/><line transform="translate(0,124)" x2="760" y2="0" stroke="#2c3235" stroke-opacity="1" stroke-width="1" opacity="1"/><line transform="translate(0,87)" x2="760" y2="0" stroke="#2c3235" stroke-opacity="1" stroke-width="1" opacity="1"/><line transform="translate(0,51)" x2="760" y2="0" stroke="#2c3235" stroke-opacity="1" stroke-width="1" opacity="1"/><line transform="translate(0,15)" x2="760" y2="0" stroke="#2c3235" stroke-opacity="1" stroke-width="1" opacity="1"/></g></g><path class="foreground" aria-hidden="true" d="" pointer-events="none" display="none"/></g></g><g class="mark-group role-axis" role="graphics-symbol" aria-roledescription="axis" aria-label="X-axis titled 'Time (UTC)' for a time scale with values from 19:29 to 19:41"><g transform="translate(0.5,160.5)"><path class="background" aria-hidden="true" d="M0,0h0v0h0Z" pointer-events="none"/><g><g class="mark-rule role-axis-tick" pointer-events="none"><line transform="translate(2,0)" x2="0" y2="5" stroke="#9fa7b3" stroke-width="1" opacity="1"/><line transform="translate(34,0)" x2="0" y2="5" stroke="#9fa7b3" stroke-width="1" opacity="1"/><line transform="translate(66,0)" x2="0" y2="5" stroke="#9fa7b3" stroke-width="1" opacity="1"/><line transform="translate(97,0)" x2="0" y2="5" stroke="#9fa7b3" stroke-width="1" opacity="1"/><line transform="translate(129,0)" x2="0" y2="5" stroke="#9fa7b3" stroke-width="1" opacity="1"/><line transform="translate(161,0)" x2="0" y2="5" stroke="#9fa7b3" stroke-width="1" opacity="1"/><line transform="translate(192,0)" x2="0" y2="5" stroke="#9fa7b3" stroke-width="1" opacity="1"/><line transform="translate(224,0)" x2="0" y2="5" stroke="#9fa7b3" stroke-width="1" opacity="1"/><line transform="translate(256,0)" x2="0" y2="5" stroke="#9fa7b3" stroke-width="1" opacity="1"/><line transform="translate(287,0)" x2="0" y2="5" stroke="#9fa7b3" stroke-width="1" opacity="1"/><line transform="translate(319,0)" x2="0" y2="5" stroke="#9fa7b3" stroke-width="1" opacity="1"/><line transform="translate(351,0)" x2="0" y2="5" stroke="#9fa7b3" stroke-width="1" opacity="1"/><line transform="translate(382,0)" x2="0" y2="5" stroke="#9fa7b3" stroke-width="1" opacity="1"/><line transform="translate(414,0)" x2="0" y2="5" stroke="#9fa7b3" stroke-width="1" opacity="1"/><line transform="translate(446,0)" x2="0" y2="5" stroke="#9fa7b3" stroke-width="1" opacity="1"/><line transform="translate(477,0)" x2="0" y2="5" stroke="#9fa7b3" stroke-width="1" opacity="1"/><line transform="translate(509,0)" x2="0" y2="5" stroke="#9fa7b3" stroke-width="1" opacity="1"/><line transform="translate(541,0)" x2="0" y2="5" stroke="#9fa7b3" stroke-width="1" opacity="1"/><line transform="translate(572,0)" x2="0" y2="5" stroke="#9fa7b3" stroke-width="1" opacity="1"/><line transform="translate(604,0)" x2="0" y2="5" stroke="#9fa7b3" stroke-width="1" opacity="1"/><line transform="translate(636,0)" x2="0" y2="5" stroke="#9fa7b3" stroke-width="1" opacity="1"/><line transform="translate(667,0)" x2="0" y2="5" stroke="#9fa7b3" stroke-width="1" opacity="1"/><line transform="translate(699,0)" x2="0" y2="5" stroke="#9fa7b3" stroke-width="1" opacity="1"/><line transform="translate(731,0)" x2="0" y2="5" stroke="#9fa7b3" stroke-width="1" opacity="1"/></g><g class="mark-text role-axis-label" pointer-events="none"><text text-anchor="middle" transform="translate(2.310611111111111,15)" font-family="sans-serif" font-size="10px" fill="#9fa7b3" opacity="1">19:29</text><text text-anchor="middle" transform="translate(33.97727777777778,15)" font-family="sans-serif" font-size="10px" fill="#9fa7b3" opacity="0">19:30</text><text text-anchor="middle" transform="translate(65.64394444444444,15)" font-family="sans-serif" font-size="10px" fill="#9fa7b3" opacity="1">19:30</text><text text-anchor="middle" transform="translate(97.3106111111111,15)" font-family="sans-serif" font-size="10px" fill="#9fa7b3" opacity="0">19:31</text><text text-anchor="middle" transform="translate(128.97727777777777,15)" font-family="sans-serif" font-size="10px" fill="#9fa7b3" opacity="1">19:31</text><text text-anchor="middle" transform="translate(160.64394444444443,15)" font-family="sans-serif" font-size="10px" fill="#9fa7b3" opacity="0">19:32</text><text text-anchor="middle" transform="translate(192.31061111111111,15)" font-family="sans-serif" font-size="10px" fill="#9fa7b3" opacity="1">19:32</text><text text-anchor="middle" transform="translate(223.97727777777777,15)" font-family="sans-serif" font-size="10px" fill="#9fa7b3" opacity="0">19:33</text><text text-anchor="middle" transform="translate(255.64394444444446,15)" font-family="sans-serif" font-size="10px" fill="#9fa7b3" opacity="1">19:33</text><text text-anchor="middle" transform="translate(287.3106111111111,15)" font-family="sans-serif" font-size="10px" fill="#9fa7b3" opacity="0">19:34</text><text text-anchor="middle" transform="translate(318.9772777777778,15)" font-family="sans-serif" font-size="10px" fill="#9fa7b3" opacity="1">19:34</text><text text-anchor="middle" transform="translate(350.64394444444446,15)" font-family="sans-serif" font-size="10px" fill="#9fa7b3" opacity="0">19:35</text><text text-anchor="middle" transform="translate(382.31061111111114,15)" font-family="sans-serif" font-size="10px" fill="#9fa7b3" opacity="1">19:35</text><text text-anchor="middle" transform="translate(413.9772777777778,15)" font-family="sans-serif" font-size="10px" fill="#9fa7b3" opacity="0">19:36</text><text text-anchor="middle" transform="translate(445.6439444444444,15)" font-family="sans-serif" font-size="10px" fill="#9fa7b3" opacity="1">19:36</text><text text-anchor="middle" transform="translate(477.31061111111114,15)" font-family="sans-serif" font-size="10px" fill="#9fa7b3" opacity="0">19:37</text><text text-anchor="middle" transform="translate(508.9772777777778,15)" font-family="sans-serif" font-size="10px" fill="#9fa7b3" opacity="1">19:37</text><text text-anchor="middle" transform="translate(540.6439444444444,15)" font-family="sans-serif" font-size="10px" fill="#9fa7b3" opacity="0">19:38</text><text text-anchor="middle" transform="translate(572.3106111111111,15)" font-family="sans-serif" font-size="10px" fill="#9fa7b3" opacity="1">19:38</text><text text-anchor="middle" transform="translate(603.9772777777778,15)" font-family="sans-serif" font-size="10px" fill="#9fa7b3" opacity="0">19:39</text><text text-anchor="middle" transform="translate(635.6439444444444,15)" font-family="sans-serif" font-size="10px" fill="#9fa7b3" opacity="1">19:39</text><text text-anchor="middle" transform="translate(667.3106111111111,15)" font-family="sans-serif" font-size="10px" fill="#9fa7b3" opacity="0">19:40</text><text text-anchor="middle" transform="translate(698.9772777777778,15)" font-family="sans-serif" font-size="10px" fill="#9fa7b3" opacity="1">19:40</text><text text-anchor="middle" transform="translate(730.6439444444444,15)" font-family="sans-serif" font-size="10px" fill="#9fa7b3" opacity="0">19:41</text></g><g class="mark-rule role-axis-domain" pointer-events="none"><line transform="translate(0,0)" x2="760" y2="0" stroke="#9fa7b3" stroke-width="1" opacity="1"/></g><g class="mark-text role-axis-title" pointer-events="none"><text text-anchor="middle" transform="translate(380,29)" font-family="sans-serif" font-size="10px" font-weight="bold" fill="#9fa7b3" opacity="1">Time (UTC)</text></g></g><path class="foreground" aria-hidden="true" d="" pointer-events="none" display="none"/></g></g><g class="mark-group role-axis" role="graphics-symbol" aria-roledescription="axis" aria-label="Y-axis titled 'blocks' for a linear scale with values from 530 to 552"><g transform="translate(0.5,0.5)"><path class="background" aria-hidden="true" d="M0,0h0v0h0Z" pointer-events="none"/><g><g class="mark-rule role-axis-tick" pointer-events="none"><line transform="translate(0,160)" x2="-5" y2="0" stroke="#9fa7b3" stroke-width="1" opacity="1"/><line transform="translate(0,124)" x2="-5" y2="0" stroke="#9fa7b3" stroke-width="1" opacity="1"/><line transform="translate(0,87)" x2="-5" y2="0" stroke="#9fa7b3" stroke-width="1" opacity="1"/><line transform="translate(0,51)" x2="-5" y2="0" stroke="#9fa7b3" stroke-width="1" opacity="1"/><line transform="translate(0,15)" x2="-5" y2="0" stroke="#9fa7b3" stroke-width="1" opacity="1"/></g><g class="mark-text role-axis-label" pointer-events="none"><text text-anchor="end" transform="translate(-7,163)" font-family="sans-serif" font-size="10px" fill="#9fa7b3" opacity="1">530</text><text text-anchor="end" transform="translate(-7,126.63636363636363)" font-family="sans-serif" font-size="10px" fill="#9fa7b3" opacity="1">535</text><text text-anchor="end" transform="translate(-7,90.27272727272727)" font-family="sans-serif" font-size="10px" fill="#9fa7b3" opacity="1">540</text><text text-anchor="end" transform="translate(-7,53.90909090909092)" font-family="sans-serif" font-size="10px" fill="#9fa7b3" opacity="1">545</text><text text-anchor="end" transform="translate(-7,17.54545454545455)" font-family="sans-serif" font-size="10px" fill="#9fa7b3" opacity="1">550</text></g><g class="mark-rule role-axis-domain" pointer-events="none"><line transform="translate(0,160)" x2="0" y2="-160" stroke="#9fa7b3" stroke-width="1" opacity="1"/></g><g class="mark-text role-axis-title" pointer-events="none"><text text-anchor="middle" transform="translate(-35,80) rotate(-90) translate(0,-2)" font-family="sans-serif" font-size="10px" font-weight="bold" fill="#9fa7b3" opacity="1">blocks</text></g></g><path class="foreground" aria-hidden="true" d="" pointer-events="none" display="none"/></g></g><g class="mark-line role-mark layer_0_marks" role="graphics-object" aria-roledescription="line mark container"><path aria-label="ts: 19:29; value: 530" role="graphics-symbol" aria-roledescription="line mark" d="M0,160C5.278,160,10.556,160,15.833,160C21.111,160,26.389,152.727,31.667,152.727C36.944,152.727,42.222,152.727,47.5,152.727C52.778,152.727,58.056,145.455,63.333,145.455C68.611,145.455,73.889,145.455,79.167,145.455C84.444,145.455,89.722,145.455,95,145.455C100.278,145.455,105.556,138.182,110.833,138.182C116.111,138.182,121.389,138.182,126.667,138.182C131.944,138.182,137.222,130.909,142.5,130.909C147.778,130.909,153.056,130.909,158.333,130.909C163.611,130.909,168.889,123.636,174.167,123.636C179.444,123.636,184.722,123.636,190,123.636C195.278,123.636,200.556,123.636,205.833,123.636C211.111,123.636,216.389,116.364,221.667,116.364C226.944,116.364,232.222,116.364,237.5,116.364C242.778,116.364,248.056,109.091,253.333,109.091C258.611,109.091,263.889,109.091,269.167,109.091C274.444,109.091,279.722,101.818,285,101.818C290.278,101.818,295.556,101.818,300.833,101.818C306.111,101.818,311.389,101.818,316.667,101.818C321.944,101.818,327.222,94.545,332.5,94.545C337.778,94.545,343.056,94.545,348.333,94.545C353.611,94.545,358.889,87.273,364.167,87.273C369.444,87.273,374.722,87.273,380,87.273C385.278,87.273,390.556,80,395.833,80C401.111,80,406.389,80,411.667,80C416.944,80,422.222,80,427.5,80C432.778,80,438.056,72.727,443.333,72.727C448.611,72.727,453.889,72.727,459.167,72.727C464.444,72.727,469.722,65.455,475,65.455C480.278,65.455,485.556,65.455,490.833,65.455C496.111,65.455,501.389,58.182,506.667,58.182C511.944,58.182,517.222,58.182,522.5,58.182C527.778,58.182,533.056,58.182,538.333,58.182C543.611,58.182,548.889,50.909,554.167,50.909C559.444,50.909,564.722,50.909,570,50.909C575.278,50.909,580.556,43.636,585.833,43.636C591.111,43.636,596.389,43.636,601.667,43.636C606.944,43.636,612.222,36.364,617.5,36.364C622.778,36.364,628.056,36.364,633.333,36.364C638.611,36.364,643.889,36.364,649.167,36.364C654.444,36.364,659.722,29.091,665,29.091C670.278,29.091,675.556,29.091,680.833,29.091C686.111,29.091,691.389,21.818,696.667,21.818C701.944,21.818,707.222,21.818,712.5,21.818C717.778,21.818,723.056,14.545,728.333,14.545C733.611,14.545,738.889,14.545,744.167,14.545C749.444,14.545,754.722,10.909,760,7.273" stroke="#7EB26D" stroke-width="1.5"/></g><g class="mark-group role-title"><g transform="translate(-45,-21)"><path class="background" aria-hidden="true" d="M0,0h0v0h0Z" pointer-events="none"/><g><g class="mark-text role-title-text" role="graphics-symbol" aria-roledescription="title" aria-label="Title text 'Built Blocks'" pointer-events="none"><text text-anchor="start" transform="translate(0,10)" font-family="sans-serif" font-size="13px" font-weight="normal" fill="#d0d0d0" opacity="1">Built Blocks</text></g></g><path class="foreground" aria-hidden="true" d="" pointer-events="none" display="none"/></g></g></g><path class="foreground" aria-hidden="true" d="" display="none"/></g></g></g></svg>